%TF.GenerationSoftware,KiCad,Pcbnew,9.0.4*%
%TF.CreationDate,2025-12-09T22:33:46-05:00*%
%TF.ProjectId,EMG_BCI_PCB,454d475f-4243-4495-9f50-43422e6b6963,rev?*%
%TF.SameCoordinates,Original*%
%TF.FileFunction,Copper,L3,Inr*%
%TF.FilePolarity,Positive*%
%FSLAX46Y46*%
G04 Gerber Fmt 4.6, Leading zero omitted, Abs format (unit mm)*
G04 Created by KiCad (PCBNEW 9.0.4) date 2025-12-09 22:33:46*
%MOMM*%
%LPD*%
G01*
G04 APERTURE LIST*
%TA.AperFunction,ComponentPad*%
%ADD10R,1.700000X1.700000*%
%TD*%
%TA.AperFunction,ComponentPad*%
%ADD11C,1.700000*%
%TD*%
%TA.AperFunction,ComponentPad*%
%ADD12C,2.340000*%
%TD*%
%TA.AperFunction,ViaPad*%
%ADD13C,0.800000*%
%TD*%
%TA.AperFunction,Profile*%
%ADD14C,0.100000*%
%TD*%
G04 APERTURE END LIST*
D10*
%TO.N,Earth*%
%TO.C,TP8*%
X123350000Y-101650000D03*
%TD*%
%TO.N,Net-(U5-PWRGD)*%
%TO.C,TP6*%
X112500000Y-102500000D03*
%TD*%
%TO.N,Net-(U3C-+)*%
%TO.C,TP3*%
X136500000Y-115250000D03*
%TD*%
%TO.N,/EMG_FrontEnd/LP_OUT*%
%TO.C,TP1*%
X135250000Y-103500000D03*
%TD*%
%TO.N,Net-(R1-Pad2)*%
%TO.C,TP2*%
X135000000Y-98000000D03*
%TD*%
%TO.N,/EMG_ADC/AdcCh1*%
%TO.C,J2*%
X142250000Y-91275000D03*
D11*
%TO.N,/EMG_ADC/AdcCh0*%
X139710000Y-91275000D03*
%TD*%
D10*
%TO.N,Earth*%
%TO.C,TP10*%
X155400000Y-93200000D03*
%TD*%
%TO.N,Earth*%
%TO.C,TP9*%
X132900000Y-88700000D03*
%TD*%
%TO.N,Net-(R17-Pad2)*%
%TO.C,TP4*%
X155500000Y-99000000D03*
%TD*%
%TO.N,Net-(C9-Pad2)*%
%TO.C,TP5*%
X112000000Y-85000000D03*
%TD*%
%TO.N,Earth*%
%TO.C,TP7*%
X116000000Y-85000000D03*
%TD*%
D12*
%TO.N,Net-(R17-Pad2)*%
%TO.C,RV1*%
X151000000Y-102750000D03*
%TO.N,Net-(U3C--)*%
X153500000Y-112750000D03*
%TO.N,unconnected-(RV1-Pad3)*%
X156000000Y-102750000D03*
%TD*%
D10*
%TO.N,Earth*%
%TO.C,TP11*%
X102750000Y-110500000D03*
%TD*%
D13*
%TO.N,Net-(U3D--)*%
X143200000Y-107100000D03*
X140000000Y-107650000D03*
%TO.N,Earth*%
X146512500Y-106600000D03*
X133912500Y-117500000D03*
X109900000Y-103400000D03*
X123600000Y-108800000D03*
X121218750Y-97362500D03*
X107750000Y-101500000D03*
X147612500Y-94250000D03*
X141500000Y-99250000D03*
X113500000Y-108800000D03*
%TO.N,Net-(U3D-+)*%
X136100000Y-109900000D03*
%TO.N,Earth*%
X131612500Y-93537500D03*
X147612500Y-92500000D03*
X115000000Y-95137500D03*
X127556250Y-112168750D03*
X125556250Y-89000000D03*
X141806250Y-108693750D03*
X140862500Y-100387500D03*
X115500000Y-108800000D03*
X133612500Y-93537500D03*
X129306250Y-112168750D03*
X107000000Y-85637500D03*
X109000000Y-85637500D03*
X106000000Y-92750000D03*
X122200000Y-104000000D03*
X105137500Y-104000000D03*
X119468750Y-97362500D03*
X143556250Y-108693750D03*
X132500000Y-101200000D03*
X121400000Y-108800000D03*
X119000000Y-87837500D03*
X98000000Y-96500000D03*
X116750000Y-95137500D03*
X119500000Y-108800000D03*
X152612500Y-96250000D03*
X117500000Y-108800000D03*
X115500000Y-102862500D03*
X146250000Y-108337500D03*
X147112500Y-101387500D03*
%TO.N,+3.3V*%
X135100000Y-95100000D03*
X103600000Y-107800000D03*
X142700000Y-99500000D03*
X126300000Y-111300000D03*
X140738500Y-86961500D03*
X113200000Y-87800000D03*
X109000000Y-87362500D03*
X144300000Y-95700000D03*
%TO.N,Net-(U2A-+)*%
X131218750Y-97750000D03*
X123968750Y-89500000D03*
%TO.N,-3V3*%
X128600000Y-107800000D03*
X141800000Y-110400000D03*
X143600000Y-110400000D03*
X127500000Y-107800000D03*
X121218750Y-95637500D03*
X126400000Y-107800000D03*
%TO.N,/SPI_CLK*%
X103500000Y-100000000D03*
X148000000Y-96000000D03*
%TO.N,/SPI_CS*%
X141500000Y-93800000D03*
X99750000Y-102500000D03*
%TO.N,/SPI_DOUT*%
X102250000Y-106000000D03*
X148500000Y-97250000D03*
%TO.N,/SPI_DIN*%
X148469669Y-98469669D03*
X98000000Y-101580000D03*
%TO.N,Net-(U2C-+)*%
X124968750Y-99500000D03*
X126218750Y-95250000D03*
%TO.N,Net-(U3C-+)*%
X132500000Y-114000000D03*
X135250000Y-111500000D03*
%TO.N,Net-(R17-Pad2)*%
X141000000Y-113250000D03*
%TD*%
%TA.AperFunction,Conductor*%
%TO.N,Earth*%
G36*
X159304043Y-80600765D02*
G01*
X159526790Y-80615364D01*
X159542848Y-80617479D01*
X159728875Y-80654482D01*
X159757771Y-80660230D01*
X159773438Y-80664428D01*
X159926569Y-80716409D01*
X159980944Y-80734867D01*
X159995921Y-80741070D01*
X160186791Y-80835196D01*
X160192460Y-80837992D01*
X160206508Y-80846102D01*
X160388712Y-80967848D01*
X160401573Y-80977716D01*
X160506495Y-81069730D01*
X160566328Y-81122202D01*
X160577797Y-81133671D01*
X160688160Y-81259517D01*
X160722280Y-81298423D01*
X160732154Y-81311291D01*
X160853897Y-81493492D01*
X160862007Y-81507539D01*
X160958926Y-81704071D01*
X160965133Y-81719057D01*
X161035571Y-81926561D01*
X161039769Y-81942228D01*
X161082518Y-82157140D01*
X161084636Y-82173221D01*
X161099235Y-82395956D01*
X161099500Y-82404066D01*
X161099500Y-120295933D01*
X161099235Y-120304043D01*
X161084636Y-120526778D01*
X161082518Y-120542859D01*
X161039769Y-120757771D01*
X161035571Y-120773438D01*
X160965133Y-120980942D01*
X160958926Y-120995928D01*
X160862007Y-121192460D01*
X160853897Y-121206507D01*
X160732154Y-121388708D01*
X160722280Y-121401576D01*
X160577797Y-121566328D01*
X160566328Y-121577797D01*
X160401576Y-121722280D01*
X160388708Y-121732154D01*
X160206507Y-121853897D01*
X160192460Y-121862007D01*
X159995928Y-121958926D01*
X159980942Y-121965133D01*
X159773438Y-122035571D01*
X159757771Y-122039769D01*
X159542859Y-122082518D01*
X159526778Y-122084636D01*
X159304043Y-122099235D01*
X159295933Y-122099500D01*
X92204067Y-122099500D01*
X92195957Y-122099235D01*
X91973221Y-122084636D01*
X91957140Y-122082518D01*
X91742228Y-122039769D01*
X91726561Y-122035571D01*
X91519057Y-121965133D01*
X91504071Y-121958926D01*
X91307539Y-121862007D01*
X91293492Y-121853897D01*
X91111291Y-121732154D01*
X91098423Y-121722280D01*
X90933671Y-121577797D01*
X90922202Y-121566328D01*
X90869730Y-121506495D01*
X90777716Y-121401573D01*
X90767845Y-121388708D01*
X90646102Y-121206507D01*
X90637992Y-121192460D01*
X90635196Y-121186791D01*
X90541070Y-120995921D01*
X90534866Y-120980942D01*
X90464428Y-120773438D01*
X90460230Y-120757771D01*
X90448217Y-120697376D01*
X90417479Y-120542848D01*
X90415364Y-120526790D01*
X90400765Y-120304043D01*
X90400500Y-120295933D01*
X90400500Y-113910516D01*
X131591500Y-113910516D01*
X131591500Y-114089483D01*
X131626411Y-114264992D01*
X131626413Y-114265000D01*
X131694896Y-114430332D01*
X131694901Y-114430342D01*
X131794321Y-114579134D01*
X131794324Y-114579138D01*
X131920861Y-114705675D01*
X131920865Y-114705678D01*
X132069657Y-114805098D01*
X132069661Y-114805100D01*
X132069664Y-114805102D01*
X132235000Y-114873587D01*
X132410516Y-114908499D01*
X132410520Y-114908500D01*
X132410521Y-114908500D01*
X132589480Y-114908500D01*
X132589481Y-114908499D01*
X132765000Y-114873587D01*
X132930336Y-114805102D01*
X133079135Y-114705678D01*
X133205678Y-114579135D01*
X133305102Y-114430336D01*
X133337821Y-114351345D01*
X135141500Y-114351345D01*
X135141500Y-116148654D01*
X135148011Y-116209202D01*
X135148011Y-116209204D01*
X135199111Y-116346204D01*
X135286739Y-116463261D01*
X135403796Y-116550889D01*
X135540799Y-116601989D01*
X135568050Y-116604918D01*
X135601345Y-116608499D01*
X135601362Y-116608500D01*
X137398638Y-116608500D01*
X137398654Y-116608499D01*
X137425692Y-116605591D01*
X137459201Y-116601989D01*
X137596204Y-116550889D01*
X137713261Y-116463261D01*
X137800889Y-116346204D01*
X137851989Y-116209201D01*
X137855591Y-116175692D01*
X137858499Y-116148654D01*
X137858500Y-116148637D01*
X137858500Y-114351362D01*
X137858499Y-114351345D01*
X137853041Y-114300586D01*
X137851989Y-114290799D01*
X137842366Y-114265000D01*
X137829522Y-114230564D01*
X137800889Y-114153796D01*
X137713261Y-114036739D01*
X137596204Y-113949111D01*
X137459203Y-113898011D01*
X137398654Y-113891500D01*
X137398638Y-113891500D01*
X135601362Y-113891500D01*
X135601345Y-113891500D01*
X135540797Y-113898011D01*
X135540795Y-113898011D01*
X135403795Y-113949111D01*
X135286739Y-114036739D01*
X135199111Y-114153795D01*
X135148011Y-114290795D01*
X135148011Y-114290797D01*
X135141500Y-114351345D01*
X133337821Y-114351345D01*
X133373587Y-114265000D01*
X133408500Y-114089479D01*
X133408500Y-113910521D01*
X133373587Y-113735000D01*
X133305102Y-113569664D01*
X133305100Y-113569661D01*
X133305098Y-113569657D01*
X133205678Y-113420865D01*
X133205675Y-113420861D01*
X133079138Y-113294324D01*
X133079134Y-113294321D01*
X133024074Y-113257531D01*
X132930342Y-113194901D01*
X132930332Y-113194896D01*
X132847332Y-113160516D01*
X140091500Y-113160516D01*
X140091500Y-113339483D01*
X140126411Y-113514992D01*
X140126413Y-113515000D01*
X140194896Y-113680332D01*
X140194901Y-113680342D01*
X140294321Y-113829134D01*
X140294324Y-113829138D01*
X140420861Y-113955675D01*
X140420865Y-113955678D01*
X140569657Y-114055098D01*
X140569661Y-114055100D01*
X140569664Y-114055102D01*
X140735000Y-114123587D01*
X140886867Y-114153795D01*
X140910516Y-114158499D01*
X140910520Y-114158500D01*
X140910521Y-114158500D01*
X141089480Y-114158500D01*
X141089481Y-114158499D01*
X141265000Y-114123587D01*
X141430336Y-114055102D01*
X141579135Y-113955678D01*
X141705678Y-113829135D01*
X141805102Y-113680336D01*
X141873587Y-113515000D01*
X141908500Y-113339479D01*
X141908500Y-113160521D01*
X141873587Y-112985000D01*
X141805102Y-112819664D01*
X141805100Y-112819661D01*
X141805098Y-112819657D01*
X141728364Y-112704817D01*
X141728363Y-112704816D01*
X141705676Y-112670862D01*
X141674798Y-112639984D01*
X151821500Y-112639984D01*
X151821500Y-112860015D01*
X151850218Y-113078158D01*
X151907167Y-113290694D01*
X151991366Y-113493968D01*
X151991370Y-113493978D01*
X152101379Y-113684521D01*
X152235333Y-113859092D01*
X152390907Y-114014666D01*
X152390911Y-114014669D01*
X152390913Y-114014671D01*
X152532856Y-114123588D01*
X152565478Y-114148620D01*
X152756021Y-114258629D01*
X152756022Y-114258629D01*
X152756025Y-114258631D01*
X152959306Y-114342833D01*
X153171838Y-114399781D01*
X153335448Y-114421320D01*
X153389984Y-114428500D01*
X153389985Y-114428500D01*
X153610016Y-114428500D01*
X153653644Y-114422756D01*
X153828162Y-114399781D01*
X154040694Y-114342833D01*
X154243975Y-114258631D01*
X154425556Y-114153796D01*
X154434521Y-114148620D01*
X154434521Y-114148619D01*
X154434526Y-114148617D01*
X154609087Y-114014671D01*
X154764671Y-113859087D01*
X154898617Y-113684526D01*
X155008631Y-113493975D01*
X155092833Y-113290694D01*
X155149781Y-113078162D01*
X155178500Y-112860015D01*
X155178500Y-112639985D01*
X155149781Y-112421838D01*
X155092833Y-112209306D01*
X155008631Y-112006025D01*
X154964936Y-111930342D01*
X154898620Y-111815478D01*
X154881644Y-111793354D01*
X154764671Y-111640913D01*
X154764669Y-111640911D01*
X154764666Y-111640907D01*
X154609092Y-111485333D01*
X154434521Y-111351379D01*
X154243978Y-111241370D01*
X154243968Y-111241366D01*
X154040694Y-111157167D01*
X153828158Y-111100218D01*
X153610016Y-111071500D01*
X153610015Y-111071500D01*
X153389985Y-111071500D01*
X153389984Y-111071500D01*
X153171841Y-111100218D01*
X152959305Y-111157167D01*
X152756031Y-111241366D01*
X152756021Y-111241370D01*
X152565478Y-111351379D01*
X152390907Y-111485333D01*
X152235333Y-111640907D01*
X152101379Y-111815478D01*
X151991370Y-112006021D01*
X151991366Y-112006031D01*
X151907167Y-112209305D01*
X151850218Y-112421841D01*
X151821500Y-112639984D01*
X141674798Y-112639984D01*
X141579138Y-112544324D01*
X141579134Y-112544321D01*
X141430342Y-112444901D01*
X141430332Y-112444896D01*
X141265000Y-112376413D01*
X141264992Y-112376411D01*
X141089483Y-112341500D01*
X141089479Y-112341500D01*
X140910521Y-112341500D01*
X140910516Y-112341500D01*
X140735007Y-112376411D01*
X140734999Y-112376413D01*
X140569667Y-112444896D01*
X140569657Y-112444901D01*
X140420865Y-112544321D01*
X140420861Y-112544324D01*
X140294324Y-112670861D01*
X140294321Y-112670865D01*
X140194901Y-112819657D01*
X140194896Y-112819667D01*
X140126413Y-112984999D01*
X140126411Y-112985007D01*
X140091500Y-113160516D01*
X132847332Y-113160516D01*
X132765000Y-113126413D01*
X132764992Y-113126411D01*
X132589483Y-113091500D01*
X132589479Y-113091500D01*
X132410521Y-113091500D01*
X132410516Y-113091500D01*
X132235007Y-113126411D01*
X132234999Y-113126413D01*
X132069667Y-113194896D01*
X132069657Y-113194901D01*
X131920865Y-113294321D01*
X131920861Y-113294324D01*
X131794324Y-113420861D01*
X131794321Y-113420865D01*
X131694901Y-113569657D01*
X131694896Y-113569667D01*
X131626413Y-113734999D01*
X131626411Y-113735007D01*
X131591500Y-113910516D01*
X90400500Y-113910516D01*
X90400500Y-109602155D01*
X101400000Y-109602155D01*
X101400000Y-110250000D01*
X102316988Y-110250000D01*
X102284075Y-110307007D01*
X102250000Y-110434174D01*
X102250000Y-110565826D01*
X102284075Y-110692993D01*
X102316988Y-110750000D01*
X101400000Y-110750000D01*
X101400000Y-111397844D01*
X101406401Y-111457372D01*
X101406403Y-111457379D01*
X101456645Y-111592086D01*
X101456649Y-111592093D01*
X101542809Y-111707187D01*
X101542812Y-111707190D01*
X101657906Y-111793350D01*
X101657913Y-111793354D01*
X101792620Y-111843596D01*
X101792627Y-111843598D01*
X101852155Y-111849999D01*
X101852172Y-111850000D01*
X102500000Y-111850000D01*
X102500000Y-110933012D01*
X102557007Y-110965925D01*
X102684174Y-111000000D01*
X102815826Y-111000000D01*
X102942993Y-110965925D01*
X103000000Y-110933012D01*
X103000000Y-111850000D01*
X103647828Y-111850000D01*
X103647844Y-111849999D01*
X103707372Y-111843598D01*
X103707379Y-111843596D01*
X103842086Y-111793354D01*
X103842093Y-111793350D01*
X103957187Y-111707190D01*
X103957190Y-111707187D01*
X104043350Y-111592093D01*
X104043354Y-111592086D01*
X104093596Y-111457379D01*
X104093598Y-111457372D01*
X104099999Y-111397844D01*
X104100000Y-111397827D01*
X104100000Y-111210516D01*
X125391500Y-111210516D01*
X125391500Y-111389483D01*
X125426411Y-111564992D01*
X125426413Y-111565000D01*
X125494896Y-111730332D01*
X125494901Y-111730342D01*
X125594321Y-111879134D01*
X125594324Y-111879138D01*
X125720861Y-112005675D01*
X125720865Y-112005678D01*
X125869657Y-112105098D01*
X125869661Y-112105100D01*
X125869664Y-112105102D01*
X126035000Y-112173587D01*
X126196319Y-112205675D01*
X126210516Y-112208499D01*
X126210520Y-112208500D01*
X126210521Y-112208500D01*
X126389480Y-112208500D01*
X126389481Y-112208499D01*
X126565000Y-112173587D01*
X126730336Y-112105102D01*
X126879135Y-112005678D01*
X127005678Y-111879135D01*
X127105102Y-111730336D01*
X127173587Y-111565000D01*
X127204315Y-111410516D01*
X134341500Y-111410516D01*
X134341500Y-111589483D01*
X134376411Y-111764992D01*
X134376413Y-111765000D01*
X134444896Y-111930332D01*
X134444901Y-111930342D01*
X134544321Y-112079134D01*
X134544324Y-112079138D01*
X134670861Y-112205675D01*
X134670865Y-112205678D01*
X134819657Y-112305098D01*
X134819661Y-112305100D01*
X134819664Y-112305102D01*
X134985000Y-112373587D01*
X135160516Y-112408499D01*
X135160520Y-112408500D01*
X135160521Y-112408500D01*
X135339480Y-112408500D01*
X135339481Y-112408499D01*
X135515000Y-112373587D01*
X135680336Y-112305102D01*
X135829135Y-112205678D01*
X135955678Y-112079135D01*
X136055102Y-111930336D01*
X136123587Y-111765000D01*
X136158500Y-111589479D01*
X136158500Y-111410521D01*
X136123587Y-111235000D01*
X136055102Y-111069664D01*
X136055100Y-111069661D01*
X136055098Y-111069657D01*
X136009484Y-111001391D01*
X135988606Y-110934713D01*
X136007091Y-110867333D01*
X136059069Y-110820643D01*
X136112586Y-110808500D01*
X136189480Y-110808500D01*
X136189481Y-110808499D01*
X136365000Y-110773587D01*
X136530336Y-110705102D01*
X136679135Y-110605678D01*
X136805678Y-110479135D01*
X136905102Y-110330336D01*
X136913312Y-110310516D01*
X140891500Y-110310516D01*
X140891500Y-110489483D01*
X140926411Y-110664992D01*
X140926413Y-110665000D01*
X140994896Y-110830332D01*
X140994901Y-110830342D01*
X141094321Y-110979134D01*
X141094324Y-110979138D01*
X141220861Y-111105675D01*
X141220865Y-111105678D01*
X141369657Y-111205098D01*
X141369661Y-111205100D01*
X141369664Y-111205102D01*
X141535000Y-111273587D01*
X141710516Y-111308499D01*
X141710520Y-111308500D01*
X141710521Y-111308500D01*
X141889480Y-111308500D01*
X141889481Y-111308499D01*
X142065000Y-111273587D01*
X142230336Y-111205102D01*
X142379135Y-111105678D01*
X142505678Y-110979135D01*
X142578829Y-110869657D01*
X142596898Y-110842615D01*
X142650510Y-110797810D01*
X142719835Y-110789103D01*
X142782862Y-110819257D01*
X142803102Y-110842615D01*
X142894321Y-110979134D01*
X142894324Y-110979138D01*
X143020861Y-111105675D01*
X143020865Y-111105678D01*
X143169657Y-111205098D01*
X143169661Y-111205100D01*
X143169664Y-111205102D01*
X143335000Y-111273587D01*
X143510516Y-111308499D01*
X143510520Y-111308500D01*
X143510521Y-111308500D01*
X143689480Y-111308500D01*
X143689481Y-111308499D01*
X143865000Y-111273587D01*
X144030336Y-111205102D01*
X144179135Y-111105678D01*
X144305678Y-110979135D01*
X144405102Y-110830336D01*
X144473587Y-110665000D01*
X144508500Y-110489479D01*
X144508500Y-110310521D01*
X144473587Y-110135000D01*
X144405102Y-109969664D01*
X144405100Y-109969661D01*
X144405098Y-109969657D01*
X144305678Y-109820865D01*
X144305675Y-109820861D01*
X144179138Y-109694324D01*
X144179134Y-109694321D01*
X144030342Y-109594901D01*
X144030332Y-109594896D01*
X143865000Y-109526413D01*
X143864992Y-109526411D01*
X143689483Y-109491500D01*
X143689479Y-109491500D01*
X143510521Y-109491500D01*
X143510516Y-109491500D01*
X143335007Y-109526411D01*
X143334999Y-109526413D01*
X143169667Y-109594896D01*
X143169657Y-109594901D01*
X143020865Y-109694321D01*
X143020861Y-109694324D01*
X142894324Y-109820861D01*
X142894321Y-109820865D01*
X142803102Y-109957384D01*
X142749490Y-110002189D01*
X142680165Y-110010896D01*
X142617137Y-109980741D01*
X142596898Y-109957384D01*
X142505678Y-109820865D01*
X142505675Y-109820861D01*
X142379138Y-109694324D01*
X142379134Y-109694321D01*
X142230342Y-109594901D01*
X142230332Y-109594896D01*
X142065000Y-109526413D01*
X142064992Y-109526411D01*
X141889483Y-109491500D01*
X141889479Y-109491500D01*
X141710521Y-109491500D01*
X141710516Y-109491500D01*
X141535007Y-109526411D01*
X141534999Y-109526413D01*
X141369667Y-109594896D01*
X141369657Y-109594901D01*
X141220865Y-109694321D01*
X141220861Y-109694324D01*
X141094324Y-109820861D01*
X141094321Y-109820865D01*
X140994901Y-109969657D01*
X140994896Y-109969667D01*
X140926413Y-110134999D01*
X140926411Y-110135007D01*
X140891500Y-110310516D01*
X136913312Y-110310516D01*
X136973587Y-110165000D01*
X137008500Y-109989479D01*
X137008500Y-109810521D01*
X136973587Y-109635000D01*
X136905102Y-109469664D01*
X136905100Y-109469661D01*
X136905098Y-109469657D01*
X136805678Y-109320865D01*
X136805675Y-109320861D01*
X136679138Y-109194324D01*
X136679134Y-109194321D01*
X136530342Y-109094901D01*
X136530332Y-109094896D01*
X136365000Y-109026413D01*
X136364992Y-109026411D01*
X136189483Y-108991500D01*
X136189479Y-108991500D01*
X136010521Y-108991500D01*
X136010516Y-108991500D01*
X135835007Y-109026411D01*
X135834999Y-109026413D01*
X135669667Y-109094896D01*
X135669657Y-109094901D01*
X135520865Y-109194321D01*
X135520861Y-109194324D01*
X135394324Y-109320861D01*
X135394321Y-109320865D01*
X135294901Y-109469657D01*
X135294896Y-109469667D01*
X135226413Y-109634999D01*
X135226411Y-109635007D01*
X135191500Y-109810516D01*
X135191500Y-109989483D01*
X135226411Y-110164992D01*
X135226413Y-110165000D01*
X135294896Y-110330332D01*
X135294901Y-110330342D01*
X135340516Y-110398609D01*
X135361394Y-110465287D01*
X135342909Y-110532667D01*
X135290931Y-110579357D01*
X135237414Y-110591500D01*
X135160516Y-110591500D01*
X134985007Y-110626411D01*
X134984999Y-110626413D01*
X134819667Y-110694896D01*
X134819657Y-110694901D01*
X134670865Y-110794321D01*
X134670861Y-110794324D01*
X134544324Y-110920861D01*
X134544321Y-110920865D01*
X134444901Y-111069657D01*
X134444896Y-111069667D01*
X134376413Y-111234999D01*
X134376411Y-111235007D01*
X134341500Y-111410516D01*
X127204315Y-111410516D01*
X127206836Y-111397844D01*
X127208500Y-111389481D01*
X127208500Y-111210520D01*
X127208499Y-111210516D01*
X127197887Y-111157167D01*
X127173587Y-111035000D01*
X127105102Y-110869664D01*
X127105100Y-110869661D01*
X127105098Y-110869657D01*
X127005678Y-110720865D01*
X127005675Y-110720861D01*
X126879137Y-110594323D01*
X126879134Y-110594321D01*
X126730342Y-110494901D01*
X126730332Y-110494896D01*
X126565000Y-110426413D01*
X126564992Y-110426411D01*
X126389483Y-110391500D01*
X126389479Y-110391500D01*
X126210521Y-110391500D01*
X126210516Y-110391500D01*
X126035007Y-110426411D01*
X126034999Y-110426413D01*
X125869667Y-110494896D01*
X125869657Y-110494901D01*
X125720865Y-110594321D01*
X125720863Y-110594323D01*
X125594324Y-110720861D01*
X125594321Y-110720865D01*
X125494901Y-110869657D01*
X125494896Y-110869667D01*
X125426413Y-111034999D01*
X125426411Y-111035007D01*
X125391500Y-111210516D01*
X104100000Y-111210516D01*
X104100000Y-110750000D01*
X103183012Y-110750000D01*
X103215925Y-110692993D01*
X103250000Y-110565826D01*
X103250000Y-110434174D01*
X103215925Y-110307007D01*
X103183012Y-110250000D01*
X104100000Y-110250000D01*
X104100000Y-109602172D01*
X104099999Y-109602155D01*
X104093598Y-109542627D01*
X104093596Y-109542620D01*
X104043354Y-109407913D01*
X104043350Y-109407906D01*
X103957190Y-109292812D01*
X103957187Y-109292809D01*
X103842093Y-109206649D01*
X103842086Y-109206645D01*
X103707379Y-109156403D01*
X103707372Y-109156401D01*
X103647844Y-109150000D01*
X103000000Y-109150000D01*
X103000000Y-110066988D01*
X102942993Y-110034075D01*
X102815826Y-110000000D01*
X102684174Y-110000000D01*
X102557007Y-110034075D01*
X102500000Y-110066988D01*
X102500000Y-109150000D01*
X101852155Y-109150000D01*
X101792627Y-109156401D01*
X101792620Y-109156403D01*
X101657913Y-109206645D01*
X101657906Y-109206649D01*
X101542812Y-109292809D01*
X101542809Y-109292812D01*
X101456649Y-109407906D01*
X101456645Y-109407913D01*
X101406403Y-109542620D01*
X101406401Y-109542627D01*
X101400000Y-109602155D01*
X90400500Y-109602155D01*
X90400500Y-107710516D01*
X102691500Y-107710516D01*
X102691500Y-107889483D01*
X102726411Y-108064992D01*
X102726413Y-108065000D01*
X102794896Y-108230332D01*
X102794901Y-108230342D01*
X102894321Y-108379134D01*
X102894324Y-108379138D01*
X103020861Y-108505675D01*
X103020865Y-108505678D01*
X103169657Y-108605098D01*
X103169661Y-108605100D01*
X103169664Y-108605102D01*
X103335000Y-108673587D01*
X103510516Y-108708499D01*
X103510520Y-108708500D01*
X103510521Y-108708500D01*
X103689480Y-108708500D01*
X103689481Y-108708499D01*
X103865000Y-108673587D01*
X104030336Y-108605102D01*
X104179135Y-108505678D01*
X104305678Y-108379135D01*
X104405102Y-108230336D01*
X104473587Y-108065000D01*
X104508500Y-107889479D01*
X104508500Y-107710521D01*
X104508499Y-107710516D01*
X125491500Y-107710516D01*
X125491500Y-107889483D01*
X125526411Y-108064992D01*
X125526413Y-108065000D01*
X125594896Y-108230332D01*
X125594901Y-108230342D01*
X125694321Y-108379134D01*
X125694324Y-108379138D01*
X125820861Y-108505675D01*
X125820865Y-108505678D01*
X125969657Y-108605098D01*
X125969661Y-108605100D01*
X125969664Y-108605102D01*
X126135000Y-108673587D01*
X126310516Y-108708499D01*
X126310520Y-108708500D01*
X126310521Y-108708500D01*
X126489480Y-108708500D01*
X126489481Y-108708499D01*
X126665000Y-108673587D01*
X126830336Y-108605102D01*
X126881108Y-108571176D01*
X126947785Y-108550298D01*
X127015165Y-108568782D01*
X127018892Y-108571177D01*
X127069656Y-108605097D01*
X127069658Y-108605098D01*
X127069664Y-108605102D01*
X127235000Y-108673587D01*
X127410516Y-108708499D01*
X127410520Y-108708500D01*
X127410521Y-108708500D01*
X127589480Y-108708500D01*
X127589481Y-108708499D01*
X127765000Y-108673587D01*
X127930336Y-108605102D01*
X127981108Y-108571176D01*
X128047785Y-108550298D01*
X128115165Y-108568782D01*
X128118892Y-108571177D01*
X128169656Y-108605097D01*
X128169658Y-108605098D01*
X128169664Y-108605102D01*
X128335000Y-108673587D01*
X128510516Y-108708499D01*
X128510520Y-108708500D01*
X128510521Y-108708500D01*
X128689480Y-108708500D01*
X128689481Y-108708499D01*
X128865000Y-108673587D01*
X129030336Y-108605102D01*
X129179135Y-108505678D01*
X129305678Y-108379135D01*
X129405102Y-108230336D01*
X129473587Y-108065000D01*
X129508500Y-107889479D01*
X129508500Y-107710521D01*
X129502257Y-107679134D01*
X129482264Y-107578620D01*
X129478663Y-107560516D01*
X139091500Y-107560516D01*
X139091500Y-107739483D01*
X139126411Y-107914992D01*
X139126413Y-107915000D01*
X139194896Y-108080332D01*
X139194901Y-108080342D01*
X139294321Y-108229134D01*
X139294324Y-108229138D01*
X139420861Y-108355675D01*
X139420865Y-108355678D01*
X139569657Y-108455098D01*
X139569661Y-108455100D01*
X139569664Y-108455102D01*
X139735000Y-108523587D01*
X139910516Y-108558499D01*
X139910520Y-108558500D01*
X139910521Y-108558500D01*
X140089480Y-108558500D01*
X140089481Y-108558499D01*
X140265000Y-108523587D01*
X140430336Y-108455102D01*
X140579135Y-108355678D01*
X140705678Y-108229135D01*
X140805102Y-108080336D01*
X140873587Y-107915000D01*
X140908500Y-107739479D01*
X140908500Y-107560521D01*
X140873587Y-107385000D01*
X140805102Y-107219664D01*
X140805100Y-107219661D01*
X140805098Y-107219657D01*
X140707319Y-107073320D01*
X140705679Y-107070866D01*
X140705675Y-107070861D01*
X140645330Y-107010516D01*
X142291500Y-107010516D01*
X142291500Y-107189483D01*
X142326411Y-107364992D01*
X142326413Y-107365000D01*
X142394896Y-107530332D01*
X142394901Y-107530342D01*
X142494321Y-107679134D01*
X142494324Y-107679138D01*
X142620861Y-107805675D01*
X142620865Y-107805678D01*
X142769657Y-107905098D01*
X142769661Y-107905100D01*
X142769664Y-107905102D01*
X142935000Y-107973587D01*
X143110516Y-108008499D01*
X143110520Y-108008500D01*
X143110521Y-108008500D01*
X143289480Y-108008500D01*
X143289481Y-108008499D01*
X143465000Y-107973587D01*
X143630336Y-107905102D01*
X143779135Y-107805678D01*
X143905678Y-107679135D01*
X144005102Y-107530336D01*
X144073587Y-107365000D01*
X144108500Y-107189479D01*
X144108500Y-107010521D01*
X144073587Y-106835000D01*
X144005102Y-106669664D01*
X144005100Y-106669661D01*
X144005098Y-106669657D01*
X143905678Y-106520865D01*
X143905675Y-106520861D01*
X143779138Y-106394324D01*
X143779134Y-106394321D01*
X143630342Y-106294901D01*
X143630332Y-106294896D01*
X143465000Y-106226413D01*
X143464992Y-106226411D01*
X143289483Y-106191500D01*
X143289479Y-106191500D01*
X143110521Y-106191500D01*
X143110516Y-106191500D01*
X142935007Y-106226411D01*
X142934999Y-106226413D01*
X142769667Y-106294896D01*
X142769657Y-106294901D01*
X142620865Y-106394321D01*
X142620861Y-106394324D01*
X142494324Y-106520861D01*
X142494321Y-106520865D01*
X142394901Y-106669657D01*
X142394896Y-106669667D01*
X142326413Y-106834999D01*
X142326411Y-106835007D01*
X142291500Y-107010516D01*
X140645330Y-107010516D01*
X140579138Y-106944324D01*
X140579134Y-106944321D01*
X140430342Y-106844901D01*
X140430332Y-106844896D01*
X140265000Y-106776413D01*
X140264992Y-106776411D01*
X140089483Y-106741500D01*
X140089479Y-106741500D01*
X139910521Y-106741500D01*
X139910516Y-106741500D01*
X139735007Y-106776411D01*
X139734999Y-106776413D01*
X139569667Y-106844896D01*
X139569657Y-106844901D01*
X139420865Y-106944321D01*
X139420861Y-106944324D01*
X139294324Y-107070861D01*
X139294321Y-107070865D01*
X139194901Y-107219657D01*
X139194896Y-107219667D01*
X139126413Y-107384999D01*
X139126411Y-107385007D01*
X139091500Y-107560516D01*
X129478663Y-107560516D01*
X129473588Y-107535007D01*
X129473587Y-107535000D01*
X129405102Y-107369664D01*
X129405100Y-107369661D01*
X129405098Y-107369657D01*
X129305678Y-107220865D01*
X129305675Y-107220861D01*
X129179138Y-107094324D01*
X129179134Y-107094321D01*
X129030342Y-106994901D01*
X129030332Y-106994896D01*
X128865000Y-106926413D01*
X128864992Y-106926411D01*
X128689483Y-106891500D01*
X128689479Y-106891500D01*
X128510521Y-106891500D01*
X128510516Y-106891500D01*
X128335007Y-106926411D01*
X128334999Y-106926413D01*
X128169662Y-106994898D01*
X128118889Y-107028823D01*
X128052211Y-107049700D01*
X127984831Y-107031214D01*
X127981111Y-107028823D01*
X127930337Y-106994898D01*
X127765000Y-106926413D01*
X127764992Y-106926411D01*
X127589483Y-106891500D01*
X127589479Y-106891500D01*
X127410521Y-106891500D01*
X127410516Y-106891500D01*
X127235007Y-106926411D01*
X127234999Y-106926413D01*
X127069662Y-106994898D01*
X127018889Y-107028823D01*
X126952211Y-107049700D01*
X126884831Y-107031214D01*
X126881111Y-107028823D01*
X126830337Y-106994898D01*
X126665000Y-106926413D01*
X126664992Y-106926411D01*
X126489483Y-106891500D01*
X126489479Y-106891500D01*
X126310521Y-106891500D01*
X126310516Y-106891500D01*
X126135007Y-106926411D01*
X126134999Y-106926413D01*
X125969667Y-106994896D01*
X125969657Y-106994901D01*
X125820865Y-107094321D01*
X125820861Y-107094324D01*
X125694324Y-107220861D01*
X125694321Y-107220865D01*
X125594901Y-107369657D01*
X125594896Y-107369667D01*
X125526413Y-107534999D01*
X125526411Y-107535007D01*
X125491500Y-107710516D01*
X104508499Y-107710516D01*
X104473587Y-107535000D01*
X104405102Y-107369664D01*
X104405100Y-107369661D01*
X104405098Y-107369657D01*
X104305678Y-107220865D01*
X104305675Y-107220861D01*
X104179138Y-107094324D01*
X104179134Y-107094321D01*
X104030342Y-106994901D01*
X104030332Y-106994896D01*
X103865000Y-106926413D01*
X103864992Y-106926411D01*
X103689483Y-106891500D01*
X103689479Y-106891500D01*
X103510521Y-106891500D01*
X103510516Y-106891500D01*
X103335007Y-106926411D01*
X103334999Y-106926413D01*
X103169667Y-106994896D01*
X103169657Y-106994901D01*
X103020865Y-107094321D01*
X103020861Y-107094324D01*
X102894324Y-107220861D01*
X102894321Y-107220865D01*
X102794901Y-107369657D01*
X102794896Y-107369667D01*
X102726413Y-107534999D01*
X102726411Y-107535007D01*
X102691500Y-107710516D01*
X90400500Y-107710516D01*
X90400500Y-105910516D01*
X101341500Y-105910516D01*
X101341500Y-106089483D01*
X101376411Y-106264992D01*
X101376413Y-106265000D01*
X101444896Y-106430332D01*
X101444901Y-106430342D01*
X101544321Y-106579134D01*
X101544324Y-106579138D01*
X101670861Y-106705675D01*
X101670865Y-106705678D01*
X101819657Y-106805098D01*
X101819661Y-106805100D01*
X101819664Y-106805102D01*
X101985000Y-106873587D01*
X102075056Y-106891500D01*
X102160516Y-106908499D01*
X102160520Y-106908500D01*
X102160521Y-106908500D01*
X102339480Y-106908500D01*
X102339481Y-106908499D01*
X102515000Y-106873587D01*
X102680336Y-106805102D01*
X102829135Y-106705678D01*
X102955678Y-106579135D01*
X103055102Y-106430336D01*
X103123587Y-106265000D01*
X103158500Y-106089479D01*
X103158500Y-105910521D01*
X103123587Y-105735000D01*
X103055102Y-105569664D01*
X103055100Y-105569661D01*
X103055098Y-105569657D01*
X102955678Y-105420865D01*
X102955675Y-105420861D01*
X102829138Y-105294324D01*
X102829134Y-105294321D01*
X102680342Y-105194901D01*
X102680332Y-105194896D01*
X102515000Y-105126413D01*
X102514992Y-105126411D01*
X102339483Y-105091500D01*
X102339479Y-105091500D01*
X102160521Y-105091500D01*
X102160516Y-105091500D01*
X101985007Y-105126411D01*
X101984999Y-105126413D01*
X101819667Y-105194896D01*
X101819657Y-105194901D01*
X101670865Y-105294321D01*
X101670861Y-105294324D01*
X101544324Y-105420861D01*
X101544321Y-105420865D01*
X101444901Y-105569657D01*
X101444896Y-105569667D01*
X101376413Y-105734999D01*
X101376411Y-105735007D01*
X101341500Y-105910516D01*
X90400500Y-105910516D01*
X90400500Y-101490516D01*
X97091500Y-101490516D01*
X97091500Y-101669483D01*
X97126411Y-101844992D01*
X97126413Y-101845000D01*
X97194896Y-102010332D01*
X97194901Y-102010342D01*
X97294321Y-102159134D01*
X97294324Y-102159138D01*
X97420861Y-102285675D01*
X97420865Y-102285678D01*
X97569657Y-102385098D01*
X97569661Y-102385100D01*
X97569664Y-102385102D01*
X97735000Y-102453587D01*
X97910516Y-102488499D01*
X97910520Y-102488500D01*
X97910521Y-102488500D01*
X98089480Y-102488500D01*
X98089481Y-102488499D01*
X98265000Y-102453587D01*
X98430336Y-102385102D01*
X98579135Y-102285678D01*
X98648599Y-102216213D01*
X98709920Y-102182730D01*
X98779612Y-102187714D01*
X98835546Y-102229585D01*
X98859963Y-102295049D01*
X98857897Y-102328086D01*
X98841500Y-102410522D01*
X98841500Y-102589483D01*
X98876411Y-102764992D01*
X98876413Y-102765000D01*
X98944896Y-102930332D01*
X98944901Y-102930342D01*
X99044321Y-103079134D01*
X99044324Y-103079138D01*
X99170861Y-103205675D01*
X99170865Y-103205678D01*
X99319657Y-103305098D01*
X99319661Y-103305100D01*
X99319664Y-103305102D01*
X99485000Y-103373587D01*
X99660516Y-103408499D01*
X99660520Y-103408500D01*
X99660521Y-103408500D01*
X99839480Y-103408500D01*
X99839481Y-103408499D01*
X100015000Y-103373587D01*
X100180336Y-103305102D01*
X100329135Y-103205678D01*
X100455678Y-103079135D01*
X100555102Y-102930336D01*
X100623587Y-102765000D01*
X100658500Y-102589479D01*
X100658500Y-102410521D01*
X100623587Y-102235000D01*
X100555102Y-102069664D01*
X100555100Y-102069661D01*
X100555098Y-102069657D01*
X100455678Y-101920865D01*
X100455675Y-101920861D01*
X100329135Y-101794321D01*
X100189731Y-101701175D01*
X100189682Y-101701143D01*
X100180336Y-101694898D01*
X100180332Y-101694896D01*
X100015000Y-101626413D01*
X100014992Y-101626411D01*
X99888977Y-101601345D01*
X111141500Y-101601345D01*
X111141500Y-103398654D01*
X111148011Y-103459202D01*
X111148011Y-103459204D01*
X111199111Y-103596204D01*
X111286739Y-103713261D01*
X111403796Y-103800889D01*
X111540799Y-103851989D01*
X111568050Y-103854918D01*
X111601345Y-103858499D01*
X111601362Y-103858500D01*
X113398638Y-103858500D01*
X113398654Y-103858499D01*
X113425692Y-103855591D01*
X113459201Y-103851989D01*
X113596204Y-103800889D01*
X113713261Y-103713261D01*
X113800889Y-103596204D01*
X113851989Y-103459201D01*
X113857440Y-103408499D01*
X113858499Y-103398654D01*
X113858500Y-103398637D01*
X113858500Y-101601362D01*
X113858499Y-101601345D01*
X113855157Y-101570270D01*
X113851989Y-101540799D01*
X113800889Y-101403796D01*
X113713261Y-101286739D01*
X113596204Y-101199111D01*
X113459203Y-101148011D01*
X113398654Y-101141500D01*
X113398638Y-101141500D01*
X111601362Y-101141500D01*
X111601345Y-101141500D01*
X111540797Y-101148011D01*
X111540795Y-101148011D01*
X111403795Y-101199111D01*
X111286739Y-101286739D01*
X111199111Y-101403795D01*
X111148011Y-101540795D01*
X111148011Y-101540797D01*
X111141500Y-101601345D01*
X99888977Y-101601345D01*
X99839483Y-101591500D01*
X99839479Y-101591500D01*
X99660521Y-101591500D01*
X99660516Y-101591500D01*
X99485007Y-101626411D01*
X99484999Y-101626413D01*
X99319667Y-101694896D01*
X99319657Y-101694901D01*
X99170865Y-101794321D01*
X99101401Y-101863785D01*
X99040077Y-101897269D01*
X98970386Y-101892284D01*
X98914452Y-101850413D01*
X98890036Y-101784948D01*
X98892103Y-101751911D01*
X98902195Y-101701175D01*
X98908500Y-101669479D01*
X98908500Y-101490521D01*
X98873587Y-101315000D01*
X98805102Y-101149664D01*
X98805100Y-101149661D01*
X98805098Y-101149657D01*
X98705678Y-101000865D01*
X98705675Y-101000861D01*
X98579138Y-100874324D01*
X98579134Y-100874321D01*
X98430342Y-100774901D01*
X98430332Y-100774896D01*
X98265000Y-100706413D01*
X98264992Y-100706411D01*
X98089483Y-100671500D01*
X98089479Y-100671500D01*
X97910521Y-100671500D01*
X97910516Y-100671500D01*
X97735007Y-100706411D01*
X97734999Y-100706413D01*
X97569667Y-100774896D01*
X97569657Y-100774901D01*
X97420865Y-100874321D01*
X97420861Y-100874324D01*
X97294324Y-101000861D01*
X97294321Y-101000865D01*
X97194901Y-101149657D01*
X97194896Y-101149667D01*
X97126413Y-101314999D01*
X97126411Y-101315007D01*
X97091500Y-101490516D01*
X90400500Y-101490516D01*
X90400500Y-99910516D01*
X102591500Y-99910516D01*
X102591500Y-100089483D01*
X102626411Y-100264992D01*
X102626413Y-100265000D01*
X102694896Y-100430332D01*
X102694901Y-100430342D01*
X102794321Y-100579134D01*
X102794324Y-100579138D01*
X102920861Y-100705675D01*
X102920865Y-100705678D01*
X103069657Y-100805098D01*
X103069661Y-100805100D01*
X103069664Y-100805102D01*
X103235000Y-100873587D01*
X103410516Y-100908499D01*
X103410520Y-100908500D01*
X103410521Y-100908500D01*
X103589480Y-100908500D01*
X103589481Y-100908499D01*
X103765000Y-100873587D01*
X103930336Y-100805102D01*
X104009577Y-100752155D01*
X122000000Y-100752155D01*
X122000000Y-101400000D01*
X122916988Y-101400000D01*
X122884075Y-101457007D01*
X122850000Y-101584174D01*
X122850000Y-101715826D01*
X122884075Y-101842993D01*
X122916988Y-101900000D01*
X122000000Y-101900000D01*
X122000000Y-102547844D01*
X122006401Y-102607372D01*
X122006403Y-102607379D01*
X122056645Y-102742086D01*
X122056649Y-102742093D01*
X122142809Y-102857187D01*
X122142812Y-102857190D01*
X122257906Y-102943350D01*
X122257913Y-102943354D01*
X122392620Y-102993596D01*
X122392627Y-102993598D01*
X122452155Y-102999999D01*
X122452172Y-103000000D01*
X123100000Y-103000000D01*
X123100000Y-102083012D01*
X123157007Y-102115925D01*
X123284174Y-102150000D01*
X123415826Y-102150000D01*
X123542993Y-102115925D01*
X123600000Y-102083012D01*
X123600000Y-103000000D01*
X124247828Y-103000000D01*
X124247844Y-102999999D01*
X124307372Y-102993598D01*
X124307379Y-102993596D01*
X124442086Y-102943354D01*
X124442093Y-102943350D01*
X124557187Y-102857190D01*
X124557190Y-102857187D01*
X124643350Y-102742093D01*
X124643354Y-102742086D01*
X124693596Y-102607379D01*
X124693598Y-102607372D01*
X124694246Y-102601345D01*
X133891500Y-102601345D01*
X133891500Y-104398654D01*
X133898011Y-104459202D01*
X133898011Y-104459204D01*
X133949111Y-104596204D01*
X134036739Y-104713261D01*
X134153796Y-104800889D01*
X134290799Y-104851989D01*
X134318050Y-104854918D01*
X134351345Y-104858499D01*
X134351362Y-104858500D01*
X136148638Y-104858500D01*
X136148654Y-104858499D01*
X136175692Y-104855591D01*
X136209201Y-104851989D01*
X136346204Y-104800889D01*
X136463261Y-104713261D01*
X136550889Y-104596204D01*
X136601989Y-104459201D01*
X136605591Y-104425692D01*
X136608499Y-104398654D01*
X136608500Y-104398637D01*
X136608500Y-102639984D01*
X149321500Y-102639984D01*
X149321500Y-102860015D01*
X149332471Y-102943354D01*
X149350219Y-103078162D01*
X149350480Y-103079135D01*
X149407167Y-103290694D01*
X149491366Y-103493968D01*
X149491370Y-103493978D01*
X149601379Y-103684521D01*
X149601383Y-103684526D01*
X149729882Y-103851989D01*
X149735333Y-103859092D01*
X149890907Y-104014666D01*
X149890911Y-104014669D01*
X149890913Y-104014671D01*
X150065474Y-104148617D01*
X150065478Y-104148620D01*
X150256021Y-104258629D01*
X150256022Y-104258629D01*
X150256025Y-104258631D01*
X150459306Y-104342833D01*
X150671838Y-104399781D01*
X150835448Y-104421320D01*
X150889984Y-104428500D01*
X150889985Y-104428500D01*
X151110016Y-104428500D01*
X151153644Y-104422756D01*
X151328162Y-104399781D01*
X151540694Y-104342833D01*
X151743975Y-104258631D01*
X151934526Y-104148617D01*
X152109087Y-104014671D01*
X152264671Y-103859087D01*
X152398617Y-103684526D01*
X152508631Y-103493975D01*
X152592833Y-103290694D01*
X152649781Y-103078162D01*
X152678500Y-102860015D01*
X152678500Y-102639985D01*
X152678500Y-102639984D01*
X154321500Y-102639984D01*
X154321500Y-102860015D01*
X154332471Y-102943354D01*
X154350219Y-103078162D01*
X154350480Y-103079135D01*
X154407167Y-103290694D01*
X154491366Y-103493968D01*
X154491370Y-103493978D01*
X154601379Y-103684521D01*
X154601383Y-103684526D01*
X154729882Y-103851989D01*
X154735333Y-103859092D01*
X154890907Y-104014666D01*
X154890911Y-104014669D01*
X154890913Y-104014671D01*
X155065474Y-104148617D01*
X155065478Y-104148620D01*
X155256021Y-104258629D01*
X155256022Y-104258629D01*
X155256025Y-104258631D01*
X155459306Y-104342833D01*
X155671838Y-104399781D01*
X155835448Y-104421320D01*
X155889984Y-104428500D01*
X155889985Y-104428500D01*
X156110016Y-104428500D01*
X156153644Y-104422756D01*
X156328162Y-104399781D01*
X156540694Y-104342833D01*
X156743975Y-104258631D01*
X156934526Y-104148617D01*
X157109087Y-104014671D01*
X157264671Y-103859087D01*
X157398617Y-103684526D01*
X157508631Y-103493975D01*
X157592833Y-103290694D01*
X157649781Y-103078162D01*
X157678500Y-102860015D01*
X157678500Y-102639985D01*
X157649781Y-102421838D01*
X157592833Y-102209306D01*
X157508631Y-102006025D01*
X157480331Y-101957007D01*
X157398620Y-101815478D01*
X157310887Y-101701143D01*
X157264671Y-101640913D01*
X157264669Y-101640911D01*
X157264666Y-101640907D01*
X157109092Y-101485333D01*
X156934521Y-101351379D01*
X156743978Y-101241370D01*
X156743968Y-101241366D01*
X156540694Y-101157167D01*
X156512704Y-101149667D01*
X156328162Y-101100219D01*
X156328161Y-101100218D01*
X156328158Y-101100218D01*
X156110016Y-101071500D01*
X156110015Y-101071500D01*
X155889985Y-101071500D01*
X155889984Y-101071500D01*
X155671841Y-101100218D01*
X155459305Y-101157167D01*
X155256031Y-101241366D01*
X155256021Y-101241370D01*
X155065478Y-101351379D01*
X154890907Y-101485333D01*
X154735333Y-101640907D01*
X154601379Y-101815478D01*
X154491370Y-102006021D01*
X154491366Y-102006031D01*
X154407167Y-102209305D01*
X154350218Y-102421841D01*
X154321500Y-102639984D01*
X152678500Y-102639984D01*
X152649781Y-102421838D01*
X152592833Y-102209306D01*
X152508631Y-102006025D01*
X152480331Y-101957007D01*
X152398620Y-101815478D01*
X152310887Y-101701143D01*
X152264671Y-101640913D01*
X152264669Y-101640911D01*
X152264666Y-101640907D01*
X152109092Y-101485333D01*
X151934521Y-101351379D01*
X151743978Y-101241370D01*
X151743968Y-101241366D01*
X151540694Y-101157167D01*
X151512704Y-101149667D01*
X151328162Y-101100219D01*
X151328161Y-101100218D01*
X151328158Y-101100218D01*
X151110016Y-101071500D01*
X151110015Y-101071500D01*
X150889985Y-101071500D01*
X150889984Y-101071500D01*
X150671841Y-101100218D01*
X150459305Y-101157167D01*
X150256031Y-101241366D01*
X150256021Y-101241370D01*
X150065478Y-101351379D01*
X149890907Y-101485333D01*
X149735333Y-101640907D01*
X149601379Y-101815478D01*
X149491370Y-102006021D01*
X149491366Y-102006031D01*
X149407167Y-102209305D01*
X149350218Y-102421841D01*
X149321500Y-102639984D01*
X136608500Y-102639984D01*
X136608500Y-102601362D01*
X136608499Y-102601345D01*
X136602746Y-102547844D01*
X136601989Y-102540799D01*
X136550889Y-102403796D01*
X136463261Y-102286739D01*
X136346204Y-102199111D01*
X136315648Y-102187714D01*
X136209203Y-102148011D01*
X136148654Y-102141500D01*
X136148638Y-102141500D01*
X134351362Y-102141500D01*
X134351345Y-102141500D01*
X134290797Y-102148011D01*
X134290795Y-102148011D01*
X134153795Y-102199111D01*
X134036739Y-102286739D01*
X133949111Y-102403795D01*
X133898011Y-102540795D01*
X133898011Y-102540797D01*
X133891500Y-102601345D01*
X124694246Y-102601345D01*
X124696027Y-102584785D01*
X124696027Y-102584784D01*
X124699999Y-102547841D01*
X124700000Y-102547827D01*
X124700000Y-101900000D01*
X123783012Y-101900000D01*
X123815925Y-101842993D01*
X123850000Y-101715826D01*
X123850000Y-101584174D01*
X123815925Y-101457007D01*
X123783012Y-101400000D01*
X124700000Y-101400000D01*
X124700000Y-100752172D01*
X124699999Y-100752155D01*
X124693598Y-100692627D01*
X124693596Y-100692620D01*
X124641957Y-100554167D01*
X124636973Y-100484475D01*
X124670458Y-100423152D01*
X124731781Y-100389668D01*
X124782328Y-100389217D01*
X124879269Y-100408499D01*
X124879270Y-100408500D01*
X124879271Y-100408500D01*
X125058230Y-100408500D01*
X125058231Y-100408499D01*
X125233750Y-100373587D01*
X125399086Y-100305102D01*
X125547885Y-100205678D01*
X125674428Y-100079135D01*
X125773852Y-99930336D01*
X125842337Y-99765000D01*
X125877250Y-99589479D01*
X125877250Y-99410521D01*
X125877249Y-99410516D01*
X141791500Y-99410516D01*
X141791500Y-99589483D01*
X141826411Y-99764992D01*
X141826413Y-99765000D01*
X141894896Y-99930332D01*
X141894901Y-99930342D01*
X141994321Y-100079134D01*
X141994324Y-100079138D01*
X142120861Y-100205675D01*
X142120865Y-100205678D01*
X142269657Y-100305098D01*
X142269661Y-100305100D01*
X142269664Y-100305102D01*
X142435000Y-100373587D01*
X142610516Y-100408499D01*
X142610520Y-100408500D01*
X142610521Y-100408500D01*
X142789480Y-100408500D01*
X142789481Y-100408499D01*
X142965000Y-100373587D01*
X143130336Y-100305102D01*
X143279135Y-100205678D01*
X143405678Y-100079135D01*
X143505102Y-99930336D01*
X143573587Y-99765000D01*
X143608500Y-99589479D01*
X143608500Y-99410521D01*
X143573587Y-99235000D01*
X143505102Y-99069664D01*
X143505100Y-99069661D01*
X143505098Y-99069657D01*
X143405678Y-98920865D01*
X143405675Y-98920861D01*
X143279138Y-98794324D01*
X143279134Y-98794321D01*
X143130342Y-98694901D01*
X143130332Y-98694896D01*
X142965000Y-98626413D01*
X142964992Y-98626411D01*
X142789483Y-98591500D01*
X142789479Y-98591500D01*
X142610521Y-98591500D01*
X142610516Y-98591500D01*
X142435007Y-98626411D01*
X142434999Y-98626413D01*
X142269667Y-98694896D01*
X142269657Y-98694901D01*
X142120865Y-98794321D01*
X142120861Y-98794324D01*
X141994324Y-98920861D01*
X141994321Y-98920865D01*
X141894901Y-99069657D01*
X141894896Y-99069667D01*
X141826413Y-99234999D01*
X141826411Y-99235007D01*
X141791500Y-99410516D01*
X125877249Y-99410516D01*
X125842337Y-99235000D01*
X125773852Y-99069664D01*
X125773850Y-99069661D01*
X125773848Y-99069657D01*
X125674428Y-98920865D01*
X125674425Y-98920861D01*
X125547888Y-98794324D01*
X125547884Y-98794321D01*
X125399092Y-98694901D01*
X125399082Y-98694896D01*
X125233750Y-98626413D01*
X125233742Y-98626411D01*
X125058233Y-98591500D01*
X125058229Y-98591500D01*
X124879271Y-98591500D01*
X124879266Y-98591500D01*
X124703757Y-98626411D01*
X124703749Y-98626413D01*
X124538417Y-98694896D01*
X124538407Y-98694901D01*
X124389615Y-98794321D01*
X124389611Y-98794324D01*
X124263074Y-98920861D01*
X124263071Y-98920865D01*
X124163651Y-99069657D01*
X124163646Y-99069667D01*
X124095163Y-99234999D01*
X124095161Y-99235007D01*
X124060250Y-99410516D01*
X124060250Y-99589483D01*
X124095161Y-99764992D01*
X124095163Y-99765000D01*
X124163646Y-99930332D01*
X124163651Y-99930342D01*
X124263071Y-100079134D01*
X124263074Y-100079138D01*
X124272255Y-100088319D01*
X124305740Y-100149642D01*
X124300756Y-100219334D01*
X124258884Y-100275267D01*
X124193420Y-100299684D01*
X124184574Y-100300000D01*
X123600000Y-100300000D01*
X123600000Y-101216988D01*
X123542993Y-101184075D01*
X123415826Y-101150000D01*
X123284174Y-101150000D01*
X123157007Y-101184075D01*
X123100000Y-101216988D01*
X123100000Y-100300000D01*
X122452155Y-100300000D01*
X122392627Y-100306401D01*
X122392620Y-100306403D01*
X122257913Y-100356645D01*
X122257906Y-100356649D01*
X122142812Y-100442809D01*
X122142809Y-100442812D01*
X122056649Y-100557906D01*
X122056645Y-100557913D01*
X122006403Y-100692620D01*
X122006401Y-100692627D01*
X122000000Y-100752155D01*
X104009577Y-100752155D01*
X104079135Y-100705678D01*
X104092193Y-100692620D01*
X104123644Y-100661170D01*
X104205675Y-100579138D01*
X104205678Y-100579135D01*
X104305102Y-100430336D01*
X104373587Y-100265000D01*
X104408500Y-100089479D01*
X104408500Y-99910521D01*
X104373587Y-99735000D01*
X104305102Y-99569664D01*
X104305100Y-99569661D01*
X104305098Y-99569657D01*
X104205678Y-99420865D01*
X104205675Y-99420861D01*
X104079138Y-99294324D01*
X104079134Y-99294321D01*
X103930342Y-99194901D01*
X103930332Y-99194896D01*
X103765000Y-99126413D01*
X103764992Y-99126411D01*
X103589483Y-99091500D01*
X103589479Y-99091500D01*
X103410521Y-99091500D01*
X103410516Y-99091500D01*
X103235007Y-99126411D01*
X103234999Y-99126413D01*
X103069667Y-99194896D01*
X103069657Y-99194901D01*
X102920865Y-99294321D01*
X102920861Y-99294324D01*
X102794324Y-99420861D01*
X102794321Y-99420865D01*
X102694901Y-99569657D01*
X102694896Y-99569667D01*
X102626413Y-99734999D01*
X102626411Y-99735007D01*
X102591500Y-99910516D01*
X90400500Y-99910516D01*
X90400500Y-97660516D01*
X130310250Y-97660516D01*
X130310250Y-97839483D01*
X130345161Y-98014992D01*
X130345163Y-98015000D01*
X130413646Y-98180332D01*
X130413651Y-98180342D01*
X130513071Y-98329134D01*
X130513074Y-98329138D01*
X130639611Y-98455675D01*
X130639615Y-98455678D01*
X130788407Y-98555098D01*
X130788411Y-98555100D01*
X130788414Y-98555102D01*
X130953750Y-98623587D01*
X131129266Y-98658499D01*
X131129270Y-98658500D01*
X131129271Y-98658500D01*
X131308230Y-98658500D01*
X131308231Y-98658499D01*
X131483750Y-98623587D01*
X131649086Y-98555102D01*
X131797885Y-98455678D01*
X131924428Y-98329135D01*
X132023852Y-98180336D01*
X132092337Y-98015000D01*
X132127250Y-97839479D01*
X132127250Y-97660521D01*
X132092337Y-97485000D01*
X132023852Y-97319664D01*
X132023850Y-97319661D01*
X132023848Y-97319657D01*
X131924426Y-97170862D01*
X131854909Y-97101345D01*
X133641500Y-97101345D01*
X133641500Y-98898654D01*
X133648011Y-98959202D01*
X133648011Y-98959204D01*
X133689209Y-99069657D01*
X133699111Y-99096204D01*
X133786739Y-99213261D01*
X133903796Y-99300889D01*
X134040799Y-99351989D01*
X134068050Y-99354918D01*
X134101345Y-99358499D01*
X134101362Y-99358500D01*
X135898638Y-99358500D01*
X135898654Y-99358499D01*
X135925692Y-99355591D01*
X135959201Y-99351989D01*
X136096204Y-99300889D01*
X136213261Y-99213261D01*
X136300889Y-99096204D01*
X136351989Y-98959201D01*
X136355591Y-98925692D01*
X136358499Y-98898654D01*
X136358500Y-98898637D01*
X136358500Y-97101362D01*
X136358499Y-97101345D01*
X136355157Y-97070270D01*
X136351989Y-97040799D01*
X136300889Y-96903796D01*
X136213261Y-96786739D01*
X136096204Y-96699111D01*
X135959203Y-96648011D01*
X135898654Y-96641500D01*
X135898638Y-96641500D01*
X134101362Y-96641500D01*
X134101345Y-96641500D01*
X134040797Y-96648011D01*
X134040795Y-96648011D01*
X133903795Y-96699111D01*
X133786739Y-96786739D01*
X133699111Y-96903795D01*
X133648011Y-97040795D01*
X133648011Y-97040797D01*
X133641500Y-97101345D01*
X131854909Y-97101345D01*
X131797888Y-97044324D01*
X131797884Y-97044321D01*
X131649092Y-96944901D01*
X131649082Y-96944896D01*
X131483750Y-96876413D01*
X131483742Y-96876411D01*
X131308233Y-96841500D01*
X131308229Y-96841500D01*
X131129271Y-96841500D01*
X131129266Y-96841500D01*
X130953757Y-96876411D01*
X130953749Y-96876413D01*
X130788417Y-96944896D01*
X130788407Y-96944901D01*
X130639615Y-97044321D01*
X130639611Y-97044324D01*
X130513074Y-97170861D01*
X130513071Y-97170865D01*
X130413651Y-97319657D01*
X130413646Y-97319667D01*
X130345163Y-97484999D01*
X130345161Y-97485007D01*
X130310250Y-97660516D01*
X90400500Y-97660516D01*
X90400500Y-95548016D01*
X120310250Y-95548016D01*
X120310250Y-95726983D01*
X120345161Y-95902492D01*
X120345163Y-95902500D01*
X120413646Y-96067832D01*
X120413651Y-96067842D01*
X120513071Y-96216634D01*
X120513074Y-96216638D01*
X120639611Y-96343175D01*
X120639615Y-96343178D01*
X120788407Y-96442598D01*
X120788411Y-96442600D01*
X120788414Y-96442602D01*
X120953750Y-96511087D01*
X121120830Y-96544321D01*
X121129266Y-96545999D01*
X121129270Y-96546000D01*
X121129271Y-96546000D01*
X121308230Y-96546000D01*
X121308231Y-96545999D01*
X121483750Y-96511087D01*
X121649086Y-96442602D01*
X121797885Y-96343178D01*
X121924428Y-96216635D01*
X122023852Y-96067836D01*
X122092337Y-95902500D01*
X122127250Y-95726979D01*
X122127250Y-95548021D01*
X122092337Y-95372500D01*
X122023852Y-95207164D01*
X122023848Y-95207157D01*
X121992683Y-95160516D01*
X125310250Y-95160516D01*
X125310250Y-95339483D01*
X125345161Y-95514992D01*
X125345163Y-95515000D01*
X125413646Y-95680332D01*
X125413651Y-95680342D01*
X125513071Y-95829134D01*
X125513074Y-95829138D01*
X125639611Y-95955675D01*
X125639615Y-95955678D01*
X125788407Y-96055098D01*
X125788411Y-96055100D01*
X125788414Y-96055102D01*
X125953750Y-96123587D01*
X126129266Y-96158499D01*
X126129270Y-96158500D01*
X126129271Y-96158500D01*
X126308230Y-96158500D01*
X126308231Y-96158499D01*
X126483750Y-96123587D01*
X126649086Y-96055102D01*
X126797885Y-95955678D01*
X126924428Y-95829135D01*
X127023852Y-95680336D01*
X127092337Y-95515000D01*
X127127250Y-95339479D01*
X127127250Y-95160521D01*
X127106930Y-95058365D01*
X127101014Y-95028620D01*
X127097412Y-95010516D01*
X134191500Y-95010516D01*
X134191500Y-95189483D01*
X134226411Y-95364992D01*
X134226413Y-95365000D01*
X134294896Y-95530332D01*
X134294901Y-95530342D01*
X134394321Y-95679134D01*
X134394324Y-95679138D01*
X134520861Y-95805675D01*
X134520865Y-95805678D01*
X134669657Y-95905098D01*
X134669661Y-95905100D01*
X134669664Y-95905102D01*
X134835000Y-95973587D01*
X135010516Y-96008499D01*
X135010520Y-96008500D01*
X135010521Y-96008500D01*
X135189480Y-96008500D01*
X135189481Y-96008499D01*
X135365000Y-95973587D01*
X135530336Y-95905102D01*
X135679135Y-95805678D01*
X135805678Y-95679135D01*
X135851528Y-95610516D01*
X143391500Y-95610516D01*
X143391500Y-95789483D01*
X143426411Y-95964992D01*
X143426413Y-95965000D01*
X143494896Y-96130332D01*
X143494901Y-96130342D01*
X143594321Y-96279134D01*
X143594324Y-96279138D01*
X143720861Y-96405675D01*
X143720865Y-96405678D01*
X143869657Y-96505098D01*
X143869661Y-96505100D01*
X143869664Y-96505102D01*
X144035000Y-96573587D01*
X144210516Y-96608499D01*
X144210520Y-96608500D01*
X144210521Y-96608500D01*
X144389480Y-96608500D01*
X144389481Y-96608499D01*
X144565000Y-96573587D01*
X144730336Y-96505102D01*
X144879135Y-96405678D01*
X145005678Y-96279135D01*
X145105102Y-96130336D01*
X145173587Y-95965000D01*
X145180068Y-95932413D01*
X145184424Y-95910516D01*
X147091500Y-95910516D01*
X147091500Y-96089483D01*
X147126411Y-96264992D01*
X147126413Y-96265000D01*
X147194896Y-96430332D01*
X147194901Y-96430342D01*
X147294321Y-96579134D01*
X147294324Y-96579138D01*
X147420861Y-96705675D01*
X147420869Y-96705681D01*
X147569662Y-96805101D01*
X147575038Y-96807975D01*
X147574122Y-96809688D01*
X147621533Y-96847877D01*
X147643612Y-96914166D01*
X147634254Y-96966070D01*
X147626413Y-96985000D01*
X147626411Y-96985007D01*
X147591500Y-97160516D01*
X147591500Y-97339483D01*
X147626411Y-97514992D01*
X147626413Y-97515000D01*
X147694896Y-97680332D01*
X147694901Y-97680342D01*
X147753637Y-97768246D01*
X147774515Y-97834924D01*
X147756030Y-97902304D01*
X147753638Y-97906027D01*
X147664569Y-98039328D01*
X147664565Y-98039336D01*
X147596082Y-98204668D01*
X147596080Y-98204676D01*
X147561169Y-98380185D01*
X147561169Y-98559152D01*
X147596080Y-98734661D01*
X147596082Y-98734669D01*
X147664565Y-98900001D01*
X147664570Y-98900011D01*
X147763990Y-99048803D01*
X147763993Y-99048807D01*
X147890530Y-99175344D01*
X147890534Y-99175347D01*
X148039326Y-99274767D01*
X148039330Y-99274769D01*
X148039333Y-99274771D01*
X148204669Y-99343256D01*
X148380185Y-99378168D01*
X148380189Y-99378169D01*
X148380190Y-99378169D01*
X148559149Y-99378169D01*
X148559150Y-99378168D01*
X148734669Y-99343256D01*
X148900005Y-99274771D01*
X149048804Y-99175347D01*
X149175347Y-99048804D01*
X149274771Y-98900005D01*
X149343256Y-98734669D01*
X149378169Y-98559148D01*
X149378169Y-98380190D01*
X149343256Y-98204669D01*
X149300457Y-98101345D01*
X154141500Y-98101345D01*
X154141500Y-99898654D01*
X154148011Y-99959202D01*
X154148011Y-99959204D01*
X154192746Y-100079138D01*
X154199111Y-100096204D01*
X154286739Y-100213261D01*
X154403796Y-100300889D01*
X154540799Y-100351989D01*
X154568050Y-100354918D01*
X154601345Y-100358499D01*
X154601362Y-100358500D01*
X156398638Y-100358500D01*
X156398654Y-100358499D01*
X156425692Y-100355591D01*
X156459201Y-100351989D01*
X156596204Y-100300889D01*
X156713261Y-100213261D01*
X156800889Y-100096204D01*
X156851989Y-99959201D01*
X156855591Y-99925692D01*
X156858499Y-99898654D01*
X156858500Y-99898637D01*
X156858500Y-98101362D01*
X156858499Y-98101345D01*
X156855157Y-98070270D01*
X156851989Y-98040799D01*
X156851443Y-98039336D01*
X156814609Y-97940581D01*
X156800889Y-97903796D01*
X156713261Y-97786739D01*
X156596204Y-97699111D01*
X156459203Y-97648011D01*
X156398654Y-97641500D01*
X156398638Y-97641500D01*
X154601362Y-97641500D01*
X154601345Y-97641500D01*
X154540797Y-97648011D01*
X154540795Y-97648011D01*
X154403795Y-97699111D01*
X154286739Y-97786739D01*
X154199111Y-97903795D01*
X154148011Y-98040795D01*
X154148011Y-98040797D01*
X154141500Y-98101345D01*
X149300457Y-98101345D01*
X149274771Y-98039333D01*
X149212518Y-97946164D01*
X149209560Y-97940581D01*
X149203778Y-97912292D01*
X149195153Y-97884745D01*
X149196869Y-97878486D01*
X149195570Y-97872126D01*
X149205999Y-97845206D01*
X149213637Y-97817364D01*
X149216031Y-97813640D01*
X149246363Y-97768246D01*
X149305102Y-97680336D01*
X149373587Y-97515000D01*
X149408500Y-97339479D01*
X149408500Y-97160521D01*
X149373587Y-96985000D01*
X149305102Y-96819664D01*
X149305100Y-96819661D01*
X149305098Y-96819657D01*
X149205678Y-96670865D01*
X149205675Y-96670861D01*
X149079138Y-96544324D01*
X149079134Y-96544321D01*
X148930342Y-96444901D01*
X148924966Y-96442028D01*
X148925879Y-96440318D01*
X148878455Y-96402106D01*
X148856386Y-96335813D01*
X148865747Y-96283925D01*
X148873587Y-96265000D01*
X148908500Y-96089479D01*
X148908500Y-95910521D01*
X148873587Y-95735000D01*
X148805102Y-95569664D01*
X148805100Y-95569661D01*
X148805098Y-95569657D01*
X148705678Y-95420865D01*
X148705675Y-95420861D01*
X148579138Y-95294324D01*
X148579134Y-95294321D01*
X148430342Y-95194901D01*
X148430332Y-95194896D01*
X148265000Y-95126413D01*
X148264992Y-95126411D01*
X148089483Y-95091500D01*
X148089479Y-95091500D01*
X147910521Y-95091500D01*
X147910516Y-95091500D01*
X147735007Y-95126411D01*
X147734999Y-95126413D01*
X147569667Y-95194896D01*
X147569657Y-95194901D01*
X147420865Y-95294321D01*
X147420861Y-95294324D01*
X147294324Y-95420861D01*
X147294321Y-95420865D01*
X147194901Y-95569657D01*
X147194896Y-95569667D01*
X147126413Y-95734999D01*
X147126411Y-95735007D01*
X147091500Y-95910516D01*
X145184424Y-95910516D01*
X145190443Y-95880260D01*
X145190447Y-95880239D01*
X145208500Y-95789477D01*
X145208500Y-95610520D01*
X145208499Y-95610516D01*
X145192552Y-95530345D01*
X145173587Y-95435000D01*
X145105102Y-95269664D01*
X145105100Y-95269661D01*
X145105098Y-95269657D01*
X145005678Y-95120865D01*
X145005675Y-95120861D01*
X144879138Y-94994324D01*
X144879134Y-94994321D01*
X144730342Y-94894901D01*
X144730332Y-94894896D01*
X144565000Y-94826413D01*
X144564992Y-94826411D01*
X144389483Y-94791500D01*
X144389479Y-94791500D01*
X144210521Y-94791500D01*
X144210516Y-94791500D01*
X144035007Y-94826411D01*
X144034999Y-94826413D01*
X143869667Y-94894896D01*
X143869657Y-94894901D01*
X143720865Y-94994321D01*
X143720861Y-94994324D01*
X143594324Y-95120861D01*
X143594321Y-95120865D01*
X143494901Y-95269657D01*
X143494896Y-95269667D01*
X143426413Y-95434999D01*
X143426411Y-95435007D01*
X143391500Y-95610516D01*
X135851528Y-95610516D01*
X135878829Y-95569657D01*
X135901627Y-95535538D01*
X135901627Y-95535537D01*
X135905096Y-95530345D01*
X135905098Y-95530342D01*
X135905102Y-95530336D01*
X135973587Y-95365000D01*
X136008500Y-95189479D01*
X136008500Y-95010521D01*
X135973587Y-94835000D01*
X135905102Y-94669664D01*
X135905100Y-94669661D01*
X135905098Y-94669657D01*
X135805678Y-94520865D01*
X135805675Y-94520861D01*
X135679138Y-94394324D01*
X135679134Y-94394321D01*
X135530342Y-94294901D01*
X135530332Y-94294896D01*
X135365000Y-94226413D01*
X135364992Y-94226411D01*
X135189483Y-94191500D01*
X135189479Y-94191500D01*
X135010521Y-94191500D01*
X135010516Y-94191500D01*
X134835007Y-94226411D01*
X134834999Y-94226413D01*
X134669667Y-94294896D01*
X134669657Y-94294901D01*
X134520865Y-94394321D01*
X134520861Y-94394324D01*
X134394324Y-94520861D01*
X134394321Y-94520865D01*
X134294901Y-94669657D01*
X134294896Y-94669667D01*
X134226413Y-94834999D01*
X134226411Y-94835007D01*
X134191500Y-95010516D01*
X127097412Y-95010516D01*
X127096083Y-95003835D01*
X127092337Y-94985000D01*
X127023852Y-94819664D01*
X127023850Y-94819661D01*
X127023848Y-94819657D01*
X126924428Y-94670865D01*
X126924425Y-94670861D01*
X126797888Y-94544324D01*
X126797884Y-94544321D01*
X126649092Y-94444901D01*
X126649082Y-94444896D01*
X126483750Y-94376413D01*
X126483742Y-94376411D01*
X126308233Y-94341500D01*
X126308229Y-94341500D01*
X126129271Y-94341500D01*
X126129266Y-94341500D01*
X125953757Y-94376411D01*
X125953749Y-94376413D01*
X125788417Y-94444896D01*
X125788407Y-94444901D01*
X125639615Y-94544321D01*
X125639611Y-94544324D01*
X125513074Y-94670861D01*
X125513071Y-94670865D01*
X125413651Y-94819657D01*
X125413646Y-94819667D01*
X125345163Y-94984999D01*
X125345161Y-94985007D01*
X125310250Y-95160516D01*
X121992683Y-95160516D01*
X121924428Y-95058365D01*
X121924425Y-95058361D01*
X121797888Y-94931824D01*
X121797884Y-94931821D01*
X121649092Y-94832401D01*
X121649082Y-94832396D01*
X121483750Y-94763913D01*
X121483742Y-94763911D01*
X121308233Y-94729000D01*
X121308229Y-94729000D01*
X121129271Y-94729000D01*
X121129266Y-94729000D01*
X120953757Y-94763911D01*
X120953749Y-94763913D01*
X120788417Y-94832396D01*
X120788407Y-94832401D01*
X120639615Y-94931821D01*
X120639611Y-94931824D01*
X120513074Y-95058361D01*
X120513071Y-95058365D01*
X120413651Y-95207157D01*
X120413646Y-95207167D01*
X120345163Y-95372499D01*
X120345161Y-95372507D01*
X120310250Y-95548016D01*
X90400500Y-95548016D01*
X90400500Y-93710516D01*
X140591500Y-93710516D01*
X140591500Y-93889483D01*
X140626411Y-94064992D01*
X140626413Y-94065000D01*
X140694896Y-94230332D01*
X140694901Y-94230342D01*
X140794321Y-94379134D01*
X140794324Y-94379138D01*
X140920861Y-94505675D01*
X140920865Y-94505678D01*
X141069657Y-94605098D01*
X141069661Y-94605100D01*
X141069664Y-94605102D01*
X141235000Y-94673587D01*
X141410516Y-94708499D01*
X141410520Y-94708500D01*
X141410521Y-94708500D01*
X141589480Y-94708500D01*
X141589481Y-94708499D01*
X141765000Y-94673587D01*
X141930336Y-94605102D01*
X142079135Y-94505678D01*
X142205678Y-94379135D01*
X142305102Y-94230336D01*
X142373587Y-94065000D01*
X142408500Y-93889479D01*
X142408500Y-93710521D01*
X142373587Y-93535000D01*
X142314765Y-93392993D01*
X142305105Y-93369670D01*
X142305098Y-93369657D01*
X142205678Y-93220865D01*
X142205675Y-93220861D01*
X142079138Y-93094324D01*
X142079134Y-93094321D01*
X141930342Y-92994901D01*
X141930332Y-92994896D01*
X141765000Y-92926413D01*
X141764992Y-92926411D01*
X141589483Y-92891500D01*
X141589479Y-92891500D01*
X141410521Y-92891500D01*
X141410516Y-92891500D01*
X141235007Y-92926411D01*
X141234999Y-92926413D01*
X141069667Y-92994896D01*
X141069657Y-92994901D01*
X140920865Y-93094321D01*
X140920861Y-93094324D01*
X140794324Y-93220861D01*
X140794321Y-93220865D01*
X140694901Y-93369657D01*
X140694896Y-93369667D01*
X140626413Y-93534999D01*
X140626411Y-93535007D01*
X140591500Y-93710516D01*
X90400500Y-93710516D01*
X90400500Y-91168084D01*
X138351500Y-91168084D01*
X138351500Y-91381915D01*
X138384951Y-91593117D01*
X138451026Y-91796480D01*
X138451027Y-91796483D01*
X138507158Y-91906645D01*
X138548106Y-91987009D01*
X138673794Y-92160004D01*
X138824996Y-92311206D01*
X138997991Y-92436894D01*
X139091438Y-92484507D01*
X139188516Y-92533972D01*
X139188519Y-92533973D01*
X139290200Y-92567010D01*
X139391884Y-92600049D01*
X139603084Y-92633500D01*
X139603085Y-92633500D01*
X139816915Y-92633500D01*
X139816916Y-92633500D01*
X140028116Y-92600049D01*
X140231483Y-92533972D01*
X140422009Y-92436894D01*
X140595004Y-92311206D01*
X140700184Y-92206025D01*
X140761503Y-92172543D01*
X140831195Y-92177527D01*
X140887129Y-92219398D01*
X140904043Y-92250375D01*
X140949110Y-92371203D01*
X140949111Y-92371204D01*
X141036739Y-92488261D01*
X141153796Y-92575889D01*
X141290799Y-92626989D01*
X141318050Y-92629918D01*
X141351345Y-92633499D01*
X141351362Y-92633500D01*
X143148638Y-92633500D01*
X143148654Y-92633499D01*
X143175692Y-92630591D01*
X143209201Y-92626989D01*
X143346204Y-92575889D01*
X143463261Y-92488261D01*
X143550889Y-92371204D01*
X143576643Y-92302155D01*
X154050000Y-92302155D01*
X154050000Y-92950000D01*
X154966988Y-92950000D01*
X154934075Y-93007007D01*
X154900000Y-93134174D01*
X154900000Y-93265826D01*
X154934075Y-93392993D01*
X154966988Y-93450000D01*
X154050000Y-93450000D01*
X154050000Y-94097844D01*
X154056401Y-94157372D01*
X154056403Y-94157379D01*
X154106645Y-94292086D01*
X154106649Y-94292093D01*
X154192809Y-94407187D01*
X154192812Y-94407190D01*
X154307906Y-94493350D01*
X154307913Y-94493354D01*
X154442620Y-94543596D01*
X154442627Y-94543598D01*
X154502155Y-94549999D01*
X154502172Y-94550000D01*
X155150000Y-94550000D01*
X155150000Y-93633012D01*
X155207007Y-93665925D01*
X155334174Y-93700000D01*
X155465826Y-93700000D01*
X155592993Y-93665925D01*
X155650000Y-93633012D01*
X155650000Y-94550000D01*
X156297828Y-94550000D01*
X156297844Y-94549999D01*
X156357372Y-94543598D01*
X156357379Y-94543596D01*
X156492086Y-94493354D01*
X156492093Y-94493350D01*
X156607187Y-94407190D01*
X156607190Y-94407187D01*
X156693350Y-94292093D01*
X156693354Y-94292086D01*
X156743596Y-94157379D01*
X156743598Y-94157372D01*
X156749999Y-94097844D01*
X156750000Y-94097827D01*
X156750000Y-93450000D01*
X155833012Y-93450000D01*
X155865925Y-93392993D01*
X155900000Y-93265826D01*
X155900000Y-93134174D01*
X155865925Y-93007007D01*
X155833012Y-92950000D01*
X156750000Y-92950000D01*
X156750000Y-92302172D01*
X156749999Y-92302155D01*
X156743598Y-92242627D01*
X156743596Y-92242620D01*
X156693354Y-92107913D01*
X156693350Y-92107906D01*
X156607190Y-91992812D01*
X156607187Y-91992809D01*
X156492093Y-91906649D01*
X156492086Y-91906645D01*
X156357379Y-91856403D01*
X156357372Y-91856401D01*
X156297844Y-91850000D01*
X155650000Y-91850000D01*
X155650000Y-92766988D01*
X155592993Y-92734075D01*
X155465826Y-92700000D01*
X155334174Y-92700000D01*
X155207007Y-92734075D01*
X155150000Y-92766988D01*
X155150000Y-91850000D01*
X154502155Y-91850000D01*
X154442627Y-91856401D01*
X154442620Y-91856403D01*
X154307913Y-91906645D01*
X154307906Y-91906649D01*
X154192812Y-91992809D01*
X154192809Y-91992812D01*
X154106649Y-92107906D01*
X154106645Y-92107913D01*
X154056403Y-92242620D01*
X154056401Y-92242627D01*
X154050000Y-92302155D01*
X143576643Y-92302155D01*
X143601989Y-92234201D01*
X143608499Y-92173654D01*
X143608500Y-92173637D01*
X143608500Y-90376362D01*
X143608499Y-90376345D01*
X143605018Y-90343971D01*
X143601989Y-90315799D01*
X143597999Y-90305102D01*
X143573267Y-90238794D01*
X143550889Y-90178796D01*
X143463261Y-90061739D01*
X143346204Y-89974111D01*
X143209203Y-89923011D01*
X143148654Y-89916500D01*
X143148638Y-89916500D01*
X141351362Y-89916500D01*
X141351345Y-89916500D01*
X141290797Y-89923011D01*
X141290795Y-89923011D01*
X141153795Y-89974111D01*
X141036739Y-90061739D01*
X140949111Y-90178795D01*
X140904043Y-90299625D01*
X140862171Y-90355558D01*
X140796707Y-90379974D01*
X140728434Y-90365122D01*
X140700181Y-90343971D01*
X140595006Y-90238796D01*
X140595004Y-90238794D01*
X140422009Y-90113106D01*
X140231483Y-90016027D01*
X140231480Y-90016026D01*
X140028117Y-89949951D01*
X139904310Y-89930342D01*
X139816916Y-89916500D01*
X139603084Y-89916500D01*
X139532684Y-89927650D01*
X139391882Y-89949951D01*
X139188519Y-90016026D01*
X139188516Y-90016027D01*
X138997990Y-90113106D01*
X138824993Y-90238796D01*
X138673796Y-90389993D01*
X138548106Y-90562990D01*
X138451027Y-90753516D01*
X138451026Y-90753519D01*
X138384951Y-90956882D01*
X138351500Y-91168084D01*
X90400500Y-91168084D01*
X90400500Y-89410516D01*
X123060250Y-89410516D01*
X123060250Y-89589483D01*
X123095161Y-89764992D01*
X123095163Y-89765000D01*
X123163646Y-89930332D01*
X123163651Y-89930342D01*
X123263071Y-90079134D01*
X123263074Y-90079138D01*
X123389611Y-90205675D01*
X123389615Y-90205678D01*
X123538407Y-90305098D01*
X123538411Y-90305100D01*
X123538414Y-90305102D01*
X123703750Y-90373587D01*
X123879266Y-90408499D01*
X123879270Y-90408500D01*
X123879271Y-90408500D01*
X124058230Y-90408500D01*
X124058231Y-90408499D01*
X124233750Y-90373587D01*
X124399086Y-90305102D01*
X124547885Y-90205678D01*
X124674428Y-90079135D01*
X124773852Y-89930336D01*
X124842337Y-89765000D01*
X124877250Y-89589479D01*
X124877250Y-89410521D01*
X124842337Y-89235000D01*
X124773852Y-89069664D01*
X124773850Y-89069661D01*
X124773848Y-89069657D01*
X124705608Y-88967529D01*
X124705607Y-88967527D01*
X124674431Y-88920869D01*
X124674425Y-88920861D01*
X124547887Y-88794323D01*
X124547884Y-88794321D01*
X124399092Y-88694901D01*
X124399082Y-88694896D01*
X124233750Y-88626413D01*
X124233742Y-88626411D01*
X124058233Y-88591500D01*
X124058229Y-88591500D01*
X123879271Y-88591500D01*
X123879266Y-88591500D01*
X123703757Y-88626411D01*
X123703749Y-88626413D01*
X123538417Y-88694896D01*
X123538407Y-88694901D01*
X123389615Y-88794321D01*
X123389613Y-88794323D01*
X123263074Y-88920861D01*
X123263071Y-88920865D01*
X123163651Y-89069657D01*
X123163646Y-89069667D01*
X123095163Y-89234999D01*
X123095161Y-89235007D01*
X123060250Y-89410516D01*
X90400500Y-89410516D01*
X90400500Y-87273016D01*
X108091500Y-87273016D01*
X108091500Y-87451983D01*
X108126411Y-87627492D01*
X108126413Y-87627500D01*
X108194896Y-87792832D01*
X108194901Y-87792842D01*
X108294321Y-87941634D01*
X108294324Y-87941638D01*
X108420861Y-88068175D01*
X108420865Y-88068178D01*
X108569657Y-88167598D01*
X108569661Y-88167600D01*
X108569664Y-88167602D01*
X108735000Y-88236087D01*
X108910516Y-88270999D01*
X108910520Y-88271000D01*
X108910521Y-88271000D01*
X109089480Y-88271000D01*
X109089481Y-88270999D01*
X109265000Y-88236087D01*
X109430336Y-88167602D01*
X109579135Y-88068178D01*
X109705678Y-87941635D01*
X109805102Y-87792836D01*
X109839200Y-87710516D01*
X112291500Y-87710516D01*
X112291500Y-87889483D01*
X112326411Y-88064992D01*
X112326413Y-88065000D01*
X112394896Y-88230332D01*
X112394901Y-88230342D01*
X112494321Y-88379134D01*
X112494324Y-88379138D01*
X112620861Y-88505675D01*
X112620865Y-88505678D01*
X112769657Y-88605098D01*
X112769661Y-88605100D01*
X112769664Y-88605102D01*
X112935000Y-88673587D01*
X113042139Y-88694898D01*
X113110516Y-88708499D01*
X113110520Y-88708500D01*
X113110521Y-88708500D01*
X113289480Y-88708500D01*
X113289481Y-88708499D01*
X113465000Y-88673587D01*
X113630336Y-88605102D01*
X113779135Y-88505678D01*
X113905678Y-88379135D01*
X114005102Y-88230336D01*
X114073587Y-88065000D01*
X114108500Y-87889479D01*
X114108500Y-87802155D01*
X131550000Y-87802155D01*
X131550000Y-88450000D01*
X132466988Y-88450000D01*
X132434075Y-88507007D01*
X132400000Y-88634174D01*
X132400000Y-88765826D01*
X132434075Y-88892993D01*
X132466988Y-88950000D01*
X131550000Y-88950000D01*
X131550000Y-89597844D01*
X131556401Y-89657372D01*
X131556403Y-89657379D01*
X131606645Y-89792086D01*
X131606649Y-89792093D01*
X131692809Y-89907187D01*
X131692812Y-89907190D01*
X131807906Y-89993350D01*
X131807913Y-89993354D01*
X131942620Y-90043596D01*
X131942627Y-90043598D01*
X132002155Y-90049999D01*
X132002172Y-90050000D01*
X132650000Y-90050000D01*
X132650000Y-89133012D01*
X132707007Y-89165925D01*
X132834174Y-89200000D01*
X132965826Y-89200000D01*
X133092993Y-89165925D01*
X133150000Y-89133012D01*
X133150000Y-90050000D01*
X133797828Y-90050000D01*
X133797844Y-90049999D01*
X133857372Y-90043598D01*
X133857379Y-90043596D01*
X133992086Y-89993354D01*
X133992093Y-89993350D01*
X134107187Y-89907190D01*
X134107190Y-89907187D01*
X134193350Y-89792093D01*
X134193354Y-89792086D01*
X134243596Y-89657379D01*
X134243598Y-89657372D01*
X134249999Y-89597844D01*
X134250000Y-89597827D01*
X134250000Y-88950000D01*
X133333012Y-88950000D01*
X133365925Y-88892993D01*
X133400000Y-88765826D01*
X133400000Y-88634174D01*
X133365925Y-88507007D01*
X133333012Y-88450000D01*
X134250000Y-88450000D01*
X134250000Y-87802172D01*
X134249999Y-87802155D01*
X134243598Y-87742627D01*
X134243596Y-87742620D01*
X134193354Y-87607913D01*
X134193350Y-87607906D01*
X134107190Y-87492812D01*
X134107187Y-87492809D01*
X133992093Y-87406649D01*
X133992086Y-87406645D01*
X133857379Y-87356403D01*
X133857372Y-87356401D01*
X133797844Y-87350000D01*
X133150000Y-87350000D01*
X133150000Y-88266988D01*
X133092993Y-88234075D01*
X132965826Y-88200000D01*
X132834174Y-88200000D01*
X132707007Y-88234075D01*
X132650000Y-88266988D01*
X132650000Y-87350000D01*
X132002155Y-87350000D01*
X131942627Y-87356401D01*
X131942620Y-87356403D01*
X131807913Y-87406645D01*
X131807906Y-87406649D01*
X131692812Y-87492809D01*
X131692809Y-87492812D01*
X131606649Y-87607906D01*
X131606645Y-87607913D01*
X131556403Y-87742620D01*
X131556401Y-87742627D01*
X131550000Y-87802155D01*
X114108500Y-87802155D01*
X114108500Y-87710521D01*
X114073587Y-87535000D01*
X114005102Y-87369664D01*
X114005100Y-87369661D01*
X114005098Y-87369657D01*
X113905678Y-87220865D01*
X113905675Y-87220861D01*
X113779138Y-87094324D01*
X113779134Y-87094321D01*
X113630342Y-86994901D01*
X113630332Y-86994896D01*
X113595553Y-86980490D01*
X113465000Y-86926413D01*
X113464992Y-86926411D01*
X113289483Y-86891500D01*
X113289479Y-86891500D01*
X113110521Y-86891500D01*
X113110516Y-86891500D01*
X112935007Y-86926411D01*
X112934999Y-86926413D01*
X112769667Y-86994896D01*
X112769657Y-86994901D01*
X112620865Y-87094321D01*
X112620861Y-87094324D01*
X112494324Y-87220861D01*
X112494321Y-87220865D01*
X112394901Y-87369657D01*
X112394896Y-87369667D01*
X112326413Y-87534999D01*
X112326411Y-87535007D01*
X112291500Y-87710516D01*
X109839200Y-87710516D01*
X109873587Y-87627500D01*
X109908500Y-87451979D01*
X109908500Y-87273021D01*
X109873587Y-87097500D01*
X109805102Y-86932164D01*
X109805100Y-86932161D01*
X109805098Y-86932157D01*
X109764913Y-86872016D01*
X139830000Y-86872016D01*
X139830000Y-87050983D01*
X139864911Y-87226492D01*
X139864913Y-87226500D01*
X139933396Y-87391832D01*
X139933401Y-87391842D01*
X140032821Y-87540634D01*
X140032824Y-87540638D01*
X140159361Y-87667175D01*
X140159365Y-87667178D01*
X140308157Y-87766598D01*
X140308161Y-87766600D01*
X140308164Y-87766602D01*
X140473500Y-87835087D01*
X140649016Y-87869999D01*
X140649020Y-87870000D01*
X140649021Y-87870000D01*
X140827980Y-87870000D01*
X140827981Y-87869999D01*
X141003500Y-87835087D01*
X141168836Y-87766602D01*
X141317635Y-87667178D01*
X141444178Y-87540635D01*
X141543602Y-87391836D01*
X141612087Y-87226500D01*
X141647000Y-87050979D01*
X141647000Y-86872021D01*
X141612087Y-86696500D01*
X141543602Y-86531164D01*
X141543600Y-86531161D01*
X141543598Y-86531157D01*
X141444178Y-86382365D01*
X141444175Y-86382361D01*
X141317638Y-86255824D01*
X141317634Y-86255821D01*
X141168842Y-86156401D01*
X141168832Y-86156396D01*
X141003500Y-86087913D01*
X141003492Y-86087911D01*
X140827983Y-86053000D01*
X140827979Y-86053000D01*
X140649021Y-86053000D01*
X140649016Y-86053000D01*
X140473507Y-86087911D01*
X140473499Y-86087913D01*
X140308167Y-86156396D01*
X140308157Y-86156401D01*
X140159365Y-86255821D01*
X140159361Y-86255824D01*
X140032824Y-86382361D01*
X140032821Y-86382365D01*
X139933401Y-86531157D01*
X139933396Y-86531167D01*
X139864913Y-86696499D01*
X139864911Y-86696507D01*
X139830000Y-86872016D01*
X109764913Y-86872016D01*
X109705678Y-86783365D01*
X109705675Y-86783361D01*
X109579138Y-86656824D01*
X109579134Y-86656821D01*
X109430342Y-86557401D01*
X109430332Y-86557396D01*
X109265000Y-86488913D01*
X109264992Y-86488911D01*
X109089483Y-86454000D01*
X109089479Y-86454000D01*
X108910521Y-86454000D01*
X108910516Y-86454000D01*
X108735007Y-86488911D01*
X108734999Y-86488913D01*
X108569667Y-86557396D01*
X108569657Y-86557401D01*
X108420865Y-86656821D01*
X108420861Y-86656824D01*
X108294324Y-86783361D01*
X108294321Y-86783365D01*
X108194901Y-86932157D01*
X108194896Y-86932167D01*
X108126413Y-87097499D01*
X108126411Y-87097507D01*
X108091500Y-87273016D01*
X90400500Y-87273016D01*
X90400500Y-84101345D01*
X110641500Y-84101345D01*
X110641500Y-85898654D01*
X110648011Y-85959202D01*
X110648011Y-85959204D01*
X110696018Y-86087911D01*
X110699111Y-86096204D01*
X110786739Y-86213261D01*
X110903796Y-86300889D01*
X111018297Y-86343596D01*
X111035463Y-86349999D01*
X111040799Y-86351989D01*
X111068050Y-86354918D01*
X111101345Y-86358499D01*
X111101362Y-86358500D01*
X112898638Y-86358500D01*
X112898654Y-86358499D01*
X112925692Y-86355591D01*
X112959201Y-86351989D01*
X112964537Y-86349999D01*
X112981703Y-86343596D01*
X113096204Y-86300889D01*
X113213261Y-86213261D01*
X113300889Y-86096204D01*
X113351989Y-85959201D01*
X113355591Y-85925692D01*
X113358499Y-85898654D01*
X113358500Y-85898637D01*
X113358500Y-84102155D01*
X114650000Y-84102155D01*
X114650000Y-84750000D01*
X115566988Y-84750000D01*
X115534075Y-84807007D01*
X115500000Y-84934174D01*
X115500000Y-85065826D01*
X115534075Y-85192993D01*
X115566988Y-85250000D01*
X114650000Y-85250000D01*
X114650000Y-85897844D01*
X114656401Y-85957372D01*
X114656403Y-85957379D01*
X114706645Y-86092086D01*
X114706649Y-86092093D01*
X114792809Y-86207187D01*
X114792812Y-86207190D01*
X114907906Y-86293350D01*
X114907913Y-86293354D01*
X115042620Y-86343596D01*
X115042627Y-86343598D01*
X115102155Y-86349999D01*
X115102172Y-86350000D01*
X115750000Y-86350000D01*
X115750000Y-85433012D01*
X115807007Y-85465925D01*
X115934174Y-85500000D01*
X116065826Y-85500000D01*
X116192993Y-85465925D01*
X116250000Y-85433012D01*
X116250000Y-86350000D01*
X116897828Y-86350000D01*
X116897844Y-86349999D01*
X116957372Y-86343598D01*
X116957379Y-86343596D01*
X117092086Y-86293354D01*
X117092093Y-86293350D01*
X117207187Y-86207190D01*
X117207190Y-86207187D01*
X117293350Y-86092093D01*
X117293354Y-86092086D01*
X117343596Y-85957379D01*
X117343598Y-85957372D01*
X117349999Y-85897844D01*
X117350000Y-85897827D01*
X117350000Y-85250000D01*
X116433012Y-85250000D01*
X116465925Y-85192993D01*
X116500000Y-85065826D01*
X116500000Y-84934174D01*
X116465925Y-84807007D01*
X116433012Y-84750000D01*
X117350000Y-84750000D01*
X117350000Y-84102172D01*
X117349999Y-84102155D01*
X117343598Y-84042627D01*
X117343596Y-84042620D01*
X117293354Y-83907913D01*
X117293350Y-83907906D01*
X117207190Y-83792812D01*
X117207187Y-83792809D01*
X117092093Y-83706649D01*
X117092086Y-83706645D01*
X116957379Y-83656403D01*
X116957372Y-83656401D01*
X116897844Y-83650000D01*
X116250000Y-83650000D01*
X116250000Y-84566988D01*
X116192993Y-84534075D01*
X116065826Y-84500000D01*
X115934174Y-84500000D01*
X115807007Y-84534075D01*
X115750000Y-84566988D01*
X115750000Y-83650000D01*
X115102155Y-83650000D01*
X115042627Y-83656401D01*
X115042620Y-83656403D01*
X114907913Y-83706645D01*
X114907906Y-83706649D01*
X114792812Y-83792809D01*
X114792809Y-83792812D01*
X114706649Y-83907906D01*
X114706645Y-83907913D01*
X114656403Y-84042620D01*
X114656401Y-84042627D01*
X114650000Y-84102155D01*
X113358500Y-84102155D01*
X113358500Y-84101362D01*
X113358499Y-84101345D01*
X113355157Y-84070270D01*
X113351989Y-84040799D01*
X113300889Y-83903796D01*
X113213261Y-83786739D01*
X113096204Y-83699111D01*
X112959203Y-83648011D01*
X112898654Y-83641500D01*
X112898638Y-83641500D01*
X111101362Y-83641500D01*
X111101345Y-83641500D01*
X111040797Y-83648011D01*
X111040795Y-83648011D01*
X110903795Y-83699111D01*
X110786739Y-83786739D01*
X110699111Y-83903795D01*
X110648011Y-84040795D01*
X110648011Y-84040797D01*
X110641500Y-84101345D01*
X90400500Y-84101345D01*
X90400500Y-82404066D01*
X90400765Y-82395956D01*
X90409224Y-82266894D01*
X90415364Y-82173207D01*
X90417479Y-82157153D01*
X90460230Y-81942226D01*
X90464428Y-81926561D01*
X90526349Y-81744148D01*
X90534868Y-81719049D01*
X90541067Y-81704083D01*
X90637995Y-81507533D01*
X90646098Y-81493498D01*
X90767853Y-81311279D01*
X90777710Y-81298433D01*
X90922207Y-81133665D01*
X90933665Y-81122207D01*
X91098433Y-80977710D01*
X91111279Y-80967853D01*
X91293498Y-80846098D01*
X91307533Y-80837995D01*
X91504083Y-80741067D01*
X91519049Y-80734868D01*
X91725945Y-80664637D01*
X91726561Y-80664428D01*
X91742228Y-80660230D01*
X91957153Y-80617479D01*
X91973209Y-80615364D01*
X92178058Y-80601938D01*
X92195958Y-80600765D01*
X92204067Y-80600500D01*
X92239882Y-80600500D01*
X159260118Y-80600500D01*
X159295933Y-80600500D01*
X159304043Y-80600765D01*
G37*
%TD.AperFunction*%
%TD*%
D14*
X161300000Y-120300000D02*
G75*
G02*
X159300000Y-122300000I-2000000J0D01*
G01*
X92200000Y-122300000D02*
G75*
G02*
X90200000Y-120300000I0J2000000D01*
G01*
X159300000Y-80400000D02*
G75*
G02*
X161300000Y-82400000I0J-2000000D01*
G01*
X90200000Y-82400000D02*
G75*
G02*
X92200000Y-80400000I2000000J0D01*
G01*
X161300000Y-82400000D02*
X161300000Y-120300000D01*
X90200000Y-120300000D02*
X90200000Y-82400000D01*
X159300000Y-122300000D02*
X92200000Y-122300000D01*
X92200000Y-80400000D02*
X159300000Y-80400000D01*
M02*
