%TF.GenerationSoftware,KiCad,Pcbnew,9.0.4*%
%TF.CreationDate,2025-12-09T22:33:46-05:00*%
%TF.ProjectId,EMG_BCI_PCB,454d475f-4243-4495-9f50-43422e6b6963,rev?*%
%TF.SameCoordinates,Original*%
%TF.FileFunction,Legend,Top*%
%TF.FilePolarity,Positive*%
%FSLAX46Y46*%
G04 Gerber Fmt 4.6, Leading zero omitted, Abs format (unit mm)*
G04 Created by KiCad (PCBNEW 9.0.4) date 2025-12-09 22:33:46*
%MOMM*%
%LPD*%
G01*
G04 APERTURE LIST*
%ADD10C,0.150000*%
%ADD11C,0.125000*%
%ADD12C,0.120000*%
%TA.AperFunction,Profile*%
%ADD13C,0.100000*%
%TD*%
G04 APERTURE END LIST*
D10*
X118955826Y-98667438D02*
X118898684Y-98619819D01*
X118898684Y-98619819D02*
X118812969Y-98619819D01*
X118812969Y-98619819D02*
X118727255Y-98667438D01*
X118727255Y-98667438D02*
X118670112Y-98762676D01*
X118670112Y-98762676D02*
X118641541Y-98857914D01*
X118641541Y-98857914D02*
X118612969Y-99048390D01*
X118612969Y-99048390D02*
X118612969Y-99191247D01*
X118612969Y-99191247D02*
X118641541Y-99381723D01*
X118641541Y-99381723D02*
X118670112Y-99476961D01*
X118670112Y-99476961D02*
X118727255Y-99572200D01*
X118727255Y-99572200D02*
X118812969Y-99619819D01*
X118812969Y-99619819D02*
X118870112Y-99619819D01*
X118870112Y-99619819D02*
X118955826Y-99572200D01*
X118955826Y-99572200D02*
X118984398Y-99524580D01*
X118984398Y-99524580D02*
X118984398Y-99191247D01*
X118984398Y-99191247D02*
X118870112Y-99191247D01*
X119241541Y-99619819D02*
X119241541Y-98619819D01*
X119241541Y-98619819D02*
X119584398Y-99619819D01*
X119584398Y-99619819D02*
X119584398Y-98619819D01*
X119870112Y-99619819D02*
X119870112Y-98619819D01*
X119870112Y-98619819D02*
X120012969Y-98619819D01*
X120012969Y-98619819D02*
X120098683Y-98667438D01*
X120098683Y-98667438D02*
X120155826Y-98762676D01*
X120155826Y-98762676D02*
X120184397Y-98857914D01*
X120184397Y-98857914D02*
X120212969Y-99048390D01*
X120212969Y-99048390D02*
X120212969Y-99191247D01*
X120212969Y-99191247D02*
X120184397Y-99381723D01*
X120184397Y-99381723D02*
X120155826Y-99476961D01*
X120155826Y-99476961D02*
X120098683Y-99572200D01*
X120098683Y-99572200D02*
X120012969Y-99619819D01*
X120012969Y-99619819D02*
X119870112Y-99619819D01*
X94355826Y-93169819D02*
X94555826Y-94169819D01*
X94555826Y-94169819D02*
X94755826Y-93169819D01*
X94955827Y-94169819D02*
X94955827Y-93503152D01*
X94955827Y-93169819D02*
X94927255Y-93217438D01*
X94927255Y-93217438D02*
X94955827Y-93265057D01*
X94955827Y-93265057D02*
X94984398Y-93217438D01*
X94984398Y-93217438D02*
X94955827Y-93169819D01*
X94955827Y-93169819D02*
X94955827Y-93265057D01*
X95241541Y-93503152D02*
X95241541Y-94169819D01*
X95241541Y-93598390D02*
X95270112Y-93550771D01*
X95270112Y-93550771D02*
X95327255Y-93503152D01*
X95327255Y-93503152D02*
X95412969Y-93503152D01*
X95412969Y-93503152D02*
X95470112Y-93550771D01*
X95470112Y-93550771D02*
X95498684Y-93646009D01*
X95498684Y-93646009D02*
X95498684Y-94169819D01*
X95784398Y-93788866D02*
X96241541Y-93788866D01*
X96012969Y-94169819D02*
X96012969Y-93407914D01*
X157705826Y-92517438D02*
X157648684Y-92469819D01*
X157648684Y-92469819D02*
X157562969Y-92469819D01*
X157562969Y-92469819D02*
X157477255Y-92517438D01*
X157477255Y-92517438D02*
X157420112Y-92612676D01*
X157420112Y-92612676D02*
X157391541Y-92707914D01*
X157391541Y-92707914D02*
X157362969Y-92898390D01*
X157362969Y-92898390D02*
X157362969Y-93041247D01*
X157362969Y-93041247D02*
X157391541Y-93231723D01*
X157391541Y-93231723D02*
X157420112Y-93326961D01*
X157420112Y-93326961D02*
X157477255Y-93422200D01*
X157477255Y-93422200D02*
X157562969Y-93469819D01*
X157562969Y-93469819D02*
X157620112Y-93469819D01*
X157620112Y-93469819D02*
X157705826Y-93422200D01*
X157705826Y-93422200D02*
X157734398Y-93374580D01*
X157734398Y-93374580D02*
X157734398Y-93041247D01*
X157734398Y-93041247D02*
X157620112Y-93041247D01*
X157991541Y-93469819D02*
X157991541Y-92469819D01*
X157991541Y-92469819D02*
X158334398Y-93469819D01*
X158334398Y-93469819D02*
X158334398Y-92469819D01*
X158620112Y-93469819D02*
X158620112Y-92469819D01*
X158620112Y-92469819D02*
X158762969Y-92469819D01*
X158762969Y-92469819D02*
X158848683Y-92517438D01*
X158848683Y-92517438D02*
X158905826Y-92612676D01*
X158905826Y-92612676D02*
X158934397Y-92707914D01*
X158934397Y-92707914D02*
X158962969Y-92898390D01*
X158962969Y-92898390D02*
X158962969Y-93041247D01*
X158962969Y-93041247D02*
X158934397Y-93231723D01*
X158934397Y-93231723D02*
X158905826Y-93326961D01*
X158905826Y-93326961D02*
X158848683Y-93422200D01*
X158848683Y-93422200D02*
X158762969Y-93469819D01*
X158762969Y-93469819D02*
X158620112Y-93469819D01*
X131655826Y-85417438D02*
X131598684Y-85369819D01*
X131598684Y-85369819D02*
X131512969Y-85369819D01*
X131512969Y-85369819D02*
X131427255Y-85417438D01*
X131427255Y-85417438D02*
X131370112Y-85512676D01*
X131370112Y-85512676D02*
X131341541Y-85607914D01*
X131341541Y-85607914D02*
X131312969Y-85798390D01*
X131312969Y-85798390D02*
X131312969Y-85941247D01*
X131312969Y-85941247D02*
X131341541Y-86131723D01*
X131341541Y-86131723D02*
X131370112Y-86226961D01*
X131370112Y-86226961D02*
X131427255Y-86322200D01*
X131427255Y-86322200D02*
X131512969Y-86369819D01*
X131512969Y-86369819D02*
X131570112Y-86369819D01*
X131570112Y-86369819D02*
X131655826Y-86322200D01*
X131655826Y-86322200D02*
X131684398Y-86274580D01*
X131684398Y-86274580D02*
X131684398Y-85941247D01*
X131684398Y-85941247D02*
X131570112Y-85941247D01*
X131941541Y-86369819D02*
X131941541Y-85369819D01*
X131941541Y-85369819D02*
X132284398Y-86369819D01*
X132284398Y-86369819D02*
X132284398Y-85369819D01*
X132570112Y-86369819D02*
X132570112Y-85369819D01*
X132570112Y-85369819D02*
X132712969Y-85369819D01*
X132712969Y-85369819D02*
X132798683Y-85417438D01*
X132798683Y-85417438D02*
X132855826Y-85512676D01*
X132855826Y-85512676D02*
X132884397Y-85607914D01*
X132884397Y-85607914D02*
X132912969Y-85798390D01*
X132912969Y-85798390D02*
X132912969Y-85941247D01*
X132912969Y-85941247D02*
X132884397Y-86131723D01*
X132884397Y-86131723D02*
X132855826Y-86226961D01*
X132855826Y-86226961D02*
X132798683Y-86322200D01*
X132798683Y-86322200D02*
X132712969Y-86369819D01*
X132712969Y-86369819D02*
X132570112Y-86369819D01*
X110141541Y-82869819D02*
X110141541Y-81869819D01*
X110427255Y-82203152D02*
X110427255Y-82869819D01*
X110427255Y-82298390D02*
X110455826Y-82250771D01*
X110455826Y-82250771D02*
X110512969Y-82203152D01*
X110512969Y-82203152D02*
X110598683Y-82203152D01*
X110598683Y-82203152D02*
X110655826Y-82250771D01*
X110655826Y-82250771D02*
X110684398Y-82346009D01*
X110684398Y-82346009D02*
X110684398Y-82869819D01*
X110941540Y-82822200D02*
X110998683Y-82869819D01*
X110998683Y-82869819D02*
X111112969Y-82869819D01*
X111112969Y-82869819D02*
X111170112Y-82822200D01*
X111170112Y-82822200D02*
X111198683Y-82726961D01*
X111198683Y-82726961D02*
X111198683Y-82679342D01*
X111198683Y-82679342D02*
X111170112Y-82584104D01*
X111170112Y-82584104D02*
X111112969Y-82536485D01*
X111112969Y-82536485D02*
X111027255Y-82536485D01*
X111027255Y-82536485D02*
X110970112Y-82488866D01*
X110970112Y-82488866D02*
X110941540Y-82393628D01*
X110941540Y-82393628D02*
X110941540Y-82346009D01*
X110941540Y-82346009D02*
X110970112Y-82250771D01*
X110970112Y-82250771D02*
X111027255Y-82203152D01*
X111027255Y-82203152D02*
X111112969Y-82203152D01*
X111112969Y-82203152D02*
X111170112Y-82250771D01*
X111370111Y-82203152D02*
X111598683Y-82203152D01*
X111455826Y-81869819D02*
X111455826Y-82726961D01*
X111455826Y-82726961D02*
X111484397Y-82822200D01*
X111484397Y-82822200D02*
X111541540Y-82869819D01*
X111541540Y-82869819D02*
X111598683Y-82869819D01*
X112370111Y-81869819D02*
X112484397Y-81869819D01*
X112484397Y-81869819D02*
X112541540Y-81917438D01*
X112541540Y-81917438D02*
X112598683Y-82012676D01*
X112598683Y-82012676D02*
X112627254Y-82203152D01*
X112627254Y-82203152D02*
X112627254Y-82536485D01*
X112627254Y-82536485D02*
X112598683Y-82726961D01*
X112598683Y-82726961D02*
X112541540Y-82822200D01*
X112541540Y-82822200D02*
X112484397Y-82869819D01*
X112484397Y-82869819D02*
X112370111Y-82869819D01*
X112370111Y-82869819D02*
X112312969Y-82822200D01*
X112312969Y-82822200D02*
X112255826Y-82726961D01*
X112255826Y-82726961D02*
X112227254Y-82536485D01*
X112227254Y-82536485D02*
X112227254Y-82203152D01*
X112227254Y-82203152D02*
X112255826Y-82012676D01*
X112255826Y-82012676D02*
X112312969Y-81917438D01*
X112312969Y-81917438D02*
X112370111Y-81869819D01*
X113141540Y-82203152D02*
X113141540Y-82869819D01*
X112884397Y-82203152D02*
X112884397Y-82726961D01*
X112884397Y-82726961D02*
X112912968Y-82822200D01*
X112912968Y-82822200D02*
X112970111Y-82869819D01*
X112970111Y-82869819D02*
X113055825Y-82869819D01*
X113055825Y-82869819D02*
X113112968Y-82822200D01*
X113112968Y-82822200D02*
X113141540Y-82774580D01*
X113341539Y-82203152D02*
X113570111Y-82203152D01*
X113427254Y-81869819D02*
X113427254Y-82726961D01*
X113427254Y-82726961D02*
X113455825Y-82822200D01*
X113455825Y-82822200D02*
X113512968Y-82869819D01*
X113512968Y-82869819D02*
X113570111Y-82869819D01*
X115655826Y-82117438D02*
X115598684Y-82069819D01*
X115598684Y-82069819D02*
X115512969Y-82069819D01*
X115512969Y-82069819D02*
X115427255Y-82117438D01*
X115427255Y-82117438D02*
X115370112Y-82212676D01*
X115370112Y-82212676D02*
X115341541Y-82307914D01*
X115341541Y-82307914D02*
X115312969Y-82498390D01*
X115312969Y-82498390D02*
X115312969Y-82641247D01*
X115312969Y-82641247D02*
X115341541Y-82831723D01*
X115341541Y-82831723D02*
X115370112Y-82926961D01*
X115370112Y-82926961D02*
X115427255Y-83022200D01*
X115427255Y-83022200D02*
X115512969Y-83069819D01*
X115512969Y-83069819D02*
X115570112Y-83069819D01*
X115570112Y-83069819D02*
X115655826Y-83022200D01*
X115655826Y-83022200D02*
X115684398Y-82974580D01*
X115684398Y-82974580D02*
X115684398Y-82641247D01*
X115684398Y-82641247D02*
X115570112Y-82641247D01*
X115941541Y-83069819D02*
X115941541Y-82069819D01*
X115941541Y-82069819D02*
X116284398Y-83069819D01*
X116284398Y-83069819D02*
X116284398Y-82069819D01*
X116570112Y-83069819D02*
X116570112Y-82069819D01*
X116570112Y-82069819D02*
X116712969Y-82069819D01*
X116712969Y-82069819D02*
X116798683Y-82117438D01*
X116798683Y-82117438D02*
X116855826Y-82212676D01*
X116855826Y-82212676D02*
X116884397Y-82307914D01*
X116884397Y-82307914D02*
X116912969Y-82498390D01*
X116912969Y-82498390D02*
X116912969Y-82641247D01*
X116912969Y-82641247D02*
X116884397Y-82831723D01*
X116884397Y-82831723D02*
X116855826Y-82926961D01*
X116855826Y-82926961D02*
X116798683Y-83022200D01*
X116798683Y-83022200D02*
X116712969Y-83069819D01*
X116712969Y-83069819D02*
X116570112Y-83069819D01*
X101655826Y-113117438D02*
X101598684Y-113069819D01*
X101598684Y-113069819D02*
X101512969Y-113069819D01*
X101512969Y-113069819D02*
X101427255Y-113117438D01*
X101427255Y-113117438D02*
X101370112Y-113212676D01*
X101370112Y-113212676D02*
X101341541Y-113307914D01*
X101341541Y-113307914D02*
X101312969Y-113498390D01*
X101312969Y-113498390D02*
X101312969Y-113641247D01*
X101312969Y-113641247D02*
X101341541Y-113831723D01*
X101341541Y-113831723D02*
X101370112Y-113926961D01*
X101370112Y-113926961D02*
X101427255Y-114022200D01*
X101427255Y-114022200D02*
X101512969Y-114069819D01*
X101512969Y-114069819D02*
X101570112Y-114069819D01*
X101570112Y-114069819D02*
X101655826Y-114022200D01*
X101655826Y-114022200D02*
X101684398Y-113974580D01*
X101684398Y-113974580D02*
X101684398Y-113641247D01*
X101684398Y-113641247D02*
X101570112Y-113641247D01*
X101941541Y-114069819D02*
X101941541Y-113069819D01*
X101941541Y-113069819D02*
X102284398Y-114069819D01*
X102284398Y-114069819D02*
X102284398Y-113069819D01*
X102570112Y-114069819D02*
X102570112Y-113069819D01*
X102570112Y-113069819D02*
X102712969Y-113069819D01*
X102712969Y-113069819D02*
X102798683Y-113117438D01*
X102798683Y-113117438D02*
X102855826Y-113212676D01*
X102855826Y-113212676D02*
X102884397Y-113307914D01*
X102884397Y-113307914D02*
X102912969Y-113498390D01*
X102912969Y-113498390D02*
X102912969Y-113641247D01*
X102912969Y-113641247D02*
X102884397Y-113831723D01*
X102884397Y-113831723D02*
X102855826Y-113926961D01*
X102855826Y-113926961D02*
X102798683Y-114022200D01*
X102798683Y-114022200D02*
X102712969Y-114069819D01*
X102712969Y-114069819D02*
X102570112Y-114069819D01*
D11*
X133825093Y-100432309D02*
X133825093Y-99932309D01*
X133825093Y-99932309D02*
X134053664Y-99932309D01*
X134053664Y-99932309D02*
X134110807Y-99956119D01*
X134110807Y-99956119D02*
X134139378Y-99979928D01*
X134139378Y-99979928D02*
X134167950Y-100027547D01*
X134167950Y-100027547D02*
X134167950Y-100098976D01*
X134167950Y-100098976D02*
X134139378Y-100146595D01*
X134139378Y-100146595D02*
X134110807Y-100170404D01*
X134110807Y-100170404D02*
X134053664Y-100194214D01*
X134053664Y-100194214D02*
X133825093Y-100194214D01*
X134425093Y-100432309D02*
X134425093Y-100098976D01*
X134425093Y-100194214D02*
X134453664Y-100146595D01*
X134453664Y-100146595D02*
X134482236Y-100122785D01*
X134482236Y-100122785D02*
X134539378Y-100098976D01*
X134539378Y-100098976D02*
X134596521Y-100098976D01*
X135025093Y-100408500D02*
X134967950Y-100432309D01*
X134967950Y-100432309D02*
X134853665Y-100432309D01*
X134853665Y-100432309D02*
X134796522Y-100408500D01*
X134796522Y-100408500D02*
X134767950Y-100360880D01*
X134767950Y-100360880D02*
X134767950Y-100170404D01*
X134767950Y-100170404D02*
X134796522Y-100122785D01*
X134796522Y-100122785D02*
X134853665Y-100098976D01*
X134853665Y-100098976D02*
X134967950Y-100098976D01*
X134967950Y-100098976D02*
X135025093Y-100122785D01*
X135025093Y-100122785D02*
X135053665Y-100170404D01*
X135053665Y-100170404D02*
X135053665Y-100218023D01*
X135053665Y-100218023D02*
X134767950Y-100265642D01*
X136053665Y-100432309D02*
X135767951Y-100432309D01*
X135767951Y-100432309D02*
X135767951Y-99932309D01*
X136253665Y-100432309D02*
X136253665Y-99932309D01*
X136253665Y-99932309D02*
X136482236Y-99932309D01*
X136482236Y-99932309D02*
X136539379Y-99956119D01*
X136539379Y-99956119D02*
X136567950Y-99979928D01*
X136567950Y-99979928D02*
X136596522Y-100027547D01*
X136596522Y-100027547D02*
X136596522Y-100098976D01*
X136596522Y-100098976D02*
X136567950Y-100146595D01*
X136567950Y-100146595D02*
X136539379Y-100170404D01*
X136539379Y-100170404D02*
X136482236Y-100194214D01*
X136482236Y-100194214D02*
X136253665Y-100194214D01*
X137510808Y-100170404D02*
X137310808Y-100170404D01*
X137310808Y-100432309D02*
X137310808Y-99932309D01*
X137310808Y-99932309D02*
X137596522Y-99932309D01*
X137825094Y-100432309D02*
X137825094Y-100098976D01*
X137825094Y-99932309D02*
X137796522Y-99956119D01*
X137796522Y-99956119D02*
X137825094Y-99979928D01*
X137825094Y-99979928D02*
X137853665Y-99956119D01*
X137853665Y-99956119D02*
X137825094Y-99932309D01*
X137825094Y-99932309D02*
X137825094Y-99979928D01*
X138196522Y-100432309D02*
X138139379Y-100408500D01*
X138139379Y-100408500D02*
X138110808Y-100360880D01*
X138110808Y-100360880D02*
X138110808Y-99932309D01*
X138339379Y-100098976D02*
X138567951Y-100098976D01*
X138425094Y-99932309D02*
X138425094Y-100360880D01*
X138425094Y-100360880D02*
X138453665Y-100408500D01*
X138453665Y-100408500D02*
X138510808Y-100432309D01*
X138510808Y-100432309D02*
X138567951Y-100432309D01*
D10*
X154734398Y-97019819D02*
X154534398Y-96543628D01*
X154391541Y-97019819D02*
X154391541Y-96019819D01*
X154391541Y-96019819D02*
X154620112Y-96019819D01*
X154620112Y-96019819D02*
X154677255Y-96067438D01*
X154677255Y-96067438D02*
X154705826Y-96115057D01*
X154705826Y-96115057D02*
X154734398Y-96210295D01*
X154734398Y-96210295D02*
X154734398Y-96353152D01*
X154734398Y-96353152D02*
X154705826Y-96448390D01*
X154705826Y-96448390D02*
X154677255Y-96496009D01*
X154677255Y-96496009D02*
X154620112Y-96543628D01*
X154620112Y-96543628D02*
X154391541Y-96543628D01*
X155220112Y-96972200D02*
X155162969Y-97019819D01*
X155162969Y-97019819D02*
X155048684Y-97019819D01*
X155048684Y-97019819D02*
X154991541Y-96972200D01*
X154991541Y-96972200D02*
X154962969Y-96876961D01*
X154962969Y-96876961D02*
X154962969Y-96496009D01*
X154962969Y-96496009D02*
X154991541Y-96400771D01*
X154991541Y-96400771D02*
X155048684Y-96353152D01*
X155048684Y-96353152D02*
X155162969Y-96353152D01*
X155162969Y-96353152D02*
X155220112Y-96400771D01*
X155220112Y-96400771D02*
X155248684Y-96496009D01*
X155248684Y-96496009D02*
X155248684Y-96591247D01*
X155248684Y-96591247D02*
X154962969Y-96686485D01*
X155762970Y-96972200D02*
X155705827Y-97019819D01*
X155705827Y-97019819D02*
X155591541Y-97019819D01*
X155591541Y-97019819D02*
X155534398Y-96972200D01*
X155534398Y-96972200D02*
X155505827Y-96924580D01*
X155505827Y-96924580D02*
X155477255Y-96829342D01*
X155477255Y-96829342D02*
X155477255Y-96543628D01*
X155477255Y-96543628D02*
X155505827Y-96448390D01*
X155505827Y-96448390D02*
X155534398Y-96400771D01*
X155534398Y-96400771D02*
X155591541Y-96353152D01*
X155591541Y-96353152D02*
X155705827Y-96353152D01*
X155705827Y-96353152D02*
X155762970Y-96400771D01*
X155934398Y-96353152D02*
X156162970Y-96353152D01*
X156020113Y-96019819D02*
X156020113Y-96876961D01*
X156020113Y-96876961D02*
X156048684Y-96972200D01*
X156048684Y-96972200D02*
X156105827Y-97019819D01*
X156105827Y-97019819D02*
X156162970Y-97019819D01*
X157134398Y-96067438D02*
X157077256Y-96019819D01*
X157077256Y-96019819D02*
X156991541Y-96019819D01*
X156991541Y-96019819D02*
X156905827Y-96067438D01*
X156905827Y-96067438D02*
X156848684Y-96162676D01*
X156848684Y-96162676D02*
X156820113Y-96257914D01*
X156820113Y-96257914D02*
X156791541Y-96448390D01*
X156791541Y-96448390D02*
X156791541Y-96591247D01*
X156791541Y-96591247D02*
X156820113Y-96781723D01*
X156820113Y-96781723D02*
X156848684Y-96876961D01*
X156848684Y-96876961D02*
X156905827Y-96972200D01*
X156905827Y-96972200D02*
X156991541Y-97019819D01*
X156991541Y-97019819D02*
X157048684Y-97019819D01*
X157048684Y-97019819D02*
X157134398Y-96972200D01*
X157134398Y-96972200D02*
X157162970Y-96924580D01*
X157162970Y-96924580D02*
X157162970Y-96591247D01*
X157162970Y-96591247D02*
X157048684Y-96591247D01*
X157677256Y-97019819D02*
X157677256Y-96496009D01*
X157677256Y-96496009D02*
X157648684Y-96400771D01*
X157648684Y-96400771D02*
X157591541Y-96353152D01*
X157591541Y-96353152D02*
X157477256Y-96353152D01*
X157477256Y-96353152D02*
X157420113Y-96400771D01*
X157677256Y-96972200D02*
X157620113Y-97019819D01*
X157620113Y-97019819D02*
X157477256Y-97019819D01*
X157477256Y-97019819D02*
X157420113Y-96972200D01*
X157420113Y-96972200D02*
X157391541Y-96876961D01*
X157391541Y-96876961D02*
X157391541Y-96781723D01*
X157391541Y-96781723D02*
X157420113Y-96686485D01*
X157420113Y-96686485D02*
X157477256Y-96638866D01*
X157477256Y-96638866D02*
X157620113Y-96638866D01*
X157620113Y-96638866D02*
X157677256Y-96591247D01*
X157962970Y-97019819D02*
X157962970Y-96353152D01*
X157962970Y-96019819D02*
X157934398Y-96067438D01*
X157934398Y-96067438D02*
X157962970Y-96115057D01*
X157962970Y-96115057D02*
X157991541Y-96067438D01*
X157991541Y-96067438D02*
X157962970Y-96019819D01*
X157962970Y-96019819D02*
X157962970Y-96115057D01*
X158248684Y-96353152D02*
X158248684Y-97019819D01*
X158248684Y-96448390D02*
X158277255Y-96400771D01*
X158277255Y-96400771D02*
X158334398Y-96353152D01*
X158334398Y-96353152D02*
X158420112Y-96353152D01*
X158420112Y-96353152D02*
X158477255Y-96400771D01*
X158477255Y-96400771D02*
X158505827Y-96496009D01*
X158505827Y-96496009D02*
X158505827Y-97019819D01*
D11*
X134380807Y-101432309D02*
X134095093Y-101432309D01*
X134095093Y-101432309D02*
X134095093Y-100932309D01*
X134580807Y-101432309D02*
X134580807Y-100932309D01*
X134580807Y-100932309D02*
X134809378Y-100932309D01*
X134809378Y-100932309D02*
X134866521Y-100956119D01*
X134866521Y-100956119D02*
X134895092Y-100979928D01*
X134895092Y-100979928D02*
X134923664Y-101027547D01*
X134923664Y-101027547D02*
X134923664Y-101098976D01*
X134923664Y-101098976D02*
X134895092Y-101146595D01*
X134895092Y-101146595D02*
X134866521Y-101170404D01*
X134866521Y-101170404D02*
X134809378Y-101194214D01*
X134809378Y-101194214D02*
X134580807Y-101194214D01*
X135037950Y-101479928D02*
X135495092Y-101479928D01*
X135752235Y-100932309D02*
X135866521Y-100932309D01*
X135866521Y-100932309D02*
X135923664Y-100956119D01*
X135923664Y-100956119D02*
X135980807Y-101003738D01*
X135980807Y-101003738D02*
X136009378Y-101098976D01*
X136009378Y-101098976D02*
X136009378Y-101265642D01*
X136009378Y-101265642D02*
X135980807Y-101360880D01*
X135980807Y-101360880D02*
X135923664Y-101408500D01*
X135923664Y-101408500D02*
X135866521Y-101432309D01*
X135866521Y-101432309D02*
X135752235Y-101432309D01*
X135752235Y-101432309D02*
X135695093Y-101408500D01*
X135695093Y-101408500D02*
X135637950Y-101360880D01*
X135637950Y-101360880D02*
X135609378Y-101265642D01*
X135609378Y-101265642D02*
X135609378Y-101098976D01*
X135609378Y-101098976D02*
X135637950Y-101003738D01*
X135637950Y-101003738D02*
X135695093Y-100956119D01*
X135695093Y-100956119D02*
X135752235Y-100932309D01*
X136523664Y-101098976D02*
X136523664Y-101432309D01*
X136266521Y-101098976D02*
X136266521Y-101360880D01*
X136266521Y-101360880D02*
X136295092Y-101408500D01*
X136295092Y-101408500D02*
X136352235Y-101432309D01*
X136352235Y-101432309D02*
X136437949Y-101432309D01*
X136437949Y-101432309D02*
X136495092Y-101408500D01*
X136495092Y-101408500D02*
X136523664Y-101384690D01*
X136723663Y-101098976D02*
X136952235Y-101098976D01*
X136809378Y-100932309D02*
X136809378Y-101360880D01*
X136809378Y-101360880D02*
X136837949Y-101408500D01*
X136837949Y-101408500D02*
X136895092Y-101432309D01*
X136895092Y-101432309D02*
X136952235Y-101432309D01*
D10*
X108541541Y-102269819D02*
X108541541Y-101269819D01*
X108541541Y-101269819D02*
X108770112Y-101269819D01*
X108770112Y-101269819D02*
X108827255Y-101317438D01*
X108827255Y-101317438D02*
X108855826Y-101365057D01*
X108855826Y-101365057D02*
X108884398Y-101460295D01*
X108884398Y-101460295D02*
X108884398Y-101603152D01*
X108884398Y-101603152D02*
X108855826Y-101698390D01*
X108855826Y-101698390D02*
X108827255Y-101746009D01*
X108827255Y-101746009D02*
X108770112Y-101793628D01*
X108770112Y-101793628D02*
X108541541Y-101793628D01*
X109084398Y-101269819D02*
X109227255Y-102269819D01*
X109227255Y-102269819D02*
X109341541Y-101555533D01*
X109341541Y-101555533D02*
X109455826Y-102269819D01*
X109455826Y-102269819D02*
X109598684Y-101269819D01*
X110170112Y-102269819D02*
X109970112Y-101793628D01*
X109827255Y-102269819D02*
X109827255Y-101269819D01*
X109827255Y-101269819D02*
X110055826Y-101269819D01*
X110055826Y-101269819D02*
X110112969Y-101317438D01*
X110112969Y-101317438D02*
X110141540Y-101365057D01*
X110141540Y-101365057D02*
X110170112Y-101460295D01*
X110170112Y-101460295D02*
X110170112Y-101603152D01*
X110170112Y-101603152D02*
X110141540Y-101698390D01*
X110141540Y-101698390D02*
X110112969Y-101746009D01*
X110112969Y-101746009D02*
X110055826Y-101793628D01*
X110055826Y-101793628D02*
X109827255Y-101793628D01*
X110741540Y-101317438D02*
X110684398Y-101269819D01*
X110684398Y-101269819D02*
X110598683Y-101269819D01*
X110598683Y-101269819D02*
X110512969Y-101317438D01*
X110512969Y-101317438D02*
X110455826Y-101412676D01*
X110455826Y-101412676D02*
X110427255Y-101507914D01*
X110427255Y-101507914D02*
X110398683Y-101698390D01*
X110398683Y-101698390D02*
X110398683Y-101841247D01*
X110398683Y-101841247D02*
X110427255Y-102031723D01*
X110427255Y-102031723D02*
X110455826Y-102126961D01*
X110455826Y-102126961D02*
X110512969Y-102222200D01*
X110512969Y-102222200D02*
X110598683Y-102269819D01*
X110598683Y-102269819D02*
X110655826Y-102269819D01*
X110655826Y-102269819D02*
X110741540Y-102222200D01*
X110741540Y-102222200D02*
X110770112Y-102174580D01*
X110770112Y-102174580D02*
X110770112Y-101841247D01*
X110770112Y-101841247D02*
X110655826Y-101841247D01*
X139884398Y-116389819D02*
X139684398Y-115913628D01*
X139541541Y-116389819D02*
X139541541Y-115389819D01*
X139541541Y-115389819D02*
X139770112Y-115389819D01*
X139770112Y-115389819D02*
X139827255Y-115437438D01*
X139827255Y-115437438D02*
X139855826Y-115485057D01*
X139855826Y-115485057D02*
X139884398Y-115580295D01*
X139884398Y-115580295D02*
X139884398Y-115723152D01*
X139884398Y-115723152D02*
X139855826Y-115818390D01*
X139855826Y-115818390D02*
X139827255Y-115866009D01*
X139827255Y-115866009D02*
X139770112Y-115913628D01*
X139770112Y-115913628D02*
X139541541Y-115913628D01*
X140370112Y-116342200D02*
X140312969Y-116389819D01*
X140312969Y-116389819D02*
X140198684Y-116389819D01*
X140198684Y-116389819D02*
X140141541Y-116342200D01*
X140141541Y-116342200D02*
X140112969Y-116246961D01*
X140112969Y-116246961D02*
X140112969Y-115866009D01*
X140112969Y-115866009D02*
X140141541Y-115770771D01*
X140141541Y-115770771D02*
X140198684Y-115723152D01*
X140198684Y-115723152D02*
X140312969Y-115723152D01*
X140312969Y-115723152D02*
X140370112Y-115770771D01*
X140370112Y-115770771D02*
X140398684Y-115866009D01*
X140398684Y-115866009D02*
X140398684Y-115961247D01*
X140398684Y-115961247D02*
X140112969Y-116056485D01*
X140912970Y-116342200D02*
X140855827Y-116389819D01*
X140855827Y-116389819D02*
X140741541Y-116389819D01*
X140741541Y-116389819D02*
X140684398Y-116342200D01*
X140684398Y-116342200D02*
X140655827Y-116294580D01*
X140655827Y-116294580D02*
X140627255Y-116199342D01*
X140627255Y-116199342D02*
X140627255Y-115913628D01*
X140627255Y-115913628D02*
X140655827Y-115818390D01*
X140655827Y-115818390D02*
X140684398Y-115770771D01*
X140684398Y-115770771D02*
X140741541Y-115723152D01*
X140741541Y-115723152D02*
X140855827Y-115723152D01*
X140855827Y-115723152D02*
X140912970Y-115770771D01*
X141084398Y-115723152D02*
X141312970Y-115723152D01*
X141170113Y-115389819D02*
X141170113Y-116246961D01*
X141170113Y-116246961D02*
X141198684Y-116342200D01*
X141198684Y-116342200D02*
X141255827Y-116389819D01*
X141255827Y-116389819D02*
X141312970Y-116389819D01*
X141512970Y-116389819D02*
X141512970Y-115723152D01*
X141512970Y-115389819D02*
X141484398Y-115437438D01*
X141484398Y-115437438D02*
X141512970Y-115485057D01*
X141512970Y-115485057D02*
X141541541Y-115437438D01*
X141541541Y-115437438D02*
X141512970Y-115389819D01*
X141512970Y-115389819D02*
X141512970Y-115485057D01*
X141712969Y-115723152D02*
X141941541Y-115723152D01*
X141798684Y-116389819D02*
X141798684Y-115532676D01*
X141798684Y-115532676D02*
X141827255Y-115437438D01*
X141827255Y-115437438D02*
X141884398Y-115389819D01*
X141884398Y-115389819D02*
X141941541Y-115389819D01*
X142141541Y-116389819D02*
X142141541Y-115723152D01*
X142141541Y-115389819D02*
X142112969Y-115437438D01*
X142112969Y-115437438D02*
X142141541Y-115485057D01*
X142141541Y-115485057D02*
X142170112Y-115437438D01*
X142170112Y-115437438D02*
X142141541Y-115389819D01*
X142141541Y-115389819D02*
X142141541Y-115485057D01*
X142655826Y-116342200D02*
X142598683Y-116389819D01*
X142598683Y-116389819D02*
X142484398Y-116389819D01*
X142484398Y-116389819D02*
X142427255Y-116342200D01*
X142427255Y-116342200D02*
X142398683Y-116246961D01*
X142398683Y-116246961D02*
X142398683Y-115866009D01*
X142398683Y-115866009D02*
X142427255Y-115770771D01*
X142427255Y-115770771D02*
X142484398Y-115723152D01*
X142484398Y-115723152D02*
X142598683Y-115723152D01*
X142598683Y-115723152D02*
X142655826Y-115770771D01*
X142655826Y-115770771D02*
X142684398Y-115866009D01*
X142684398Y-115866009D02*
X142684398Y-115961247D01*
X142684398Y-115961247D02*
X142398683Y-116056485D01*
X142941541Y-116389819D02*
X142941541Y-115723152D01*
X142941541Y-115913628D02*
X142970112Y-115818390D01*
X142970112Y-115818390D02*
X142998684Y-115770771D01*
X142998684Y-115770771D02*
X143055826Y-115723152D01*
X143055826Y-115723152D02*
X143112969Y-115723152D01*
X143884398Y-115389819D02*
X143998684Y-115389819D01*
X143998684Y-115389819D02*
X144055827Y-115437438D01*
X144055827Y-115437438D02*
X144112970Y-115532676D01*
X144112970Y-115532676D02*
X144141541Y-115723152D01*
X144141541Y-115723152D02*
X144141541Y-116056485D01*
X144141541Y-116056485D02*
X144112970Y-116246961D01*
X144112970Y-116246961D02*
X144055827Y-116342200D01*
X144055827Y-116342200D02*
X143998684Y-116389819D01*
X143998684Y-116389819D02*
X143884398Y-116389819D01*
X143884398Y-116389819D02*
X143827256Y-116342200D01*
X143827256Y-116342200D02*
X143770113Y-116246961D01*
X143770113Y-116246961D02*
X143741541Y-116056485D01*
X143741541Y-116056485D02*
X143741541Y-115723152D01*
X143741541Y-115723152D02*
X143770113Y-115532676D01*
X143770113Y-115532676D02*
X143827256Y-115437438D01*
X143827256Y-115437438D02*
X143884398Y-115389819D01*
X144655827Y-115723152D02*
X144655827Y-116389819D01*
X144398684Y-115723152D02*
X144398684Y-116246961D01*
X144398684Y-116246961D02*
X144427255Y-116342200D01*
X144427255Y-116342200D02*
X144484398Y-116389819D01*
X144484398Y-116389819D02*
X144570112Y-116389819D01*
X144570112Y-116389819D02*
X144627255Y-116342200D01*
X144627255Y-116342200D02*
X144655827Y-116294580D01*
X144855826Y-115723152D02*
X145084398Y-115723152D01*
X144941541Y-115389819D02*
X144941541Y-116246961D01*
X144941541Y-116246961D02*
X144970112Y-116342200D01*
X144970112Y-116342200D02*
X145027255Y-116389819D01*
X145027255Y-116389819D02*
X145084398Y-116389819D01*
X145284398Y-115723152D02*
X145284398Y-116723152D01*
X145284398Y-115770771D02*
X145341541Y-115723152D01*
X145341541Y-115723152D02*
X145455826Y-115723152D01*
X145455826Y-115723152D02*
X145512969Y-115770771D01*
X145512969Y-115770771D02*
X145541541Y-115818390D01*
X145541541Y-115818390D02*
X145570112Y-115913628D01*
X145570112Y-115913628D02*
X145570112Y-116199342D01*
X145570112Y-116199342D02*
X145541541Y-116294580D01*
X145541541Y-116294580D02*
X145512969Y-116342200D01*
X145512969Y-116342200D02*
X145455826Y-116389819D01*
X145455826Y-116389819D02*
X145341541Y-116389819D01*
X145341541Y-116389819D02*
X145284398Y-116342200D01*
X146084398Y-115723152D02*
X146084398Y-116389819D01*
X145827255Y-115723152D02*
X145827255Y-116246961D01*
X145827255Y-116246961D02*
X145855826Y-116342200D01*
X145855826Y-116342200D02*
X145912969Y-116389819D01*
X145912969Y-116389819D02*
X145998683Y-116389819D01*
X145998683Y-116389819D02*
X146055826Y-116342200D01*
X146055826Y-116342200D02*
X146084398Y-116294580D01*
X146284397Y-115723152D02*
X146512969Y-115723152D01*
X146370112Y-115389819D02*
X146370112Y-116246961D01*
X146370112Y-116246961D02*
X146398683Y-116342200D01*
X146398683Y-116342200D02*
X146455826Y-116389819D01*
X146455826Y-116389819D02*
X146512969Y-116389819D01*
X94755826Y-95817438D02*
X94698684Y-95769819D01*
X94698684Y-95769819D02*
X94612969Y-95769819D01*
X94612969Y-95769819D02*
X94527255Y-95817438D01*
X94527255Y-95817438D02*
X94470112Y-95912676D01*
X94470112Y-95912676D02*
X94441541Y-96007914D01*
X94441541Y-96007914D02*
X94412969Y-96198390D01*
X94412969Y-96198390D02*
X94412969Y-96341247D01*
X94412969Y-96341247D02*
X94441541Y-96531723D01*
X94441541Y-96531723D02*
X94470112Y-96626961D01*
X94470112Y-96626961D02*
X94527255Y-96722200D01*
X94527255Y-96722200D02*
X94612969Y-96769819D01*
X94612969Y-96769819D02*
X94670112Y-96769819D01*
X94670112Y-96769819D02*
X94755826Y-96722200D01*
X94755826Y-96722200D02*
X94784398Y-96674580D01*
X94784398Y-96674580D02*
X94784398Y-96341247D01*
X94784398Y-96341247D02*
X94670112Y-96341247D01*
X95041541Y-96769819D02*
X95041541Y-95769819D01*
X95041541Y-95769819D02*
X95384398Y-96769819D01*
X95384398Y-96769819D02*
X95384398Y-95769819D01*
X95670112Y-96769819D02*
X95670112Y-95769819D01*
X95670112Y-95769819D02*
X95812969Y-95769819D01*
X95812969Y-95769819D02*
X95898683Y-95817438D01*
X95898683Y-95817438D02*
X95955826Y-95912676D01*
X95955826Y-95912676D02*
X95984397Y-96007914D01*
X95984397Y-96007914D02*
X96012969Y-96198390D01*
X96012969Y-96198390D02*
X96012969Y-96341247D01*
X96012969Y-96341247D02*
X95984397Y-96531723D01*
X95984397Y-96531723D02*
X95955826Y-96626961D01*
X95955826Y-96626961D02*
X95898683Y-96722200D01*
X95898683Y-96722200D02*
X95812969Y-96769819D01*
X95812969Y-96769819D02*
X95670112Y-96769819D01*
X139164216Y-89187030D02*
X139164216Y-88901316D01*
X139449931Y-89244173D02*
X138449931Y-89044173D01*
X138449931Y-89044173D02*
X139449931Y-88844173D01*
X139449931Y-88644172D02*
X138449931Y-88644172D01*
X138449931Y-88644172D02*
X138449931Y-88501315D01*
X138449931Y-88501315D02*
X138497550Y-88415601D01*
X138497550Y-88415601D02*
X138592788Y-88358458D01*
X138592788Y-88358458D02*
X138688026Y-88329887D01*
X138688026Y-88329887D02*
X138878502Y-88301315D01*
X138878502Y-88301315D02*
X139021359Y-88301315D01*
X139021359Y-88301315D02*
X139211835Y-88329887D01*
X139211835Y-88329887D02*
X139307073Y-88358458D01*
X139307073Y-88358458D02*
X139402312Y-88415601D01*
X139402312Y-88415601D02*
X139449931Y-88501315D01*
X139449931Y-88501315D02*
X139449931Y-88644172D01*
X139354692Y-87701315D02*
X139402312Y-87729887D01*
X139402312Y-87729887D02*
X139449931Y-87815601D01*
X139449931Y-87815601D02*
X139449931Y-87872744D01*
X139449931Y-87872744D02*
X139402312Y-87958458D01*
X139402312Y-87958458D02*
X139307073Y-88015601D01*
X139307073Y-88015601D02*
X139211835Y-88044172D01*
X139211835Y-88044172D02*
X139021359Y-88072744D01*
X139021359Y-88072744D02*
X138878502Y-88072744D01*
X138878502Y-88072744D02*
X138688026Y-88044172D01*
X138688026Y-88044172D02*
X138592788Y-88015601D01*
X138592788Y-88015601D02*
X138497550Y-87958458D01*
X138497550Y-87958458D02*
X138449931Y-87872744D01*
X138449931Y-87872744D02*
X138449931Y-87815601D01*
X138449931Y-87815601D02*
X138497550Y-87729887D01*
X138497550Y-87729887D02*
X138545169Y-87701315D01*
X139545169Y-87587030D02*
X139545169Y-87129887D01*
X139354692Y-86644172D02*
X139402312Y-86672744D01*
X139402312Y-86672744D02*
X139449931Y-86758458D01*
X139449931Y-86758458D02*
X139449931Y-86815601D01*
X139449931Y-86815601D02*
X139402312Y-86901315D01*
X139402312Y-86901315D02*
X139307073Y-86958458D01*
X139307073Y-86958458D02*
X139211835Y-86987029D01*
X139211835Y-86987029D02*
X139021359Y-87015601D01*
X139021359Y-87015601D02*
X138878502Y-87015601D01*
X138878502Y-87015601D02*
X138688026Y-86987029D01*
X138688026Y-86987029D02*
X138592788Y-86958458D01*
X138592788Y-86958458D02*
X138497550Y-86901315D01*
X138497550Y-86901315D02*
X138449931Y-86815601D01*
X138449931Y-86815601D02*
X138449931Y-86758458D01*
X138449931Y-86758458D02*
X138497550Y-86672744D01*
X138497550Y-86672744D02*
X138545169Y-86644172D01*
X139449931Y-86387029D02*
X138449931Y-86387029D01*
X139449931Y-86129887D02*
X138926121Y-86129887D01*
X138926121Y-86129887D02*
X138830883Y-86158458D01*
X138830883Y-86158458D02*
X138783264Y-86215601D01*
X138783264Y-86215601D02*
X138783264Y-86301315D01*
X138783264Y-86301315D02*
X138830883Y-86358458D01*
X138830883Y-86358458D02*
X138878502Y-86387029D01*
X138449931Y-85729887D02*
X138449931Y-85672744D01*
X138449931Y-85672744D02*
X138497550Y-85615601D01*
X138497550Y-85615601D02*
X138545169Y-85587030D01*
X138545169Y-85587030D02*
X138640407Y-85558458D01*
X138640407Y-85558458D02*
X138830883Y-85529887D01*
X138830883Y-85529887D02*
X139068978Y-85529887D01*
X139068978Y-85529887D02*
X139259454Y-85558458D01*
X139259454Y-85558458D02*
X139354692Y-85587030D01*
X139354692Y-85587030D02*
X139402312Y-85615601D01*
X139402312Y-85615601D02*
X139449931Y-85672744D01*
X139449931Y-85672744D02*
X139449931Y-85729887D01*
X139449931Y-85729887D02*
X139402312Y-85787030D01*
X139402312Y-85787030D02*
X139354692Y-85815601D01*
X139354692Y-85815601D02*
X139259454Y-85844172D01*
X139259454Y-85844172D02*
X139068978Y-85872744D01*
X139068978Y-85872744D02*
X138830883Y-85872744D01*
X138830883Y-85872744D02*
X138640407Y-85844172D01*
X138640407Y-85844172D02*
X138545169Y-85815601D01*
X138545169Y-85815601D02*
X138497550Y-85787030D01*
X138497550Y-85787030D02*
X138449931Y-85729887D01*
X142384104Y-89187030D02*
X142384104Y-88901316D01*
X142669819Y-89244173D02*
X141669819Y-89044173D01*
X141669819Y-89044173D02*
X142669819Y-88844173D01*
X142669819Y-88644172D02*
X141669819Y-88644172D01*
X141669819Y-88644172D02*
X141669819Y-88501315D01*
X141669819Y-88501315D02*
X141717438Y-88415601D01*
X141717438Y-88415601D02*
X141812676Y-88358458D01*
X141812676Y-88358458D02*
X141907914Y-88329887D01*
X141907914Y-88329887D02*
X142098390Y-88301315D01*
X142098390Y-88301315D02*
X142241247Y-88301315D01*
X142241247Y-88301315D02*
X142431723Y-88329887D01*
X142431723Y-88329887D02*
X142526961Y-88358458D01*
X142526961Y-88358458D02*
X142622200Y-88415601D01*
X142622200Y-88415601D02*
X142669819Y-88501315D01*
X142669819Y-88501315D02*
X142669819Y-88644172D01*
X142574580Y-87701315D02*
X142622200Y-87729887D01*
X142622200Y-87729887D02*
X142669819Y-87815601D01*
X142669819Y-87815601D02*
X142669819Y-87872744D01*
X142669819Y-87872744D02*
X142622200Y-87958458D01*
X142622200Y-87958458D02*
X142526961Y-88015601D01*
X142526961Y-88015601D02*
X142431723Y-88044172D01*
X142431723Y-88044172D02*
X142241247Y-88072744D01*
X142241247Y-88072744D02*
X142098390Y-88072744D01*
X142098390Y-88072744D02*
X141907914Y-88044172D01*
X141907914Y-88044172D02*
X141812676Y-88015601D01*
X141812676Y-88015601D02*
X141717438Y-87958458D01*
X141717438Y-87958458D02*
X141669819Y-87872744D01*
X141669819Y-87872744D02*
X141669819Y-87815601D01*
X141669819Y-87815601D02*
X141717438Y-87729887D01*
X141717438Y-87729887D02*
X141765057Y-87701315D01*
X142765057Y-87587030D02*
X142765057Y-87129887D01*
X142574580Y-86644172D02*
X142622200Y-86672744D01*
X142622200Y-86672744D02*
X142669819Y-86758458D01*
X142669819Y-86758458D02*
X142669819Y-86815601D01*
X142669819Y-86815601D02*
X142622200Y-86901315D01*
X142622200Y-86901315D02*
X142526961Y-86958458D01*
X142526961Y-86958458D02*
X142431723Y-86987029D01*
X142431723Y-86987029D02*
X142241247Y-87015601D01*
X142241247Y-87015601D02*
X142098390Y-87015601D01*
X142098390Y-87015601D02*
X141907914Y-86987029D01*
X141907914Y-86987029D02*
X141812676Y-86958458D01*
X141812676Y-86958458D02*
X141717438Y-86901315D01*
X141717438Y-86901315D02*
X141669819Y-86815601D01*
X141669819Y-86815601D02*
X141669819Y-86758458D01*
X141669819Y-86758458D02*
X141717438Y-86672744D01*
X141717438Y-86672744D02*
X141765057Y-86644172D01*
X142669819Y-86387029D02*
X141669819Y-86387029D01*
X142146009Y-86387029D02*
X142146009Y-86044172D01*
X142669819Y-86044172D02*
X141669819Y-86044172D01*
X142669819Y-85444173D02*
X142669819Y-85787030D01*
X142669819Y-85615601D02*
X141669819Y-85615601D01*
X141669819Y-85615601D02*
X141812676Y-85672744D01*
X141812676Y-85672744D02*
X141907914Y-85729887D01*
X141907914Y-85729887D02*
X141955533Y-85787030D01*
X92312969Y-104422200D02*
X92398684Y-104469819D01*
X92398684Y-104469819D02*
X92541541Y-104469819D01*
X92541541Y-104469819D02*
X92598684Y-104422200D01*
X92598684Y-104422200D02*
X92627255Y-104374580D01*
X92627255Y-104374580D02*
X92655826Y-104279342D01*
X92655826Y-104279342D02*
X92655826Y-104184104D01*
X92655826Y-104184104D02*
X92627255Y-104088866D01*
X92627255Y-104088866D02*
X92598684Y-104041247D01*
X92598684Y-104041247D02*
X92541541Y-103993628D01*
X92541541Y-103993628D02*
X92427255Y-103946009D01*
X92427255Y-103946009D02*
X92370112Y-103898390D01*
X92370112Y-103898390D02*
X92341541Y-103850771D01*
X92341541Y-103850771D02*
X92312969Y-103755533D01*
X92312969Y-103755533D02*
X92312969Y-103660295D01*
X92312969Y-103660295D02*
X92341541Y-103565057D01*
X92341541Y-103565057D02*
X92370112Y-103517438D01*
X92370112Y-103517438D02*
X92427255Y-103469819D01*
X92427255Y-103469819D02*
X92570112Y-103469819D01*
X92570112Y-103469819D02*
X92655826Y-103517438D01*
X92912970Y-104469819D02*
X92912970Y-103469819D01*
X92912970Y-103469819D02*
X93141541Y-103469819D01*
X93141541Y-103469819D02*
X93198684Y-103517438D01*
X93198684Y-103517438D02*
X93227255Y-103565057D01*
X93227255Y-103565057D02*
X93255827Y-103660295D01*
X93255827Y-103660295D02*
X93255827Y-103803152D01*
X93255827Y-103803152D02*
X93227255Y-103898390D01*
X93227255Y-103898390D02*
X93198684Y-103946009D01*
X93198684Y-103946009D02*
X93141541Y-103993628D01*
X93141541Y-103993628D02*
X92912970Y-103993628D01*
X93512970Y-104469819D02*
X93512970Y-103469819D01*
X93655827Y-104565057D02*
X94112969Y-104565057D01*
X94255827Y-104469819D02*
X94255827Y-103469819D01*
X94255827Y-103469819D02*
X94398684Y-103469819D01*
X94398684Y-103469819D02*
X94484398Y-103517438D01*
X94484398Y-103517438D02*
X94541541Y-103612676D01*
X94541541Y-103612676D02*
X94570112Y-103707914D01*
X94570112Y-103707914D02*
X94598684Y-103898390D01*
X94598684Y-103898390D02*
X94598684Y-104041247D01*
X94598684Y-104041247D02*
X94570112Y-104231723D01*
X94570112Y-104231723D02*
X94541541Y-104326961D01*
X94541541Y-104326961D02*
X94484398Y-104422200D01*
X94484398Y-104422200D02*
X94398684Y-104469819D01*
X94398684Y-104469819D02*
X94255827Y-104469819D01*
X94970112Y-103469819D02*
X95084398Y-103469819D01*
X95084398Y-103469819D02*
X95141541Y-103517438D01*
X95141541Y-103517438D02*
X95198684Y-103612676D01*
X95198684Y-103612676D02*
X95227255Y-103803152D01*
X95227255Y-103803152D02*
X95227255Y-104136485D01*
X95227255Y-104136485D02*
X95198684Y-104326961D01*
X95198684Y-104326961D02*
X95141541Y-104422200D01*
X95141541Y-104422200D02*
X95084398Y-104469819D01*
X95084398Y-104469819D02*
X94970112Y-104469819D01*
X94970112Y-104469819D02*
X94912970Y-104422200D01*
X94912970Y-104422200D02*
X94855827Y-104326961D01*
X94855827Y-104326961D02*
X94827255Y-104136485D01*
X94827255Y-104136485D02*
X94827255Y-103803152D01*
X94827255Y-103803152D02*
X94855827Y-103612676D01*
X94855827Y-103612676D02*
X94912970Y-103517438D01*
X94912970Y-103517438D02*
X94970112Y-103469819D01*
X95484398Y-103469819D02*
X95484398Y-104279342D01*
X95484398Y-104279342D02*
X95512969Y-104374580D01*
X95512969Y-104374580D02*
X95541541Y-104422200D01*
X95541541Y-104422200D02*
X95598683Y-104469819D01*
X95598683Y-104469819D02*
X95712969Y-104469819D01*
X95712969Y-104469819D02*
X95770112Y-104422200D01*
X95770112Y-104422200D02*
X95798683Y-104374580D01*
X95798683Y-104374580D02*
X95827255Y-104279342D01*
X95827255Y-104279342D02*
X95827255Y-103469819D01*
X96027254Y-103469819D02*
X96370112Y-103469819D01*
X96198683Y-104469819D02*
X96198683Y-103469819D01*
X94741541Y-88546009D02*
X94941541Y-88546009D01*
X95027255Y-89069819D02*
X94741541Y-89069819D01*
X94741541Y-89069819D02*
X94741541Y-88069819D01*
X94741541Y-88069819D02*
X95027255Y-88069819D01*
X95284398Y-88688866D02*
X95741541Y-88688866D01*
X93112969Y-101822200D02*
X93198684Y-101869819D01*
X93198684Y-101869819D02*
X93341541Y-101869819D01*
X93341541Y-101869819D02*
X93398684Y-101822200D01*
X93398684Y-101822200D02*
X93427255Y-101774580D01*
X93427255Y-101774580D02*
X93455826Y-101679342D01*
X93455826Y-101679342D02*
X93455826Y-101584104D01*
X93455826Y-101584104D02*
X93427255Y-101488866D01*
X93427255Y-101488866D02*
X93398684Y-101441247D01*
X93398684Y-101441247D02*
X93341541Y-101393628D01*
X93341541Y-101393628D02*
X93227255Y-101346009D01*
X93227255Y-101346009D02*
X93170112Y-101298390D01*
X93170112Y-101298390D02*
X93141541Y-101250771D01*
X93141541Y-101250771D02*
X93112969Y-101155533D01*
X93112969Y-101155533D02*
X93112969Y-101060295D01*
X93112969Y-101060295D02*
X93141541Y-100965057D01*
X93141541Y-100965057D02*
X93170112Y-100917438D01*
X93170112Y-100917438D02*
X93227255Y-100869819D01*
X93227255Y-100869819D02*
X93370112Y-100869819D01*
X93370112Y-100869819D02*
X93455826Y-100917438D01*
X93712970Y-101869819D02*
X93712970Y-100869819D01*
X93712970Y-100869819D02*
X93941541Y-100869819D01*
X93941541Y-100869819D02*
X93998684Y-100917438D01*
X93998684Y-100917438D02*
X94027255Y-100965057D01*
X94027255Y-100965057D02*
X94055827Y-101060295D01*
X94055827Y-101060295D02*
X94055827Y-101203152D01*
X94055827Y-101203152D02*
X94027255Y-101298390D01*
X94027255Y-101298390D02*
X93998684Y-101346009D01*
X93998684Y-101346009D02*
X93941541Y-101393628D01*
X93941541Y-101393628D02*
X93712970Y-101393628D01*
X94312970Y-101869819D02*
X94312970Y-100869819D01*
X94455827Y-101965057D02*
X94912969Y-101965057D01*
X95055827Y-101869819D02*
X95055827Y-100869819D01*
X95055827Y-100869819D02*
X95198684Y-100869819D01*
X95198684Y-100869819D02*
X95284398Y-100917438D01*
X95284398Y-100917438D02*
X95341541Y-101012676D01*
X95341541Y-101012676D02*
X95370112Y-101107914D01*
X95370112Y-101107914D02*
X95398684Y-101298390D01*
X95398684Y-101298390D02*
X95398684Y-101441247D01*
X95398684Y-101441247D02*
X95370112Y-101631723D01*
X95370112Y-101631723D02*
X95341541Y-101726961D01*
X95341541Y-101726961D02*
X95284398Y-101822200D01*
X95284398Y-101822200D02*
X95198684Y-101869819D01*
X95198684Y-101869819D02*
X95055827Y-101869819D01*
X95655827Y-101869819D02*
X95655827Y-100869819D01*
X95941541Y-101869819D02*
X95941541Y-100869819D01*
X95941541Y-100869819D02*
X96284398Y-101869819D01*
X96284398Y-101869819D02*
X96284398Y-100869819D01*
X92912969Y-99122200D02*
X92998684Y-99169819D01*
X92998684Y-99169819D02*
X93141541Y-99169819D01*
X93141541Y-99169819D02*
X93198684Y-99122200D01*
X93198684Y-99122200D02*
X93227255Y-99074580D01*
X93227255Y-99074580D02*
X93255826Y-98979342D01*
X93255826Y-98979342D02*
X93255826Y-98884104D01*
X93255826Y-98884104D02*
X93227255Y-98788866D01*
X93227255Y-98788866D02*
X93198684Y-98741247D01*
X93198684Y-98741247D02*
X93141541Y-98693628D01*
X93141541Y-98693628D02*
X93027255Y-98646009D01*
X93027255Y-98646009D02*
X92970112Y-98598390D01*
X92970112Y-98598390D02*
X92941541Y-98550771D01*
X92941541Y-98550771D02*
X92912969Y-98455533D01*
X92912969Y-98455533D02*
X92912969Y-98360295D01*
X92912969Y-98360295D02*
X92941541Y-98265057D01*
X92941541Y-98265057D02*
X92970112Y-98217438D01*
X92970112Y-98217438D02*
X93027255Y-98169819D01*
X93027255Y-98169819D02*
X93170112Y-98169819D01*
X93170112Y-98169819D02*
X93255826Y-98217438D01*
X93512970Y-99169819D02*
X93512970Y-98169819D01*
X93512970Y-98169819D02*
X93741541Y-98169819D01*
X93741541Y-98169819D02*
X93798684Y-98217438D01*
X93798684Y-98217438D02*
X93827255Y-98265057D01*
X93827255Y-98265057D02*
X93855827Y-98360295D01*
X93855827Y-98360295D02*
X93855827Y-98503152D01*
X93855827Y-98503152D02*
X93827255Y-98598390D01*
X93827255Y-98598390D02*
X93798684Y-98646009D01*
X93798684Y-98646009D02*
X93741541Y-98693628D01*
X93741541Y-98693628D02*
X93512970Y-98693628D01*
X94112970Y-99169819D02*
X94112970Y-98169819D01*
X94255827Y-99265057D02*
X94712969Y-99265057D01*
X95198684Y-99074580D02*
X95170112Y-99122200D01*
X95170112Y-99122200D02*
X95084398Y-99169819D01*
X95084398Y-99169819D02*
X95027255Y-99169819D01*
X95027255Y-99169819D02*
X94941541Y-99122200D01*
X94941541Y-99122200D02*
X94884398Y-99026961D01*
X94884398Y-99026961D02*
X94855827Y-98931723D01*
X94855827Y-98931723D02*
X94827255Y-98741247D01*
X94827255Y-98741247D02*
X94827255Y-98598390D01*
X94827255Y-98598390D02*
X94855827Y-98407914D01*
X94855827Y-98407914D02*
X94884398Y-98312676D01*
X94884398Y-98312676D02*
X94941541Y-98217438D01*
X94941541Y-98217438D02*
X95027255Y-98169819D01*
X95027255Y-98169819D02*
X95084398Y-98169819D01*
X95084398Y-98169819D02*
X95170112Y-98217438D01*
X95170112Y-98217438D02*
X95198684Y-98265057D01*
X95741541Y-99169819D02*
X95455827Y-99169819D01*
X95455827Y-99169819D02*
X95455827Y-98169819D01*
X95941541Y-99169819D02*
X95941541Y-98169819D01*
X96284398Y-99169819D02*
X96027255Y-98598390D01*
X96284398Y-98169819D02*
X95941541Y-98741247D01*
X93012969Y-107022200D02*
X93098684Y-107069819D01*
X93098684Y-107069819D02*
X93241541Y-107069819D01*
X93241541Y-107069819D02*
X93298684Y-107022200D01*
X93298684Y-107022200D02*
X93327255Y-106974580D01*
X93327255Y-106974580D02*
X93355826Y-106879342D01*
X93355826Y-106879342D02*
X93355826Y-106784104D01*
X93355826Y-106784104D02*
X93327255Y-106688866D01*
X93327255Y-106688866D02*
X93298684Y-106641247D01*
X93298684Y-106641247D02*
X93241541Y-106593628D01*
X93241541Y-106593628D02*
X93127255Y-106546009D01*
X93127255Y-106546009D02*
X93070112Y-106498390D01*
X93070112Y-106498390D02*
X93041541Y-106450771D01*
X93041541Y-106450771D02*
X93012969Y-106355533D01*
X93012969Y-106355533D02*
X93012969Y-106260295D01*
X93012969Y-106260295D02*
X93041541Y-106165057D01*
X93041541Y-106165057D02*
X93070112Y-106117438D01*
X93070112Y-106117438D02*
X93127255Y-106069819D01*
X93127255Y-106069819D02*
X93270112Y-106069819D01*
X93270112Y-106069819D02*
X93355826Y-106117438D01*
X93612970Y-107069819D02*
X93612970Y-106069819D01*
X93612970Y-106069819D02*
X93841541Y-106069819D01*
X93841541Y-106069819D02*
X93898684Y-106117438D01*
X93898684Y-106117438D02*
X93927255Y-106165057D01*
X93927255Y-106165057D02*
X93955827Y-106260295D01*
X93955827Y-106260295D02*
X93955827Y-106403152D01*
X93955827Y-106403152D02*
X93927255Y-106498390D01*
X93927255Y-106498390D02*
X93898684Y-106546009D01*
X93898684Y-106546009D02*
X93841541Y-106593628D01*
X93841541Y-106593628D02*
X93612970Y-106593628D01*
X94212970Y-107069819D02*
X94212970Y-106069819D01*
X94355827Y-107165057D02*
X94812969Y-107165057D01*
X95298684Y-106974580D02*
X95270112Y-107022200D01*
X95270112Y-107022200D02*
X95184398Y-107069819D01*
X95184398Y-107069819D02*
X95127255Y-107069819D01*
X95127255Y-107069819D02*
X95041541Y-107022200D01*
X95041541Y-107022200D02*
X94984398Y-106926961D01*
X94984398Y-106926961D02*
X94955827Y-106831723D01*
X94955827Y-106831723D02*
X94927255Y-106641247D01*
X94927255Y-106641247D02*
X94927255Y-106498390D01*
X94927255Y-106498390D02*
X94955827Y-106307914D01*
X94955827Y-106307914D02*
X94984398Y-106212676D01*
X94984398Y-106212676D02*
X95041541Y-106117438D01*
X95041541Y-106117438D02*
X95127255Y-106069819D01*
X95127255Y-106069819D02*
X95184398Y-106069819D01*
X95184398Y-106069819D02*
X95270112Y-106117438D01*
X95270112Y-106117438D02*
X95298684Y-106165057D01*
X95527255Y-107022200D02*
X95612970Y-107069819D01*
X95612970Y-107069819D02*
X95755827Y-107069819D01*
X95755827Y-107069819D02*
X95812970Y-107022200D01*
X95812970Y-107022200D02*
X95841541Y-106974580D01*
X95841541Y-106974580D02*
X95870112Y-106879342D01*
X95870112Y-106879342D02*
X95870112Y-106784104D01*
X95870112Y-106784104D02*
X95841541Y-106688866D01*
X95841541Y-106688866D02*
X95812970Y-106641247D01*
X95812970Y-106641247D02*
X95755827Y-106593628D01*
X95755827Y-106593628D02*
X95641541Y-106546009D01*
X95641541Y-106546009D02*
X95584398Y-106498390D01*
X95584398Y-106498390D02*
X95555827Y-106450771D01*
X95555827Y-106450771D02*
X95527255Y-106355533D01*
X95527255Y-106355533D02*
X95527255Y-106260295D01*
X95527255Y-106260295D02*
X95555827Y-106165057D01*
X95555827Y-106165057D02*
X95584398Y-106117438D01*
X95584398Y-106117438D02*
X95641541Y-106069819D01*
X95641541Y-106069819D02*
X95784398Y-106069819D01*
X95784398Y-106069819D02*
X95870112Y-106117438D01*
X98541541Y-115736065D02*
X98741541Y-115736065D01*
X98827255Y-116259875D02*
X98541541Y-116259875D01*
X98541541Y-116259875D02*
X98541541Y-115259875D01*
X98541541Y-115259875D02*
X98827255Y-115259875D01*
X99084398Y-116259875D02*
X99084398Y-115259875D01*
X99084398Y-115259875D02*
X99284398Y-115974160D01*
X99284398Y-115974160D02*
X99484398Y-115259875D01*
X99484398Y-115259875D02*
X99484398Y-116259875D01*
X100084397Y-115307494D02*
X100027255Y-115259875D01*
X100027255Y-115259875D02*
X99941540Y-115259875D01*
X99941540Y-115259875D02*
X99855826Y-115307494D01*
X99855826Y-115307494D02*
X99798683Y-115402732D01*
X99798683Y-115402732D02*
X99770112Y-115497970D01*
X99770112Y-115497970D02*
X99741540Y-115688446D01*
X99741540Y-115688446D02*
X99741540Y-115831303D01*
X99741540Y-115831303D02*
X99770112Y-116021779D01*
X99770112Y-116021779D02*
X99798683Y-116117017D01*
X99798683Y-116117017D02*
X99855826Y-116212256D01*
X99855826Y-116212256D02*
X99941540Y-116259875D01*
X99941540Y-116259875D02*
X99998683Y-116259875D01*
X99998683Y-116259875D02*
X100084397Y-116212256D01*
X100084397Y-116212256D02*
X100112969Y-116164636D01*
X100112969Y-116164636D02*
X100112969Y-115831303D01*
X100112969Y-115831303D02*
X99998683Y-115831303D01*
X101027255Y-115736065D02*
X101112969Y-115783684D01*
X101112969Y-115783684D02*
X101141540Y-115831303D01*
X101141540Y-115831303D02*
X101170112Y-115926541D01*
X101170112Y-115926541D02*
X101170112Y-116069398D01*
X101170112Y-116069398D02*
X101141540Y-116164636D01*
X101141540Y-116164636D02*
X101112969Y-116212256D01*
X101112969Y-116212256D02*
X101055826Y-116259875D01*
X101055826Y-116259875D02*
X100827255Y-116259875D01*
X100827255Y-116259875D02*
X100827255Y-115259875D01*
X100827255Y-115259875D02*
X101027255Y-115259875D01*
X101027255Y-115259875D02*
X101084398Y-115307494D01*
X101084398Y-115307494D02*
X101112969Y-115355113D01*
X101112969Y-115355113D02*
X101141540Y-115450351D01*
X101141540Y-115450351D02*
X101141540Y-115545589D01*
X101141540Y-115545589D02*
X101112969Y-115640827D01*
X101112969Y-115640827D02*
X101084398Y-115688446D01*
X101084398Y-115688446D02*
X101027255Y-115736065D01*
X101027255Y-115736065D02*
X100827255Y-115736065D01*
X101770112Y-116164636D02*
X101741540Y-116212256D01*
X101741540Y-116212256D02*
X101655826Y-116259875D01*
X101655826Y-116259875D02*
X101598683Y-116259875D01*
X101598683Y-116259875D02*
X101512969Y-116212256D01*
X101512969Y-116212256D02*
X101455826Y-116117017D01*
X101455826Y-116117017D02*
X101427255Y-116021779D01*
X101427255Y-116021779D02*
X101398683Y-115831303D01*
X101398683Y-115831303D02*
X101398683Y-115688446D01*
X101398683Y-115688446D02*
X101427255Y-115497970D01*
X101427255Y-115497970D02*
X101455826Y-115402732D01*
X101455826Y-115402732D02*
X101512969Y-115307494D01*
X101512969Y-115307494D02*
X101598683Y-115259875D01*
X101598683Y-115259875D02*
X101655826Y-115259875D01*
X101655826Y-115259875D02*
X101741540Y-115307494D01*
X101741540Y-115307494D02*
X101770112Y-115355113D01*
X102027255Y-116259875D02*
X102027255Y-115259875D01*
X102741540Y-115974160D02*
X103027255Y-115974160D01*
X102684397Y-116259875D02*
X102884397Y-115259875D01*
X102884397Y-115259875D02*
X103084397Y-116259875D01*
X103284398Y-116259875D02*
X103284398Y-115593208D01*
X103284398Y-115688446D02*
X103312969Y-115640827D01*
X103312969Y-115640827D02*
X103370112Y-115593208D01*
X103370112Y-115593208D02*
X103455826Y-115593208D01*
X103455826Y-115593208D02*
X103512969Y-115640827D01*
X103512969Y-115640827D02*
X103541541Y-115736065D01*
X103541541Y-115736065D02*
X103541541Y-116259875D01*
X103541541Y-115736065D02*
X103570112Y-115640827D01*
X103570112Y-115640827D02*
X103627255Y-115593208D01*
X103627255Y-115593208D02*
X103712969Y-115593208D01*
X103712969Y-115593208D02*
X103770112Y-115640827D01*
X103770112Y-115640827D02*
X103798683Y-115736065D01*
X103798683Y-115736065D02*
X103798683Y-116259875D01*
X104084398Y-115593208D02*
X104084398Y-116593208D01*
X104084398Y-115640827D02*
X104141541Y-115593208D01*
X104141541Y-115593208D02*
X104255826Y-115593208D01*
X104255826Y-115593208D02*
X104312969Y-115640827D01*
X104312969Y-115640827D02*
X104341541Y-115688446D01*
X104341541Y-115688446D02*
X104370112Y-115783684D01*
X104370112Y-115783684D02*
X104370112Y-116069398D01*
X104370112Y-116069398D02*
X104341541Y-116164636D01*
X104341541Y-116164636D02*
X104312969Y-116212256D01*
X104312969Y-116212256D02*
X104255826Y-116259875D01*
X104255826Y-116259875D02*
X104141541Y-116259875D01*
X104141541Y-116259875D02*
X104084398Y-116212256D01*
X104712969Y-116259875D02*
X104655826Y-116212256D01*
X104655826Y-116212256D02*
X104627255Y-116117017D01*
X104627255Y-116117017D02*
X104627255Y-115259875D01*
X104941541Y-116259875D02*
X104941541Y-115593208D01*
X104941541Y-115259875D02*
X104912969Y-115307494D01*
X104912969Y-115307494D02*
X104941541Y-115355113D01*
X104941541Y-115355113D02*
X104970112Y-115307494D01*
X104970112Y-115307494D02*
X104941541Y-115259875D01*
X104941541Y-115259875D02*
X104941541Y-115355113D01*
X105141540Y-115593208D02*
X105370112Y-115593208D01*
X105227255Y-116259875D02*
X105227255Y-115402732D01*
X105227255Y-115402732D02*
X105255826Y-115307494D01*
X105255826Y-115307494D02*
X105312969Y-115259875D01*
X105312969Y-115259875D02*
X105370112Y-115259875D01*
X105570112Y-116259875D02*
X105570112Y-115593208D01*
X105570112Y-115259875D02*
X105541540Y-115307494D01*
X105541540Y-115307494D02*
X105570112Y-115355113D01*
X105570112Y-115355113D02*
X105598683Y-115307494D01*
X105598683Y-115307494D02*
X105570112Y-115259875D01*
X105570112Y-115259875D02*
X105570112Y-115355113D01*
X106084397Y-116212256D02*
X106027254Y-116259875D01*
X106027254Y-116259875D02*
X105912969Y-116259875D01*
X105912969Y-116259875D02*
X105855826Y-116212256D01*
X105855826Y-116212256D02*
X105827254Y-116117017D01*
X105827254Y-116117017D02*
X105827254Y-115736065D01*
X105827254Y-115736065D02*
X105855826Y-115640827D01*
X105855826Y-115640827D02*
X105912969Y-115593208D01*
X105912969Y-115593208D02*
X106027254Y-115593208D01*
X106027254Y-115593208D02*
X106084397Y-115640827D01*
X106084397Y-115640827D02*
X106112969Y-115736065D01*
X106112969Y-115736065D02*
X106112969Y-115831303D01*
X106112969Y-115831303D02*
X105827254Y-115926541D01*
X106370112Y-116259875D02*
X106370112Y-115593208D01*
X106370112Y-115783684D02*
X106398683Y-115688446D01*
X106398683Y-115688446D02*
X106427255Y-115640827D01*
X106427255Y-115640827D02*
X106484397Y-115593208D01*
X106484397Y-115593208D02*
X106541540Y-115593208D01*
X98884398Y-117869819D02*
X98684398Y-117393628D01*
X98541541Y-117869819D02*
X98541541Y-116869819D01*
X98541541Y-116869819D02*
X98770112Y-116869819D01*
X98770112Y-116869819D02*
X98827255Y-116917438D01*
X98827255Y-116917438D02*
X98855826Y-116965057D01*
X98855826Y-116965057D02*
X98884398Y-117060295D01*
X98884398Y-117060295D02*
X98884398Y-117203152D01*
X98884398Y-117203152D02*
X98855826Y-117298390D01*
X98855826Y-117298390D02*
X98827255Y-117346009D01*
X98827255Y-117346009D02*
X98770112Y-117393628D01*
X98770112Y-117393628D02*
X98541541Y-117393628D01*
X99370112Y-117822200D02*
X99312969Y-117869819D01*
X99312969Y-117869819D02*
X99198684Y-117869819D01*
X99198684Y-117869819D02*
X99141541Y-117822200D01*
X99141541Y-117822200D02*
X99112969Y-117726961D01*
X99112969Y-117726961D02*
X99112969Y-117346009D01*
X99112969Y-117346009D02*
X99141541Y-117250771D01*
X99141541Y-117250771D02*
X99198684Y-117203152D01*
X99198684Y-117203152D02*
X99312969Y-117203152D01*
X99312969Y-117203152D02*
X99370112Y-117250771D01*
X99370112Y-117250771D02*
X99398684Y-117346009D01*
X99398684Y-117346009D02*
X99398684Y-117441247D01*
X99398684Y-117441247D02*
X99112969Y-117536485D01*
X99598684Y-117203152D02*
X99741541Y-117869819D01*
X99741541Y-117869819D02*
X99884398Y-117203152D01*
X100884398Y-117869819D02*
X100541541Y-117869819D01*
X100712970Y-117869819D02*
X100712970Y-116869819D01*
X100712970Y-116869819D02*
X100655827Y-117012676D01*
X100655827Y-117012676D02*
X100598684Y-117107914D01*
X100598684Y-117107914D02*
X100541541Y-117155533D01*
X101141542Y-117774580D02*
X101170113Y-117822200D01*
X101170113Y-117822200D02*
X101141542Y-117869819D01*
X101141542Y-117869819D02*
X101112970Y-117822200D01*
X101112970Y-117822200D02*
X101141542Y-117774580D01*
X101141542Y-117774580D02*
X101141542Y-117869819D01*
X101541541Y-116869819D02*
X101598684Y-116869819D01*
X101598684Y-116869819D02*
X101655827Y-116917438D01*
X101655827Y-116917438D02*
X101684399Y-116965057D01*
X101684399Y-116965057D02*
X101712970Y-117060295D01*
X101712970Y-117060295D02*
X101741541Y-117250771D01*
X101741541Y-117250771D02*
X101741541Y-117488866D01*
X101741541Y-117488866D02*
X101712970Y-117679342D01*
X101712970Y-117679342D02*
X101684399Y-117774580D01*
X101684399Y-117774580D02*
X101655827Y-117822200D01*
X101655827Y-117822200D02*
X101598684Y-117869819D01*
X101598684Y-117869819D02*
X101541541Y-117869819D01*
X101541541Y-117869819D02*
X101484399Y-117822200D01*
X101484399Y-117822200D02*
X101455827Y-117774580D01*
X101455827Y-117774580D02*
X101427256Y-117679342D01*
X101427256Y-117679342D02*
X101398684Y-117488866D01*
X101398684Y-117488866D02*
X101398684Y-117250771D01*
X101398684Y-117250771D02*
X101427256Y-117060295D01*
X101427256Y-117060295D02*
X101455827Y-116965057D01*
X101455827Y-116965057D02*
X101484399Y-116917438D01*
X101484399Y-116917438D02*
X101541541Y-116869819D01*
X101998685Y-117774580D02*
X102027256Y-117822200D01*
X102027256Y-117822200D02*
X101998685Y-117869819D01*
X101998685Y-117869819D02*
X101970113Y-117822200D01*
X101970113Y-117822200D02*
X101998685Y-117774580D01*
X101998685Y-117774580D02*
X101998685Y-117869819D01*
X101998685Y-117250771D02*
X102027256Y-117298390D01*
X102027256Y-117298390D02*
X101998685Y-117346009D01*
X101998685Y-117346009D02*
X101970113Y-117298390D01*
X101970113Y-117298390D02*
X101998685Y-117250771D01*
X101998685Y-117250771D02*
X101998685Y-117346009D01*
X102684399Y-116869819D02*
X102827256Y-117869819D01*
X102827256Y-117869819D02*
X102941542Y-117155533D01*
X102941542Y-117155533D02*
X103055827Y-117869819D01*
X103055827Y-117869819D02*
X103198685Y-116869819D01*
X103427256Y-117869819D02*
X103427256Y-117203152D01*
X103427256Y-116869819D02*
X103398684Y-116917438D01*
X103398684Y-116917438D02*
X103427256Y-116965057D01*
X103427256Y-116965057D02*
X103455827Y-116917438D01*
X103455827Y-116917438D02*
X103427256Y-116869819D01*
X103427256Y-116869819D02*
X103427256Y-116965057D01*
X103798684Y-117869819D02*
X103741541Y-117822200D01*
X103741541Y-117822200D02*
X103712970Y-117726961D01*
X103712970Y-117726961D02*
X103712970Y-116869819D01*
X104112970Y-117869819D02*
X104055827Y-117822200D01*
X104055827Y-117822200D02*
X104027256Y-117726961D01*
X104027256Y-117726961D02*
X104027256Y-116869819D01*
X104341542Y-117869819D02*
X104341542Y-117203152D01*
X104341542Y-116869819D02*
X104312970Y-116917438D01*
X104312970Y-116917438D02*
X104341542Y-116965057D01*
X104341542Y-116965057D02*
X104370113Y-116917438D01*
X104370113Y-116917438D02*
X104341542Y-116869819D01*
X104341542Y-116869819D02*
X104341542Y-116965057D01*
X104855827Y-117822200D02*
X104798684Y-117869819D01*
X104798684Y-117869819D02*
X104684399Y-117869819D01*
X104684399Y-117869819D02*
X104627256Y-117822200D01*
X104627256Y-117822200D02*
X104598684Y-117726961D01*
X104598684Y-117726961D02*
X104598684Y-117346009D01*
X104598684Y-117346009D02*
X104627256Y-117250771D01*
X104627256Y-117250771D02*
X104684399Y-117203152D01*
X104684399Y-117203152D02*
X104798684Y-117203152D01*
X104798684Y-117203152D02*
X104855827Y-117250771D01*
X104855827Y-117250771D02*
X104884399Y-117346009D01*
X104884399Y-117346009D02*
X104884399Y-117441247D01*
X104884399Y-117441247D02*
X104598684Y-117536485D01*
X105141542Y-117869819D02*
X105141542Y-117203152D01*
X105141542Y-117298390D02*
X105170113Y-117250771D01*
X105170113Y-117250771D02*
X105227256Y-117203152D01*
X105227256Y-117203152D02*
X105312970Y-117203152D01*
X105312970Y-117203152D02*
X105370113Y-117250771D01*
X105370113Y-117250771D02*
X105398685Y-117346009D01*
X105398685Y-117346009D02*
X105398685Y-117869819D01*
X105398685Y-117346009D02*
X105427256Y-117250771D01*
X105427256Y-117250771D02*
X105484399Y-117203152D01*
X105484399Y-117203152D02*
X105570113Y-117203152D01*
X105570113Y-117203152D02*
X105627256Y-117250771D01*
X105627256Y-117250771D02*
X105655827Y-117346009D01*
X105655827Y-117346009D02*
X105655827Y-117869819D01*
X106370113Y-117584104D02*
X106655828Y-117584104D01*
X106312970Y-117869819D02*
X106512970Y-116869819D01*
X106512970Y-116869819D02*
X106712970Y-117869819D01*
X107170114Y-117203152D02*
X107170114Y-118012676D01*
X107170114Y-118012676D02*
X107141542Y-118107914D01*
X107141542Y-118107914D02*
X107112971Y-118155533D01*
X107112971Y-118155533D02*
X107055828Y-118203152D01*
X107055828Y-118203152D02*
X106970114Y-118203152D01*
X106970114Y-118203152D02*
X106912971Y-118155533D01*
X107170114Y-117822200D02*
X107112971Y-117869819D01*
X107112971Y-117869819D02*
X106998685Y-117869819D01*
X106998685Y-117869819D02*
X106941542Y-117822200D01*
X106941542Y-117822200D02*
X106912971Y-117774580D01*
X106912971Y-117774580D02*
X106884399Y-117679342D01*
X106884399Y-117679342D02*
X106884399Y-117393628D01*
X106884399Y-117393628D02*
X106912971Y-117298390D01*
X106912971Y-117298390D02*
X106941542Y-117250771D01*
X106941542Y-117250771D02*
X106998685Y-117203152D01*
X106998685Y-117203152D02*
X107112971Y-117203152D01*
X107112971Y-117203152D02*
X107170114Y-117250771D01*
X107455828Y-117203152D02*
X107455828Y-117869819D01*
X107455828Y-117298390D02*
X107484399Y-117250771D01*
X107484399Y-117250771D02*
X107541542Y-117203152D01*
X107541542Y-117203152D02*
X107627256Y-117203152D01*
X107627256Y-117203152D02*
X107684399Y-117250771D01*
X107684399Y-117250771D02*
X107712971Y-117346009D01*
X107712971Y-117346009D02*
X107712971Y-117869819D01*
X107998685Y-117869819D02*
X107998685Y-117203152D01*
X107998685Y-116869819D02*
X107970113Y-116917438D01*
X107970113Y-116917438D02*
X107998685Y-116965057D01*
X107998685Y-116965057D02*
X108027256Y-116917438D01*
X108027256Y-116917438D02*
X107998685Y-116869819D01*
X107998685Y-116869819D02*
X107998685Y-116965057D01*
X108284399Y-117869819D02*
X108284399Y-116869819D01*
X108541542Y-117869819D02*
X108541542Y-117346009D01*
X108541542Y-117346009D02*
X108512970Y-117250771D01*
X108512970Y-117250771D02*
X108455827Y-117203152D01*
X108455827Y-117203152D02*
X108370113Y-117203152D01*
X108370113Y-117203152D02*
X108312970Y-117250771D01*
X108312970Y-117250771D02*
X108284399Y-117298390D01*
X108912970Y-117869819D02*
X108855827Y-117822200D01*
X108855827Y-117822200D02*
X108827256Y-117774580D01*
X108827256Y-117774580D02*
X108798684Y-117679342D01*
X108798684Y-117679342D02*
X108798684Y-117393628D01*
X108798684Y-117393628D02*
X108827256Y-117298390D01*
X108827256Y-117298390D02*
X108855827Y-117250771D01*
X108855827Y-117250771D02*
X108912970Y-117203152D01*
X108912970Y-117203152D02*
X108998684Y-117203152D01*
X108998684Y-117203152D02*
X109055827Y-117250771D01*
X109055827Y-117250771D02*
X109084399Y-117298390D01*
X109084399Y-117298390D02*
X109112970Y-117393628D01*
X109112970Y-117393628D02*
X109112970Y-117679342D01*
X109112970Y-117679342D02*
X109084399Y-117774580D01*
X109084399Y-117774580D02*
X109055827Y-117822200D01*
X109055827Y-117822200D02*
X108998684Y-117869819D01*
X108998684Y-117869819D02*
X108912970Y-117869819D01*
X109284398Y-117203152D02*
X109512970Y-117203152D01*
X109370113Y-116869819D02*
X109370113Y-117726961D01*
X109370113Y-117726961D02*
X109398684Y-117822200D01*
X109398684Y-117822200D02*
X109455827Y-117869819D01*
X109455827Y-117869819D02*
X109512970Y-117869819D01*
X109712970Y-117869819D02*
X109712970Y-117203152D01*
X109712970Y-117393628D02*
X109741541Y-117298390D01*
X109741541Y-117298390D02*
X109770113Y-117250771D01*
X109770113Y-117250771D02*
X109827255Y-117203152D01*
X109827255Y-117203152D02*
X109884398Y-117203152D01*
X110084399Y-117869819D02*
X110084399Y-117203152D01*
X110084399Y-116869819D02*
X110055827Y-116917438D01*
X110055827Y-116917438D02*
X110084399Y-116965057D01*
X110084399Y-116965057D02*
X110112970Y-116917438D01*
X110112970Y-116917438D02*
X110084399Y-116869819D01*
X110084399Y-116869819D02*
X110084399Y-116965057D01*
X94541541Y-91246009D02*
X94741541Y-91246009D01*
X94827255Y-91769819D02*
X94541541Y-91769819D01*
X94541541Y-91769819D02*
X94541541Y-90769819D01*
X94541541Y-90769819D02*
X94827255Y-90769819D01*
X95084398Y-91388866D02*
X95541541Y-91388866D01*
X95312969Y-91769819D02*
X95312969Y-91007914D01*
X122592856Y-98724819D02*
X122935714Y-98724819D01*
X122764285Y-99724819D02*
X122764285Y-98724819D01*
X123135714Y-99724819D02*
X123135714Y-98724819D01*
X123135714Y-98724819D02*
X123364285Y-98724819D01*
X123364285Y-98724819D02*
X123421428Y-98772438D01*
X123421428Y-98772438D02*
X123449999Y-98820057D01*
X123449999Y-98820057D02*
X123478571Y-98915295D01*
X123478571Y-98915295D02*
X123478571Y-99058152D01*
X123478571Y-99058152D02*
X123449999Y-99153390D01*
X123449999Y-99153390D02*
X123421428Y-99201009D01*
X123421428Y-99201009D02*
X123364285Y-99248628D01*
X123364285Y-99248628D02*
X123135714Y-99248628D01*
X123821428Y-99153390D02*
X123764285Y-99105771D01*
X123764285Y-99105771D02*
X123735714Y-99058152D01*
X123735714Y-99058152D02*
X123707142Y-98962914D01*
X123707142Y-98962914D02*
X123707142Y-98915295D01*
X123707142Y-98915295D02*
X123735714Y-98820057D01*
X123735714Y-98820057D02*
X123764285Y-98772438D01*
X123764285Y-98772438D02*
X123821428Y-98724819D01*
X123821428Y-98724819D02*
X123935714Y-98724819D01*
X123935714Y-98724819D02*
X123992857Y-98772438D01*
X123992857Y-98772438D02*
X124021428Y-98820057D01*
X124021428Y-98820057D02*
X124049999Y-98915295D01*
X124049999Y-98915295D02*
X124049999Y-98962914D01*
X124049999Y-98962914D02*
X124021428Y-99058152D01*
X124021428Y-99058152D02*
X123992857Y-99105771D01*
X123992857Y-99105771D02*
X123935714Y-99153390D01*
X123935714Y-99153390D02*
X123821428Y-99153390D01*
X123821428Y-99153390D02*
X123764285Y-99201009D01*
X123764285Y-99201009D02*
X123735714Y-99248628D01*
X123735714Y-99248628D02*
X123707142Y-99343866D01*
X123707142Y-99343866D02*
X123707142Y-99534342D01*
X123707142Y-99534342D02*
X123735714Y-99629580D01*
X123735714Y-99629580D02*
X123764285Y-99677200D01*
X123764285Y-99677200D02*
X123821428Y-99724819D01*
X123821428Y-99724819D02*
X123935714Y-99724819D01*
X123935714Y-99724819D02*
X123992857Y-99677200D01*
X123992857Y-99677200D02*
X124021428Y-99629580D01*
X124021428Y-99629580D02*
X124049999Y-99534342D01*
X124049999Y-99534342D02*
X124049999Y-99343866D01*
X124049999Y-99343866D02*
X124021428Y-99248628D01*
X124021428Y-99248628D02*
X123992857Y-99201009D01*
X123992857Y-99201009D02*
X123935714Y-99153390D01*
X147700000Y-105454819D02*
X147500000Y-104978628D01*
X147357143Y-105454819D02*
X147357143Y-104454819D01*
X147357143Y-104454819D02*
X147585714Y-104454819D01*
X147585714Y-104454819D02*
X147642857Y-104502438D01*
X147642857Y-104502438D02*
X147671428Y-104550057D01*
X147671428Y-104550057D02*
X147700000Y-104645295D01*
X147700000Y-104645295D02*
X147700000Y-104788152D01*
X147700000Y-104788152D02*
X147671428Y-104883390D01*
X147671428Y-104883390D02*
X147642857Y-104931009D01*
X147642857Y-104931009D02*
X147585714Y-104978628D01*
X147585714Y-104978628D02*
X147357143Y-104978628D01*
X147900000Y-104454819D02*
X148300000Y-104454819D01*
X148300000Y-104454819D02*
X148042857Y-105454819D01*
X130042857Y-107054819D02*
X130042857Y-107864342D01*
X130042857Y-107864342D02*
X130071428Y-107959580D01*
X130071428Y-107959580D02*
X130100000Y-108007200D01*
X130100000Y-108007200D02*
X130157142Y-108054819D01*
X130157142Y-108054819D02*
X130271428Y-108054819D01*
X130271428Y-108054819D02*
X130328571Y-108007200D01*
X130328571Y-108007200D02*
X130357142Y-107959580D01*
X130357142Y-107959580D02*
X130385714Y-107864342D01*
X130385714Y-107864342D02*
X130385714Y-107054819D01*
X130614285Y-107054819D02*
X130985713Y-107054819D01*
X130985713Y-107054819D02*
X130785713Y-107435771D01*
X130785713Y-107435771D02*
X130871428Y-107435771D01*
X130871428Y-107435771D02*
X130928571Y-107483390D01*
X130928571Y-107483390D02*
X130957142Y-107531009D01*
X130957142Y-107531009D02*
X130985713Y-107626247D01*
X130985713Y-107626247D02*
X130985713Y-107864342D01*
X130985713Y-107864342D02*
X130957142Y-107959580D01*
X130957142Y-107959580D02*
X130928571Y-108007200D01*
X130928571Y-108007200D02*
X130871428Y-108054819D01*
X130871428Y-108054819D02*
X130699999Y-108054819D01*
X130699999Y-108054819D02*
X130642856Y-108007200D01*
X130642856Y-108007200D02*
X130614285Y-107959580D01*
X114800000Y-98659580D02*
X114771428Y-98707200D01*
X114771428Y-98707200D02*
X114685714Y-98754819D01*
X114685714Y-98754819D02*
X114628571Y-98754819D01*
X114628571Y-98754819D02*
X114542857Y-98707200D01*
X114542857Y-98707200D02*
X114485714Y-98611961D01*
X114485714Y-98611961D02*
X114457143Y-98516723D01*
X114457143Y-98516723D02*
X114428571Y-98326247D01*
X114428571Y-98326247D02*
X114428571Y-98183390D01*
X114428571Y-98183390D02*
X114457143Y-97992914D01*
X114457143Y-97992914D02*
X114485714Y-97897676D01*
X114485714Y-97897676D02*
X114542857Y-97802438D01*
X114542857Y-97802438D02*
X114628571Y-97754819D01*
X114628571Y-97754819D02*
X114685714Y-97754819D01*
X114685714Y-97754819D02*
X114771428Y-97802438D01*
X114771428Y-97802438D02*
X114800000Y-97850057D01*
X115314286Y-98088152D02*
X115314286Y-98754819D01*
X115171428Y-97707200D02*
X115028571Y-98421485D01*
X115028571Y-98421485D02*
X115400000Y-98421485D01*
X125914285Y-117954819D02*
X125714285Y-117478628D01*
X125571428Y-117954819D02*
X125571428Y-116954819D01*
X125571428Y-116954819D02*
X125799999Y-116954819D01*
X125799999Y-116954819D02*
X125857142Y-117002438D01*
X125857142Y-117002438D02*
X125885713Y-117050057D01*
X125885713Y-117050057D02*
X125914285Y-117145295D01*
X125914285Y-117145295D02*
X125914285Y-117288152D01*
X125914285Y-117288152D02*
X125885713Y-117383390D01*
X125885713Y-117383390D02*
X125857142Y-117431009D01*
X125857142Y-117431009D02*
X125799999Y-117478628D01*
X125799999Y-117478628D02*
X125571428Y-117478628D01*
X126485713Y-117954819D02*
X126142856Y-117954819D01*
X126314285Y-117954819D02*
X126314285Y-116954819D01*
X126314285Y-116954819D02*
X126257142Y-117097676D01*
X126257142Y-117097676D02*
X126199999Y-117192914D01*
X126199999Y-117192914D02*
X126142856Y-117240533D01*
X127000000Y-116954819D02*
X126885714Y-116954819D01*
X126885714Y-116954819D02*
X126828571Y-117002438D01*
X126828571Y-117002438D02*
X126800000Y-117050057D01*
X126800000Y-117050057D02*
X126742857Y-117192914D01*
X126742857Y-117192914D02*
X126714285Y-117383390D01*
X126714285Y-117383390D02*
X126714285Y-117764342D01*
X126714285Y-117764342D02*
X126742857Y-117859580D01*
X126742857Y-117859580D02*
X126771428Y-117907200D01*
X126771428Y-117907200D02*
X126828571Y-117954819D01*
X126828571Y-117954819D02*
X126942857Y-117954819D01*
X126942857Y-117954819D02*
X127000000Y-117907200D01*
X127000000Y-117907200D02*
X127028571Y-117859580D01*
X127028571Y-117859580D02*
X127057142Y-117764342D01*
X127057142Y-117764342D02*
X127057142Y-117526247D01*
X127057142Y-117526247D02*
X127028571Y-117431009D01*
X127028571Y-117431009D02*
X127000000Y-117383390D01*
X127000000Y-117383390D02*
X126942857Y-117335771D01*
X126942857Y-117335771D02*
X126828571Y-117335771D01*
X126828571Y-117335771D02*
X126771428Y-117383390D01*
X126771428Y-117383390D02*
X126742857Y-117431009D01*
X126742857Y-117431009D02*
X126714285Y-117526247D01*
X136759580Y-94685714D02*
X136807200Y-94714286D01*
X136807200Y-94714286D02*
X136854819Y-94800000D01*
X136854819Y-94800000D02*
X136854819Y-94857143D01*
X136854819Y-94857143D02*
X136807200Y-94942857D01*
X136807200Y-94942857D02*
X136711961Y-95000000D01*
X136711961Y-95000000D02*
X136616723Y-95028571D01*
X136616723Y-95028571D02*
X136426247Y-95057143D01*
X136426247Y-95057143D02*
X136283390Y-95057143D01*
X136283390Y-95057143D02*
X136092914Y-95028571D01*
X136092914Y-95028571D02*
X135997676Y-95000000D01*
X135997676Y-95000000D02*
X135902438Y-94942857D01*
X135902438Y-94942857D02*
X135854819Y-94857143D01*
X135854819Y-94857143D02*
X135854819Y-94800000D01*
X135854819Y-94800000D02*
X135902438Y-94714286D01*
X135902438Y-94714286D02*
X135950057Y-94685714D01*
X136854819Y-94114286D02*
X136854819Y-94457143D01*
X136854819Y-94285714D02*
X135854819Y-94285714D01*
X135854819Y-94285714D02*
X135997676Y-94342857D01*
X135997676Y-94342857D02*
X136092914Y-94400000D01*
X136092914Y-94400000D02*
X136140533Y-94457143D01*
X135854819Y-93571428D02*
X135854819Y-93857142D01*
X135854819Y-93857142D02*
X136331009Y-93885714D01*
X136331009Y-93885714D02*
X136283390Y-93857142D01*
X136283390Y-93857142D02*
X136235771Y-93800000D01*
X136235771Y-93800000D02*
X136235771Y-93657142D01*
X136235771Y-93657142D02*
X136283390Y-93600000D01*
X136283390Y-93600000D02*
X136331009Y-93571428D01*
X136331009Y-93571428D02*
X136426247Y-93542857D01*
X136426247Y-93542857D02*
X136664342Y-93542857D01*
X136664342Y-93542857D02*
X136759580Y-93571428D01*
X136759580Y-93571428D02*
X136807200Y-93600000D01*
X136807200Y-93600000D02*
X136854819Y-93657142D01*
X136854819Y-93657142D02*
X136854819Y-93800000D01*
X136854819Y-93800000D02*
X136807200Y-93857142D01*
X136807200Y-93857142D02*
X136759580Y-93885714D01*
X105359580Y-110285714D02*
X105407200Y-110314286D01*
X105407200Y-110314286D02*
X105454819Y-110400000D01*
X105454819Y-110400000D02*
X105454819Y-110457143D01*
X105454819Y-110457143D02*
X105407200Y-110542857D01*
X105407200Y-110542857D02*
X105311961Y-110600000D01*
X105311961Y-110600000D02*
X105216723Y-110628571D01*
X105216723Y-110628571D02*
X105026247Y-110657143D01*
X105026247Y-110657143D02*
X104883390Y-110657143D01*
X104883390Y-110657143D02*
X104692914Y-110628571D01*
X104692914Y-110628571D02*
X104597676Y-110600000D01*
X104597676Y-110600000D02*
X104502438Y-110542857D01*
X104502438Y-110542857D02*
X104454819Y-110457143D01*
X104454819Y-110457143D02*
X104454819Y-110400000D01*
X104454819Y-110400000D02*
X104502438Y-110314286D01*
X104502438Y-110314286D02*
X104550057Y-110285714D01*
X104550057Y-110057143D02*
X104502438Y-110028571D01*
X104502438Y-110028571D02*
X104454819Y-109971429D01*
X104454819Y-109971429D02*
X104454819Y-109828571D01*
X104454819Y-109828571D02*
X104502438Y-109771429D01*
X104502438Y-109771429D02*
X104550057Y-109742857D01*
X104550057Y-109742857D02*
X104645295Y-109714286D01*
X104645295Y-109714286D02*
X104740533Y-109714286D01*
X104740533Y-109714286D02*
X104883390Y-109742857D01*
X104883390Y-109742857D02*
X105454819Y-110085714D01*
X105454819Y-110085714D02*
X105454819Y-109714286D01*
X104454819Y-109200000D02*
X104454819Y-109314285D01*
X104454819Y-109314285D02*
X104502438Y-109371428D01*
X104502438Y-109371428D02*
X104550057Y-109400000D01*
X104550057Y-109400000D02*
X104692914Y-109457142D01*
X104692914Y-109457142D02*
X104883390Y-109485714D01*
X104883390Y-109485714D02*
X105264342Y-109485714D01*
X105264342Y-109485714D02*
X105359580Y-109457142D01*
X105359580Y-109457142D02*
X105407200Y-109428571D01*
X105407200Y-109428571D02*
X105454819Y-109371428D01*
X105454819Y-109371428D02*
X105454819Y-109257142D01*
X105454819Y-109257142D02*
X105407200Y-109200000D01*
X105407200Y-109200000D02*
X105359580Y-109171428D01*
X105359580Y-109171428D02*
X105264342Y-109142857D01*
X105264342Y-109142857D02*
X105026247Y-109142857D01*
X105026247Y-109142857D02*
X104931009Y-109171428D01*
X104931009Y-109171428D02*
X104883390Y-109200000D01*
X104883390Y-109200000D02*
X104835771Y-109257142D01*
X104835771Y-109257142D02*
X104835771Y-109371428D01*
X104835771Y-109371428D02*
X104883390Y-109428571D01*
X104883390Y-109428571D02*
X104931009Y-109457142D01*
X104931009Y-109457142D02*
X105026247Y-109485714D01*
X105514285Y-102859580D02*
X105485713Y-102907200D01*
X105485713Y-102907200D02*
X105399999Y-102954819D01*
X105399999Y-102954819D02*
X105342856Y-102954819D01*
X105342856Y-102954819D02*
X105257142Y-102907200D01*
X105257142Y-102907200D02*
X105199999Y-102811961D01*
X105199999Y-102811961D02*
X105171428Y-102716723D01*
X105171428Y-102716723D02*
X105142856Y-102526247D01*
X105142856Y-102526247D02*
X105142856Y-102383390D01*
X105142856Y-102383390D02*
X105171428Y-102192914D01*
X105171428Y-102192914D02*
X105199999Y-102097676D01*
X105199999Y-102097676D02*
X105257142Y-102002438D01*
X105257142Y-102002438D02*
X105342856Y-101954819D01*
X105342856Y-101954819D02*
X105399999Y-101954819D01*
X105399999Y-101954819D02*
X105485713Y-102002438D01*
X105485713Y-102002438D02*
X105514285Y-102050057D01*
X105742856Y-102050057D02*
X105771428Y-102002438D01*
X105771428Y-102002438D02*
X105828571Y-101954819D01*
X105828571Y-101954819D02*
X105971428Y-101954819D01*
X105971428Y-101954819D02*
X106028571Y-102002438D01*
X106028571Y-102002438D02*
X106057142Y-102050057D01*
X106057142Y-102050057D02*
X106085713Y-102145295D01*
X106085713Y-102145295D02*
X106085713Y-102240533D01*
X106085713Y-102240533D02*
X106057142Y-102383390D01*
X106057142Y-102383390D02*
X105714285Y-102954819D01*
X105714285Y-102954819D02*
X106085713Y-102954819D01*
X106371428Y-102954819D02*
X106485714Y-102954819D01*
X106485714Y-102954819D02*
X106542857Y-102907200D01*
X106542857Y-102907200D02*
X106571428Y-102859580D01*
X106571428Y-102859580D02*
X106628571Y-102716723D01*
X106628571Y-102716723D02*
X106657142Y-102526247D01*
X106657142Y-102526247D02*
X106657142Y-102145295D01*
X106657142Y-102145295D02*
X106628571Y-102050057D01*
X106628571Y-102050057D02*
X106600000Y-102002438D01*
X106600000Y-102002438D02*
X106542857Y-101954819D01*
X106542857Y-101954819D02*
X106428571Y-101954819D01*
X106428571Y-101954819D02*
X106371428Y-102002438D01*
X106371428Y-102002438D02*
X106342857Y-102050057D01*
X106342857Y-102050057D02*
X106314285Y-102145295D01*
X106314285Y-102145295D02*
X106314285Y-102383390D01*
X106314285Y-102383390D02*
X106342857Y-102478628D01*
X106342857Y-102478628D02*
X106371428Y-102526247D01*
X106371428Y-102526247D02*
X106428571Y-102573866D01*
X106428571Y-102573866D02*
X106542857Y-102573866D01*
X106542857Y-102573866D02*
X106600000Y-102526247D01*
X106600000Y-102526247D02*
X106628571Y-102478628D01*
X106628571Y-102478628D02*
X106657142Y-102383390D01*
X128957143Y-117854819D02*
X128957143Y-116854819D01*
X128957143Y-116854819D02*
X129100000Y-116854819D01*
X129100000Y-116854819D02*
X129185714Y-116902438D01*
X129185714Y-116902438D02*
X129242857Y-116997676D01*
X129242857Y-116997676D02*
X129271428Y-117092914D01*
X129271428Y-117092914D02*
X129300000Y-117283390D01*
X129300000Y-117283390D02*
X129300000Y-117426247D01*
X129300000Y-117426247D02*
X129271428Y-117616723D01*
X129271428Y-117616723D02*
X129242857Y-117711961D01*
X129242857Y-117711961D02*
X129185714Y-117807200D01*
X129185714Y-117807200D02*
X129100000Y-117854819D01*
X129100000Y-117854819D02*
X128957143Y-117854819D01*
X129814286Y-117188152D02*
X129814286Y-117854819D01*
X129671428Y-116807200D02*
X129528571Y-117521485D01*
X129528571Y-117521485D02*
X129900000Y-117521485D01*
X113092856Y-100304819D02*
X113435714Y-100304819D01*
X113264285Y-101304819D02*
X113264285Y-100304819D01*
X113635714Y-101304819D02*
X113635714Y-100304819D01*
X113635714Y-100304819D02*
X113864285Y-100304819D01*
X113864285Y-100304819D02*
X113921428Y-100352438D01*
X113921428Y-100352438D02*
X113949999Y-100400057D01*
X113949999Y-100400057D02*
X113978571Y-100495295D01*
X113978571Y-100495295D02*
X113978571Y-100638152D01*
X113978571Y-100638152D02*
X113949999Y-100733390D01*
X113949999Y-100733390D02*
X113921428Y-100781009D01*
X113921428Y-100781009D02*
X113864285Y-100828628D01*
X113864285Y-100828628D02*
X113635714Y-100828628D01*
X114492857Y-100304819D02*
X114378571Y-100304819D01*
X114378571Y-100304819D02*
X114321428Y-100352438D01*
X114321428Y-100352438D02*
X114292857Y-100400057D01*
X114292857Y-100400057D02*
X114235714Y-100542914D01*
X114235714Y-100542914D02*
X114207142Y-100733390D01*
X114207142Y-100733390D02*
X114207142Y-101114342D01*
X114207142Y-101114342D02*
X114235714Y-101209580D01*
X114235714Y-101209580D02*
X114264285Y-101257200D01*
X114264285Y-101257200D02*
X114321428Y-101304819D01*
X114321428Y-101304819D02*
X114435714Y-101304819D01*
X114435714Y-101304819D02*
X114492857Y-101257200D01*
X114492857Y-101257200D02*
X114521428Y-101209580D01*
X114521428Y-101209580D02*
X114549999Y-101114342D01*
X114549999Y-101114342D02*
X114549999Y-100876247D01*
X114549999Y-100876247D02*
X114521428Y-100781009D01*
X114521428Y-100781009D02*
X114492857Y-100733390D01*
X114492857Y-100733390D02*
X114435714Y-100685771D01*
X114435714Y-100685771D02*
X114321428Y-100685771D01*
X114321428Y-100685771D02*
X114264285Y-100733390D01*
X114264285Y-100733390D02*
X114235714Y-100781009D01*
X114235714Y-100781009D02*
X114207142Y-100876247D01*
X113659580Y-111985714D02*
X113707200Y-112014286D01*
X113707200Y-112014286D02*
X113754819Y-112100000D01*
X113754819Y-112100000D02*
X113754819Y-112157143D01*
X113754819Y-112157143D02*
X113707200Y-112242857D01*
X113707200Y-112242857D02*
X113611961Y-112300000D01*
X113611961Y-112300000D02*
X113516723Y-112328571D01*
X113516723Y-112328571D02*
X113326247Y-112357143D01*
X113326247Y-112357143D02*
X113183390Y-112357143D01*
X113183390Y-112357143D02*
X112992914Y-112328571D01*
X112992914Y-112328571D02*
X112897676Y-112300000D01*
X112897676Y-112300000D02*
X112802438Y-112242857D01*
X112802438Y-112242857D02*
X112754819Y-112157143D01*
X112754819Y-112157143D02*
X112754819Y-112100000D01*
X112754819Y-112100000D02*
X112802438Y-112014286D01*
X112802438Y-112014286D02*
X112850057Y-111985714D01*
X112754819Y-111785714D02*
X112754819Y-111414286D01*
X112754819Y-111414286D02*
X113135771Y-111614286D01*
X113135771Y-111614286D02*
X113135771Y-111528571D01*
X113135771Y-111528571D02*
X113183390Y-111471429D01*
X113183390Y-111471429D02*
X113231009Y-111442857D01*
X113231009Y-111442857D02*
X113326247Y-111414286D01*
X113326247Y-111414286D02*
X113564342Y-111414286D01*
X113564342Y-111414286D02*
X113659580Y-111442857D01*
X113659580Y-111442857D02*
X113707200Y-111471429D01*
X113707200Y-111471429D02*
X113754819Y-111528571D01*
X113754819Y-111528571D02*
X113754819Y-111700000D01*
X113754819Y-111700000D02*
X113707200Y-111757143D01*
X113707200Y-111757143D02*
X113659580Y-111785714D01*
X112754819Y-111042857D02*
X112754819Y-110985714D01*
X112754819Y-110985714D02*
X112802438Y-110928571D01*
X112802438Y-110928571D02*
X112850057Y-110900000D01*
X112850057Y-110900000D02*
X112945295Y-110871428D01*
X112945295Y-110871428D02*
X113135771Y-110842857D01*
X113135771Y-110842857D02*
X113373866Y-110842857D01*
X113373866Y-110842857D02*
X113564342Y-110871428D01*
X113564342Y-110871428D02*
X113659580Y-110900000D01*
X113659580Y-110900000D02*
X113707200Y-110928571D01*
X113707200Y-110928571D02*
X113754819Y-110985714D01*
X113754819Y-110985714D02*
X113754819Y-111042857D01*
X113754819Y-111042857D02*
X113707200Y-111100000D01*
X113707200Y-111100000D02*
X113659580Y-111128571D01*
X113659580Y-111128571D02*
X113564342Y-111157142D01*
X113564342Y-111157142D02*
X113373866Y-111185714D01*
X113373866Y-111185714D02*
X113135771Y-111185714D01*
X113135771Y-111185714D02*
X112945295Y-111157142D01*
X112945295Y-111157142D02*
X112850057Y-111128571D01*
X112850057Y-111128571D02*
X112802438Y-111100000D01*
X112802438Y-111100000D02*
X112754819Y-111042857D01*
X107054819Y-109985714D02*
X106578628Y-110185714D01*
X107054819Y-110328571D02*
X106054819Y-110328571D01*
X106054819Y-110328571D02*
X106054819Y-110100000D01*
X106054819Y-110100000D02*
X106102438Y-110042857D01*
X106102438Y-110042857D02*
X106150057Y-110014286D01*
X106150057Y-110014286D02*
X106245295Y-109985714D01*
X106245295Y-109985714D02*
X106388152Y-109985714D01*
X106388152Y-109985714D02*
X106483390Y-110014286D01*
X106483390Y-110014286D02*
X106531009Y-110042857D01*
X106531009Y-110042857D02*
X106578628Y-110100000D01*
X106578628Y-110100000D02*
X106578628Y-110328571D01*
X106150057Y-109757143D02*
X106102438Y-109728571D01*
X106102438Y-109728571D02*
X106054819Y-109671429D01*
X106054819Y-109671429D02*
X106054819Y-109528571D01*
X106054819Y-109528571D02*
X106102438Y-109471429D01*
X106102438Y-109471429D02*
X106150057Y-109442857D01*
X106150057Y-109442857D02*
X106245295Y-109414286D01*
X106245295Y-109414286D02*
X106340533Y-109414286D01*
X106340533Y-109414286D02*
X106483390Y-109442857D01*
X106483390Y-109442857D02*
X107054819Y-109785714D01*
X107054819Y-109785714D02*
X107054819Y-109414286D01*
X107054819Y-108842857D02*
X107054819Y-109185714D01*
X107054819Y-109014285D02*
X106054819Y-109014285D01*
X106054819Y-109014285D02*
X106197676Y-109071428D01*
X106197676Y-109071428D02*
X106292914Y-109128571D01*
X106292914Y-109128571D02*
X106340533Y-109185714D01*
X104342857Y-87354819D02*
X104342857Y-88164342D01*
X104342857Y-88164342D02*
X104371428Y-88259580D01*
X104371428Y-88259580D02*
X104400000Y-88307200D01*
X104400000Y-88307200D02*
X104457142Y-88354819D01*
X104457142Y-88354819D02*
X104571428Y-88354819D01*
X104571428Y-88354819D02*
X104628571Y-88307200D01*
X104628571Y-88307200D02*
X104657142Y-88259580D01*
X104657142Y-88259580D02*
X104685714Y-88164342D01*
X104685714Y-88164342D02*
X104685714Y-87354819D01*
X105285713Y-88354819D02*
X104942856Y-88354819D01*
X105114285Y-88354819D02*
X105114285Y-87354819D01*
X105114285Y-87354819D02*
X105057142Y-87497676D01*
X105057142Y-87497676D02*
X104999999Y-87592914D01*
X104999999Y-87592914D02*
X104942856Y-87640533D01*
X127742857Y-98554819D02*
X127742857Y-99364342D01*
X127742857Y-99364342D02*
X127771428Y-99459580D01*
X127771428Y-99459580D02*
X127800000Y-99507200D01*
X127800000Y-99507200D02*
X127857142Y-99554819D01*
X127857142Y-99554819D02*
X127971428Y-99554819D01*
X127971428Y-99554819D02*
X128028571Y-99507200D01*
X128028571Y-99507200D02*
X128057142Y-99459580D01*
X128057142Y-99459580D02*
X128085714Y-99364342D01*
X128085714Y-99364342D02*
X128085714Y-98554819D01*
X128342856Y-98650057D02*
X128371428Y-98602438D01*
X128371428Y-98602438D02*
X128428571Y-98554819D01*
X128428571Y-98554819D02*
X128571428Y-98554819D01*
X128571428Y-98554819D02*
X128628571Y-98602438D01*
X128628571Y-98602438D02*
X128657142Y-98650057D01*
X128657142Y-98650057D02*
X128685713Y-98745295D01*
X128685713Y-98745295D02*
X128685713Y-98840533D01*
X128685713Y-98840533D02*
X128657142Y-98983390D01*
X128657142Y-98983390D02*
X128314285Y-99554819D01*
X128314285Y-99554819D02*
X128685713Y-99554819D01*
X113614285Y-93884819D02*
X113414285Y-93408628D01*
X113271428Y-93884819D02*
X113271428Y-92884819D01*
X113271428Y-92884819D02*
X113499999Y-92884819D01*
X113499999Y-92884819D02*
X113557142Y-92932438D01*
X113557142Y-92932438D02*
X113585713Y-92980057D01*
X113585713Y-92980057D02*
X113614285Y-93075295D01*
X113614285Y-93075295D02*
X113614285Y-93218152D01*
X113614285Y-93218152D02*
X113585713Y-93313390D01*
X113585713Y-93313390D02*
X113557142Y-93361009D01*
X113557142Y-93361009D02*
X113499999Y-93408628D01*
X113499999Y-93408628D02*
X113271428Y-93408628D01*
X114185713Y-93884819D02*
X113842856Y-93884819D01*
X114014285Y-93884819D02*
X114014285Y-92884819D01*
X114014285Y-92884819D02*
X113957142Y-93027676D01*
X113957142Y-93027676D02*
X113899999Y-93122914D01*
X113899999Y-93122914D02*
X113842856Y-93170533D01*
X114757142Y-93884819D02*
X114414285Y-93884819D01*
X114585714Y-93884819D02*
X114585714Y-92884819D01*
X114585714Y-92884819D02*
X114528571Y-93027676D01*
X114528571Y-93027676D02*
X114471428Y-93122914D01*
X114471428Y-93122914D02*
X114414285Y-93170533D01*
X118959580Y-115385714D02*
X119007200Y-115414286D01*
X119007200Y-115414286D02*
X119054819Y-115500000D01*
X119054819Y-115500000D02*
X119054819Y-115557143D01*
X119054819Y-115557143D02*
X119007200Y-115642857D01*
X119007200Y-115642857D02*
X118911961Y-115700000D01*
X118911961Y-115700000D02*
X118816723Y-115728571D01*
X118816723Y-115728571D02*
X118626247Y-115757143D01*
X118626247Y-115757143D02*
X118483390Y-115757143D01*
X118483390Y-115757143D02*
X118292914Y-115728571D01*
X118292914Y-115728571D02*
X118197676Y-115700000D01*
X118197676Y-115700000D02*
X118102438Y-115642857D01*
X118102438Y-115642857D02*
X118054819Y-115557143D01*
X118054819Y-115557143D02*
X118054819Y-115500000D01*
X118054819Y-115500000D02*
X118102438Y-115414286D01*
X118102438Y-115414286D02*
X118150057Y-115385714D01*
X118054819Y-115185714D02*
X118054819Y-114814286D01*
X118054819Y-114814286D02*
X118435771Y-115014286D01*
X118435771Y-115014286D02*
X118435771Y-114928571D01*
X118435771Y-114928571D02*
X118483390Y-114871429D01*
X118483390Y-114871429D02*
X118531009Y-114842857D01*
X118531009Y-114842857D02*
X118626247Y-114814286D01*
X118626247Y-114814286D02*
X118864342Y-114814286D01*
X118864342Y-114814286D02*
X118959580Y-114842857D01*
X118959580Y-114842857D02*
X119007200Y-114871429D01*
X119007200Y-114871429D02*
X119054819Y-114928571D01*
X119054819Y-114928571D02*
X119054819Y-115100000D01*
X119054819Y-115100000D02*
X119007200Y-115157143D01*
X119007200Y-115157143D02*
X118959580Y-115185714D01*
X118150057Y-114585714D02*
X118102438Y-114557142D01*
X118102438Y-114557142D02*
X118054819Y-114500000D01*
X118054819Y-114500000D02*
X118054819Y-114357142D01*
X118054819Y-114357142D02*
X118102438Y-114300000D01*
X118102438Y-114300000D02*
X118150057Y-114271428D01*
X118150057Y-114271428D02*
X118245295Y-114242857D01*
X118245295Y-114242857D02*
X118340533Y-114242857D01*
X118340533Y-114242857D02*
X118483390Y-114271428D01*
X118483390Y-114271428D02*
X119054819Y-114614285D01*
X119054819Y-114614285D02*
X119054819Y-114242857D01*
X132600000Y-107054819D02*
X132400000Y-106578628D01*
X132257143Y-107054819D02*
X132257143Y-106054819D01*
X132257143Y-106054819D02*
X132485714Y-106054819D01*
X132485714Y-106054819D02*
X132542857Y-106102438D01*
X132542857Y-106102438D02*
X132571428Y-106150057D01*
X132571428Y-106150057D02*
X132600000Y-106245295D01*
X132600000Y-106245295D02*
X132600000Y-106388152D01*
X132600000Y-106388152D02*
X132571428Y-106483390D01*
X132571428Y-106483390D02*
X132542857Y-106531009D01*
X132542857Y-106531009D02*
X132485714Y-106578628D01*
X132485714Y-106578628D02*
X132257143Y-106578628D01*
X133114286Y-106388152D02*
X133114286Y-107054819D01*
X132971428Y-106007200D02*
X132828571Y-106721485D01*
X132828571Y-106721485D02*
X133200000Y-106721485D01*
X125457143Y-110054819D02*
X125457143Y-109054819D01*
X125457143Y-109054819D02*
X125600000Y-109054819D01*
X125600000Y-109054819D02*
X125685714Y-109102438D01*
X125685714Y-109102438D02*
X125742857Y-109197676D01*
X125742857Y-109197676D02*
X125771428Y-109292914D01*
X125771428Y-109292914D02*
X125800000Y-109483390D01*
X125800000Y-109483390D02*
X125800000Y-109626247D01*
X125800000Y-109626247D02*
X125771428Y-109816723D01*
X125771428Y-109816723D02*
X125742857Y-109911961D01*
X125742857Y-109911961D02*
X125685714Y-110007200D01*
X125685714Y-110007200D02*
X125600000Y-110054819D01*
X125600000Y-110054819D02*
X125457143Y-110054819D01*
X126000000Y-109054819D02*
X126371428Y-109054819D01*
X126371428Y-109054819D02*
X126171428Y-109435771D01*
X126171428Y-109435771D02*
X126257143Y-109435771D01*
X126257143Y-109435771D02*
X126314286Y-109483390D01*
X126314286Y-109483390D02*
X126342857Y-109531009D01*
X126342857Y-109531009D02*
X126371428Y-109626247D01*
X126371428Y-109626247D02*
X126371428Y-109864342D01*
X126371428Y-109864342D02*
X126342857Y-109959580D01*
X126342857Y-109959580D02*
X126314286Y-110007200D01*
X126314286Y-110007200D02*
X126257143Y-110054819D01*
X126257143Y-110054819D02*
X126085714Y-110054819D01*
X126085714Y-110054819D02*
X126028571Y-110007200D01*
X126028571Y-110007200D02*
X126000000Y-109959580D01*
X135692856Y-117004819D02*
X136035714Y-117004819D01*
X135864285Y-118004819D02*
X135864285Y-117004819D01*
X136235714Y-118004819D02*
X136235714Y-117004819D01*
X136235714Y-117004819D02*
X136464285Y-117004819D01*
X136464285Y-117004819D02*
X136521428Y-117052438D01*
X136521428Y-117052438D02*
X136549999Y-117100057D01*
X136549999Y-117100057D02*
X136578571Y-117195295D01*
X136578571Y-117195295D02*
X136578571Y-117338152D01*
X136578571Y-117338152D02*
X136549999Y-117433390D01*
X136549999Y-117433390D02*
X136521428Y-117481009D01*
X136521428Y-117481009D02*
X136464285Y-117528628D01*
X136464285Y-117528628D02*
X136235714Y-117528628D01*
X136778571Y-117004819D02*
X137149999Y-117004819D01*
X137149999Y-117004819D02*
X136949999Y-117385771D01*
X136949999Y-117385771D02*
X137035714Y-117385771D01*
X137035714Y-117385771D02*
X137092857Y-117433390D01*
X137092857Y-117433390D02*
X137121428Y-117481009D01*
X137121428Y-117481009D02*
X137149999Y-117576247D01*
X137149999Y-117576247D02*
X137149999Y-117814342D01*
X137149999Y-117814342D02*
X137121428Y-117909580D01*
X137121428Y-117909580D02*
X137092857Y-117957200D01*
X137092857Y-117957200D02*
X137035714Y-118004819D01*
X137035714Y-118004819D02*
X136864285Y-118004819D01*
X136864285Y-118004819D02*
X136807142Y-117957200D01*
X136807142Y-117957200D02*
X136778571Y-117909580D01*
X103114285Y-94259580D02*
X103085713Y-94307200D01*
X103085713Y-94307200D02*
X102999999Y-94354819D01*
X102999999Y-94354819D02*
X102942856Y-94354819D01*
X102942856Y-94354819D02*
X102857142Y-94307200D01*
X102857142Y-94307200D02*
X102799999Y-94211961D01*
X102799999Y-94211961D02*
X102771428Y-94116723D01*
X102771428Y-94116723D02*
X102742856Y-93926247D01*
X102742856Y-93926247D02*
X102742856Y-93783390D01*
X102742856Y-93783390D02*
X102771428Y-93592914D01*
X102771428Y-93592914D02*
X102799999Y-93497676D01*
X102799999Y-93497676D02*
X102857142Y-93402438D01*
X102857142Y-93402438D02*
X102942856Y-93354819D01*
X102942856Y-93354819D02*
X102999999Y-93354819D01*
X102999999Y-93354819D02*
X103085713Y-93402438D01*
X103085713Y-93402438D02*
X103114285Y-93450057D01*
X103342856Y-93450057D02*
X103371428Y-93402438D01*
X103371428Y-93402438D02*
X103428571Y-93354819D01*
X103428571Y-93354819D02*
X103571428Y-93354819D01*
X103571428Y-93354819D02*
X103628571Y-93402438D01*
X103628571Y-93402438D02*
X103657142Y-93450057D01*
X103657142Y-93450057D02*
X103685713Y-93545295D01*
X103685713Y-93545295D02*
X103685713Y-93640533D01*
X103685713Y-93640533D02*
X103657142Y-93783390D01*
X103657142Y-93783390D02*
X103314285Y-94354819D01*
X103314285Y-94354819D02*
X103685713Y-94354819D01*
X104228571Y-93354819D02*
X103942857Y-93354819D01*
X103942857Y-93354819D02*
X103914285Y-93831009D01*
X103914285Y-93831009D02*
X103942857Y-93783390D01*
X103942857Y-93783390D02*
X104000000Y-93735771D01*
X104000000Y-93735771D02*
X104142857Y-93735771D01*
X104142857Y-93735771D02*
X104200000Y-93783390D01*
X104200000Y-93783390D02*
X104228571Y-93831009D01*
X104228571Y-93831009D02*
X104257142Y-93926247D01*
X104257142Y-93926247D02*
X104257142Y-94164342D01*
X104257142Y-94164342D02*
X104228571Y-94259580D01*
X104228571Y-94259580D02*
X104200000Y-94307200D01*
X104200000Y-94307200D02*
X104142857Y-94354819D01*
X104142857Y-94354819D02*
X104000000Y-94354819D01*
X104000000Y-94354819D02*
X103942857Y-94307200D01*
X103942857Y-94307200D02*
X103914285Y-94259580D01*
X146654819Y-112585714D02*
X146178628Y-112785714D01*
X146654819Y-112928571D02*
X145654819Y-112928571D01*
X145654819Y-112928571D02*
X145654819Y-112700000D01*
X145654819Y-112700000D02*
X145702438Y-112642857D01*
X145702438Y-112642857D02*
X145750057Y-112614286D01*
X145750057Y-112614286D02*
X145845295Y-112585714D01*
X145845295Y-112585714D02*
X145988152Y-112585714D01*
X145988152Y-112585714D02*
X146083390Y-112614286D01*
X146083390Y-112614286D02*
X146131009Y-112642857D01*
X146131009Y-112642857D02*
X146178628Y-112700000D01*
X146178628Y-112700000D02*
X146178628Y-112928571D01*
X146654819Y-112014286D02*
X146654819Y-112357143D01*
X146654819Y-112185714D02*
X145654819Y-112185714D01*
X145654819Y-112185714D02*
X145797676Y-112242857D01*
X145797676Y-112242857D02*
X145892914Y-112300000D01*
X145892914Y-112300000D02*
X145940533Y-112357143D01*
X145654819Y-111814285D02*
X145654819Y-111442857D01*
X145654819Y-111442857D02*
X146035771Y-111642857D01*
X146035771Y-111642857D02*
X146035771Y-111557142D01*
X146035771Y-111557142D02*
X146083390Y-111500000D01*
X146083390Y-111500000D02*
X146131009Y-111471428D01*
X146131009Y-111471428D02*
X146226247Y-111442857D01*
X146226247Y-111442857D02*
X146464342Y-111442857D01*
X146464342Y-111442857D02*
X146559580Y-111471428D01*
X146559580Y-111471428D02*
X146607200Y-111500000D01*
X146607200Y-111500000D02*
X146654819Y-111557142D01*
X146654819Y-111557142D02*
X146654819Y-111728571D01*
X146654819Y-111728571D02*
X146607200Y-111785714D01*
X146607200Y-111785714D02*
X146559580Y-111814285D01*
X136542856Y-97354819D02*
X136885714Y-97354819D01*
X136714285Y-98354819D02*
X136714285Y-97354819D01*
X137085714Y-98354819D02*
X137085714Y-97354819D01*
X137085714Y-97354819D02*
X137314285Y-97354819D01*
X137314285Y-97354819D02*
X137371428Y-97402438D01*
X137371428Y-97402438D02*
X137399999Y-97450057D01*
X137399999Y-97450057D02*
X137428571Y-97545295D01*
X137428571Y-97545295D02*
X137428571Y-97688152D01*
X137428571Y-97688152D02*
X137399999Y-97783390D01*
X137399999Y-97783390D02*
X137371428Y-97831009D01*
X137371428Y-97831009D02*
X137314285Y-97878628D01*
X137314285Y-97878628D02*
X137085714Y-97878628D01*
X137657142Y-97450057D02*
X137685714Y-97402438D01*
X137685714Y-97402438D02*
X137742857Y-97354819D01*
X137742857Y-97354819D02*
X137885714Y-97354819D01*
X137885714Y-97354819D02*
X137942857Y-97402438D01*
X137942857Y-97402438D02*
X137971428Y-97450057D01*
X137971428Y-97450057D02*
X137999999Y-97545295D01*
X137999999Y-97545295D02*
X137999999Y-97640533D01*
X137999999Y-97640533D02*
X137971428Y-97783390D01*
X137971428Y-97783390D02*
X137628571Y-98354819D01*
X137628571Y-98354819D02*
X137999999Y-98354819D01*
X148214285Y-100254819D02*
X148014285Y-99778628D01*
X147871428Y-100254819D02*
X147871428Y-99254819D01*
X147871428Y-99254819D02*
X148099999Y-99254819D01*
X148099999Y-99254819D02*
X148157142Y-99302438D01*
X148157142Y-99302438D02*
X148185713Y-99350057D01*
X148185713Y-99350057D02*
X148214285Y-99445295D01*
X148214285Y-99445295D02*
X148214285Y-99588152D01*
X148214285Y-99588152D02*
X148185713Y-99683390D01*
X148185713Y-99683390D02*
X148157142Y-99731009D01*
X148157142Y-99731009D02*
X148099999Y-99778628D01*
X148099999Y-99778628D02*
X147871428Y-99778628D01*
X148785713Y-100254819D02*
X148442856Y-100254819D01*
X148614285Y-100254819D02*
X148614285Y-99254819D01*
X148614285Y-99254819D02*
X148557142Y-99397676D01*
X148557142Y-99397676D02*
X148499999Y-99492914D01*
X148499999Y-99492914D02*
X148442856Y-99540533D01*
X148985714Y-99254819D02*
X149385714Y-99254819D01*
X149385714Y-99254819D02*
X149128571Y-100254819D01*
X151364285Y-95179580D02*
X151335713Y-95227200D01*
X151335713Y-95227200D02*
X151249999Y-95274819D01*
X151249999Y-95274819D02*
X151192856Y-95274819D01*
X151192856Y-95274819D02*
X151107142Y-95227200D01*
X151107142Y-95227200D02*
X151049999Y-95131961D01*
X151049999Y-95131961D02*
X151021428Y-95036723D01*
X151021428Y-95036723D02*
X150992856Y-94846247D01*
X150992856Y-94846247D02*
X150992856Y-94703390D01*
X150992856Y-94703390D02*
X151021428Y-94512914D01*
X151021428Y-94512914D02*
X151049999Y-94417676D01*
X151049999Y-94417676D02*
X151107142Y-94322438D01*
X151107142Y-94322438D02*
X151192856Y-94274819D01*
X151192856Y-94274819D02*
X151249999Y-94274819D01*
X151249999Y-94274819D02*
X151335713Y-94322438D01*
X151335713Y-94322438D02*
X151364285Y-94370057D01*
X151935713Y-95274819D02*
X151592856Y-95274819D01*
X151764285Y-95274819D02*
X151764285Y-94274819D01*
X151764285Y-94274819D02*
X151707142Y-94417676D01*
X151707142Y-94417676D02*
X151649999Y-94512914D01*
X151649999Y-94512914D02*
X151592856Y-94560533D01*
X152278571Y-94703390D02*
X152221428Y-94655771D01*
X152221428Y-94655771D02*
X152192857Y-94608152D01*
X152192857Y-94608152D02*
X152164285Y-94512914D01*
X152164285Y-94512914D02*
X152164285Y-94465295D01*
X152164285Y-94465295D02*
X152192857Y-94370057D01*
X152192857Y-94370057D02*
X152221428Y-94322438D01*
X152221428Y-94322438D02*
X152278571Y-94274819D01*
X152278571Y-94274819D02*
X152392857Y-94274819D01*
X152392857Y-94274819D02*
X152450000Y-94322438D01*
X152450000Y-94322438D02*
X152478571Y-94370057D01*
X152478571Y-94370057D02*
X152507142Y-94465295D01*
X152507142Y-94465295D02*
X152507142Y-94512914D01*
X152507142Y-94512914D02*
X152478571Y-94608152D01*
X152478571Y-94608152D02*
X152450000Y-94655771D01*
X152450000Y-94655771D02*
X152392857Y-94703390D01*
X152392857Y-94703390D02*
X152278571Y-94703390D01*
X152278571Y-94703390D02*
X152221428Y-94751009D01*
X152221428Y-94751009D02*
X152192857Y-94798628D01*
X152192857Y-94798628D02*
X152164285Y-94893866D01*
X152164285Y-94893866D02*
X152164285Y-95084342D01*
X152164285Y-95084342D02*
X152192857Y-95179580D01*
X152192857Y-95179580D02*
X152221428Y-95227200D01*
X152221428Y-95227200D02*
X152278571Y-95274819D01*
X152278571Y-95274819D02*
X152392857Y-95274819D01*
X152392857Y-95274819D02*
X152450000Y-95227200D01*
X152450000Y-95227200D02*
X152478571Y-95179580D01*
X152478571Y-95179580D02*
X152507142Y-95084342D01*
X152507142Y-95084342D02*
X152507142Y-94893866D01*
X152507142Y-94893866D02*
X152478571Y-94798628D01*
X152478571Y-94798628D02*
X152450000Y-94751009D01*
X152450000Y-94751009D02*
X152392857Y-94703390D01*
X115114285Y-88359580D02*
X115085713Y-88407200D01*
X115085713Y-88407200D02*
X114999999Y-88454819D01*
X114999999Y-88454819D02*
X114942856Y-88454819D01*
X114942856Y-88454819D02*
X114857142Y-88407200D01*
X114857142Y-88407200D02*
X114799999Y-88311961D01*
X114799999Y-88311961D02*
X114771428Y-88216723D01*
X114771428Y-88216723D02*
X114742856Y-88026247D01*
X114742856Y-88026247D02*
X114742856Y-87883390D01*
X114742856Y-87883390D02*
X114771428Y-87692914D01*
X114771428Y-87692914D02*
X114799999Y-87597676D01*
X114799999Y-87597676D02*
X114857142Y-87502438D01*
X114857142Y-87502438D02*
X114942856Y-87454819D01*
X114942856Y-87454819D02*
X114999999Y-87454819D01*
X114999999Y-87454819D02*
X115085713Y-87502438D01*
X115085713Y-87502438D02*
X115114285Y-87550057D01*
X115685713Y-88454819D02*
X115342856Y-88454819D01*
X115514285Y-88454819D02*
X115514285Y-87454819D01*
X115514285Y-87454819D02*
X115457142Y-87597676D01*
X115457142Y-87597676D02*
X115399999Y-87692914D01*
X115399999Y-87692914D02*
X115342856Y-87740533D01*
X116057142Y-87454819D02*
X116114285Y-87454819D01*
X116114285Y-87454819D02*
X116171428Y-87502438D01*
X116171428Y-87502438D02*
X116200000Y-87550057D01*
X116200000Y-87550057D02*
X116228571Y-87645295D01*
X116228571Y-87645295D02*
X116257142Y-87835771D01*
X116257142Y-87835771D02*
X116257142Y-88073866D01*
X116257142Y-88073866D02*
X116228571Y-88264342D01*
X116228571Y-88264342D02*
X116200000Y-88359580D01*
X116200000Y-88359580D02*
X116171428Y-88407200D01*
X116171428Y-88407200D02*
X116114285Y-88454819D01*
X116114285Y-88454819D02*
X116057142Y-88454819D01*
X116057142Y-88454819D02*
X116000000Y-88407200D01*
X116000000Y-88407200D02*
X115971428Y-88359580D01*
X115971428Y-88359580D02*
X115942857Y-88264342D01*
X115942857Y-88264342D02*
X115914285Y-88073866D01*
X115914285Y-88073866D02*
X115914285Y-87835771D01*
X115914285Y-87835771D02*
X115942857Y-87645295D01*
X115942857Y-87645295D02*
X115971428Y-87550057D01*
X115971428Y-87550057D02*
X116000000Y-87502438D01*
X116000000Y-87502438D02*
X116057142Y-87454819D01*
X136699999Y-90729819D02*
X136699999Y-91444104D01*
X136699999Y-91444104D02*
X136671428Y-91586961D01*
X136671428Y-91586961D02*
X136614285Y-91682200D01*
X136614285Y-91682200D02*
X136528571Y-91729819D01*
X136528571Y-91729819D02*
X136471428Y-91729819D01*
X136957142Y-90825057D02*
X136985714Y-90777438D01*
X136985714Y-90777438D02*
X137042857Y-90729819D01*
X137042857Y-90729819D02*
X137185714Y-90729819D01*
X137185714Y-90729819D02*
X137242857Y-90777438D01*
X137242857Y-90777438D02*
X137271428Y-90825057D01*
X137271428Y-90825057D02*
X137299999Y-90920295D01*
X137299999Y-90920295D02*
X137299999Y-91015533D01*
X137299999Y-91015533D02*
X137271428Y-91158390D01*
X137271428Y-91158390D02*
X136928571Y-91729819D01*
X136928571Y-91729819D02*
X137299999Y-91729819D01*
X154357142Y-90274819D02*
X154700000Y-90274819D01*
X154528571Y-91274819D02*
X154528571Y-90274819D01*
X154900000Y-91274819D02*
X154900000Y-90274819D01*
X154900000Y-90274819D02*
X155128571Y-90274819D01*
X155128571Y-90274819D02*
X155185714Y-90322438D01*
X155185714Y-90322438D02*
X155214285Y-90370057D01*
X155214285Y-90370057D02*
X155242857Y-90465295D01*
X155242857Y-90465295D02*
X155242857Y-90608152D01*
X155242857Y-90608152D02*
X155214285Y-90703390D01*
X155214285Y-90703390D02*
X155185714Y-90751009D01*
X155185714Y-90751009D02*
X155128571Y-90798628D01*
X155128571Y-90798628D02*
X154900000Y-90798628D01*
X155814285Y-91274819D02*
X155471428Y-91274819D01*
X155642857Y-91274819D02*
X155642857Y-90274819D01*
X155642857Y-90274819D02*
X155585714Y-90417676D01*
X155585714Y-90417676D02*
X155528571Y-90512914D01*
X155528571Y-90512914D02*
X155471428Y-90560533D01*
X156185714Y-90274819D02*
X156242857Y-90274819D01*
X156242857Y-90274819D02*
X156300000Y-90322438D01*
X156300000Y-90322438D02*
X156328572Y-90370057D01*
X156328572Y-90370057D02*
X156357143Y-90465295D01*
X156357143Y-90465295D02*
X156385714Y-90655771D01*
X156385714Y-90655771D02*
X156385714Y-90893866D01*
X156385714Y-90893866D02*
X156357143Y-91084342D01*
X156357143Y-91084342D02*
X156328572Y-91179580D01*
X156328572Y-91179580D02*
X156300000Y-91227200D01*
X156300000Y-91227200D02*
X156242857Y-91274819D01*
X156242857Y-91274819D02*
X156185714Y-91274819D01*
X156185714Y-91274819D02*
X156128572Y-91227200D01*
X156128572Y-91227200D02*
X156100000Y-91179580D01*
X156100000Y-91179580D02*
X156071429Y-91084342D01*
X156071429Y-91084342D02*
X156042857Y-90893866D01*
X156042857Y-90893866D02*
X156042857Y-90655771D01*
X156042857Y-90655771D02*
X156071429Y-90465295D01*
X156071429Y-90465295D02*
X156100000Y-90370057D01*
X156100000Y-90370057D02*
X156128572Y-90322438D01*
X156128572Y-90322438D02*
X156185714Y-90274819D01*
X99449999Y-85464819D02*
X99449999Y-86179104D01*
X99449999Y-86179104D02*
X99421428Y-86321961D01*
X99421428Y-86321961D02*
X99364285Y-86417200D01*
X99364285Y-86417200D02*
X99278571Y-86464819D01*
X99278571Y-86464819D02*
X99221428Y-86464819D01*
X100049999Y-86464819D02*
X99707142Y-86464819D01*
X99878571Y-86464819D02*
X99878571Y-85464819D01*
X99878571Y-85464819D02*
X99821428Y-85607676D01*
X99821428Y-85607676D02*
X99764285Y-85702914D01*
X99764285Y-85702914D02*
X99707142Y-85750533D01*
X115300000Y-104559580D02*
X115271428Y-104607200D01*
X115271428Y-104607200D02*
X115185714Y-104654819D01*
X115185714Y-104654819D02*
X115128571Y-104654819D01*
X115128571Y-104654819D02*
X115042857Y-104607200D01*
X115042857Y-104607200D02*
X114985714Y-104511961D01*
X114985714Y-104511961D02*
X114957143Y-104416723D01*
X114957143Y-104416723D02*
X114928571Y-104226247D01*
X114928571Y-104226247D02*
X114928571Y-104083390D01*
X114928571Y-104083390D02*
X114957143Y-103892914D01*
X114957143Y-103892914D02*
X114985714Y-103797676D01*
X114985714Y-103797676D02*
X115042857Y-103702438D01*
X115042857Y-103702438D02*
X115128571Y-103654819D01*
X115128571Y-103654819D02*
X115185714Y-103654819D01*
X115185714Y-103654819D02*
X115271428Y-103702438D01*
X115271428Y-103702438D02*
X115300000Y-103750057D01*
X115528571Y-103750057D02*
X115557143Y-103702438D01*
X115557143Y-103702438D02*
X115614286Y-103654819D01*
X115614286Y-103654819D02*
X115757143Y-103654819D01*
X115757143Y-103654819D02*
X115814286Y-103702438D01*
X115814286Y-103702438D02*
X115842857Y-103750057D01*
X115842857Y-103750057D02*
X115871428Y-103845295D01*
X115871428Y-103845295D02*
X115871428Y-103940533D01*
X115871428Y-103940533D02*
X115842857Y-104083390D01*
X115842857Y-104083390D02*
X115500000Y-104654819D01*
X115500000Y-104654819D02*
X115871428Y-104654819D01*
X128100000Y-85854819D02*
X127900000Y-85378628D01*
X127757143Y-85854819D02*
X127757143Y-84854819D01*
X127757143Y-84854819D02*
X127985714Y-84854819D01*
X127985714Y-84854819D02*
X128042857Y-84902438D01*
X128042857Y-84902438D02*
X128071428Y-84950057D01*
X128071428Y-84950057D02*
X128100000Y-85045295D01*
X128100000Y-85045295D02*
X128100000Y-85188152D01*
X128100000Y-85188152D02*
X128071428Y-85283390D01*
X128071428Y-85283390D02*
X128042857Y-85331009D01*
X128042857Y-85331009D02*
X127985714Y-85378628D01*
X127985714Y-85378628D02*
X127757143Y-85378628D01*
X128671428Y-85854819D02*
X128328571Y-85854819D01*
X128500000Y-85854819D02*
X128500000Y-84854819D01*
X128500000Y-84854819D02*
X128442857Y-84997676D01*
X128442857Y-84997676D02*
X128385714Y-85092914D01*
X128385714Y-85092914D02*
X128328571Y-85140533D01*
X132859580Y-97585714D02*
X132907200Y-97614286D01*
X132907200Y-97614286D02*
X132954819Y-97700000D01*
X132954819Y-97700000D02*
X132954819Y-97757143D01*
X132954819Y-97757143D02*
X132907200Y-97842857D01*
X132907200Y-97842857D02*
X132811961Y-97900000D01*
X132811961Y-97900000D02*
X132716723Y-97928571D01*
X132716723Y-97928571D02*
X132526247Y-97957143D01*
X132526247Y-97957143D02*
X132383390Y-97957143D01*
X132383390Y-97957143D02*
X132192914Y-97928571D01*
X132192914Y-97928571D02*
X132097676Y-97900000D01*
X132097676Y-97900000D02*
X132002438Y-97842857D01*
X132002438Y-97842857D02*
X131954819Y-97757143D01*
X131954819Y-97757143D02*
X131954819Y-97700000D01*
X131954819Y-97700000D02*
X132002438Y-97614286D01*
X132002438Y-97614286D02*
X132050057Y-97585714D01*
X132954819Y-97014286D02*
X132954819Y-97357143D01*
X132954819Y-97185714D02*
X131954819Y-97185714D01*
X131954819Y-97185714D02*
X132097676Y-97242857D01*
X132097676Y-97242857D02*
X132192914Y-97300000D01*
X132192914Y-97300000D02*
X132240533Y-97357143D01*
X132954819Y-96442857D02*
X132954819Y-96785714D01*
X132954819Y-96614285D02*
X131954819Y-96614285D01*
X131954819Y-96614285D02*
X132097676Y-96671428D01*
X132097676Y-96671428D02*
X132192914Y-96728571D01*
X132192914Y-96728571D02*
X132240533Y-96785714D01*
X120714285Y-94359580D02*
X120685713Y-94407200D01*
X120685713Y-94407200D02*
X120599999Y-94454819D01*
X120599999Y-94454819D02*
X120542856Y-94454819D01*
X120542856Y-94454819D02*
X120457142Y-94407200D01*
X120457142Y-94407200D02*
X120399999Y-94311961D01*
X120399999Y-94311961D02*
X120371428Y-94216723D01*
X120371428Y-94216723D02*
X120342856Y-94026247D01*
X120342856Y-94026247D02*
X120342856Y-93883390D01*
X120342856Y-93883390D02*
X120371428Y-93692914D01*
X120371428Y-93692914D02*
X120399999Y-93597676D01*
X120399999Y-93597676D02*
X120457142Y-93502438D01*
X120457142Y-93502438D02*
X120542856Y-93454819D01*
X120542856Y-93454819D02*
X120599999Y-93454819D01*
X120599999Y-93454819D02*
X120685713Y-93502438D01*
X120685713Y-93502438D02*
X120714285Y-93550057D01*
X121285713Y-94454819D02*
X120942856Y-94454819D01*
X121114285Y-94454819D02*
X121114285Y-93454819D01*
X121114285Y-93454819D02*
X121057142Y-93597676D01*
X121057142Y-93597676D02*
X120999999Y-93692914D01*
X120999999Y-93692914D02*
X120942856Y-93740533D01*
X121800000Y-93454819D02*
X121685714Y-93454819D01*
X121685714Y-93454819D02*
X121628571Y-93502438D01*
X121628571Y-93502438D02*
X121600000Y-93550057D01*
X121600000Y-93550057D02*
X121542857Y-93692914D01*
X121542857Y-93692914D02*
X121514285Y-93883390D01*
X121514285Y-93883390D02*
X121514285Y-94264342D01*
X121514285Y-94264342D02*
X121542857Y-94359580D01*
X121542857Y-94359580D02*
X121571428Y-94407200D01*
X121571428Y-94407200D02*
X121628571Y-94454819D01*
X121628571Y-94454819D02*
X121742857Y-94454819D01*
X121742857Y-94454819D02*
X121800000Y-94407200D01*
X121800000Y-94407200D02*
X121828571Y-94359580D01*
X121828571Y-94359580D02*
X121857142Y-94264342D01*
X121857142Y-94264342D02*
X121857142Y-94026247D01*
X121857142Y-94026247D02*
X121828571Y-93931009D01*
X121828571Y-93931009D02*
X121800000Y-93883390D01*
X121800000Y-93883390D02*
X121742857Y-93835771D01*
X121742857Y-93835771D02*
X121628571Y-93835771D01*
X121628571Y-93835771D02*
X121571428Y-93883390D01*
X121571428Y-93883390D02*
X121542857Y-93931009D01*
X121542857Y-93931009D02*
X121514285Y-94026247D01*
X120700000Y-101454819D02*
X120500000Y-100978628D01*
X120357143Y-101454819D02*
X120357143Y-100454819D01*
X120357143Y-100454819D02*
X120585714Y-100454819D01*
X120585714Y-100454819D02*
X120642857Y-100502438D01*
X120642857Y-100502438D02*
X120671428Y-100550057D01*
X120671428Y-100550057D02*
X120700000Y-100645295D01*
X120700000Y-100645295D02*
X120700000Y-100788152D01*
X120700000Y-100788152D02*
X120671428Y-100883390D01*
X120671428Y-100883390D02*
X120642857Y-100931009D01*
X120642857Y-100931009D02*
X120585714Y-100978628D01*
X120585714Y-100978628D02*
X120357143Y-100978628D01*
X120900000Y-100454819D02*
X121271428Y-100454819D01*
X121271428Y-100454819D02*
X121071428Y-100835771D01*
X121071428Y-100835771D02*
X121157143Y-100835771D01*
X121157143Y-100835771D02*
X121214286Y-100883390D01*
X121214286Y-100883390D02*
X121242857Y-100931009D01*
X121242857Y-100931009D02*
X121271428Y-101026247D01*
X121271428Y-101026247D02*
X121271428Y-101264342D01*
X121271428Y-101264342D02*
X121242857Y-101359580D01*
X121242857Y-101359580D02*
X121214286Y-101407200D01*
X121214286Y-101407200D02*
X121157143Y-101454819D01*
X121157143Y-101454819D02*
X120985714Y-101454819D01*
X120985714Y-101454819D02*
X120928571Y-101407200D01*
X120928571Y-101407200D02*
X120900000Y-101359580D01*
X144559580Y-113185714D02*
X144607200Y-113214286D01*
X144607200Y-113214286D02*
X144654819Y-113300000D01*
X144654819Y-113300000D02*
X144654819Y-113357143D01*
X144654819Y-113357143D02*
X144607200Y-113442857D01*
X144607200Y-113442857D02*
X144511961Y-113500000D01*
X144511961Y-113500000D02*
X144416723Y-113528571D01*
X144416723Y-113528571D02*
X144226247Y-113557143D01*
X144226247Y-113557143D02*
X144083390Y-113557143D01*
X144083390Y-113557143D02*
X143892914Y-113528571D01*
X143892914Y-113528571D02*
X143797676Y-113500000D01*
X143797676Y-113500000D02*
X143702438Y-113442857D01*
X143702438Y-113442857D02*
X143654819Y-113357143D01*
X143654819Y-113357143D02*
X143654819Y-113300000D01*
X143654819Y-113300000D02*
X143702438Y-113214286D01*
X143702438Y-113214286D02*
X143750057Y-113185714D01*
X143750057Y-112957143D02*
X143702438Y-112928571D01*
X143702438Y-112928571D02*
X143654819Y-112871429D01*
X143654819Y-112871429D02*
X143654819Y-112728571D01*
X143654819Y-112728571D02*
X143702438Y-112671429D01*
X143702438Y-112671429D02*
X143750057Y-112642857D01*
X143750057Y-112642857D02*
X143845295Y-112614286D01*
X143845295Y-112614286D02*
X143940533Y-112614286D01*
X143940533Y-112614286D02*
X144083390Y-112642857D01*
X144083390Y-112642857D02*
X144654819Y-112985714D01*
X144654819Y-112985714D02*
X144654819Y-112614286D01*
X143750057Y-112385714D02*
X143702438Y-112357142D01*
X143702438Y-112357142D02*
X143654819Y-112300000D01*
X143654819Y-112300000D02*
X143654819Y-112157142D01*
X143654819Y-112157142D02*
X143702438Y-112100000D01*
X143702438Y-112100000D02*
X143750057Y-112071428D01*
X143750057Y-112071428D02*
X143845295Y-112042857D01*
X143845295Y-112042857D02*
X143940533Y-112042857D01*
X143940533Y-112042857D02*
X144083390Y-112071428D01*
X144083390Y-112071428D02*
X144654819Y-112414285D01*
X144654819Y-112414285D02*
X144654819Y-112042857D01*
X146814285Y-91159580D02*
X146785713Y-91207200D01*
X146785713Y-91207200D02*
X146699999Y-91254819D01*
X146699999Y-91254819D02*
X146642856Y-91254819D01*
X146642856Y-91254819D02*
X146557142Y-91207200D01*
X146557142Y-91207200D02*
X146499999Y-91111961D01*
X146499999Y-91111961D02*
X146471428Y-91016723D01*
X146471428Y-91016723D02*
X146442856Y-90826247D01*
X146442856Y-90826247D02*
X146442856Y-90683390D01*
X146442856Y-90683390D02*
X146471428Y-90492914D01*
X146471428Y-90492914D02*
X146499999Y-90397676D01*
X146499999Y-90397676D02*
X146557142Y-90302438D01*
X146557142Y-90302438D02*
X146642856Y-90254819D01*
X146642856Y-90254819D02*
X146699999Y-90254819D01*
X146699999Y-90254819D02*
X146785713Y-90302438D01*
X146785713Y-90302438D02*
X146814285Y-90350057D01*
X147042856Y-90350057D02*
X147071428Y-90302438D01*
X147071428Y-90302438D02*
X147128571Y-90254819D01*
X147128571Y-90254819D02*
X147271428Y-90254819D01*
X147271428Y-90254819D02*
X147328571Y-90302438D01*
X147328571Y-90302438D02*
X147357142Y-90350057D01*
X147357142Y-90350057D02*
X147385713Y-90445295D01*
X147385713Y-90445295D02*
X147385713Y-90540533D01*
X147385713Y-90540533D02*
X147357142Y-90683390D01*
X147357142Y-90683390D02*
X147014285Y-91254819D01*
X147014285Y-91254819D02*
X147385713Y-91254819D01*
X147585714Y-90254819D02*
X147957142Y-90254819D01*
X147957142Y-90254819D02*
X147757142Y-90635771D01*
X147757142Y-90635771D02*
X147842857Y-90635771D01*
X147842857Y-90635771D02*
X147900000Y-90683390D01*
X147900000Y-90683390D02*
X147928571Y-90731009D01*
X147928571Y-90731009D02*
X147957142Y-90826247D01*
X147957142Y-90826247D02*
X147957142Y-91064342D01*
X147957142Y-91064342D02*
X147928571Y-91159580D01*
X147928571Y-91159580D02*
X147900000Y-91207200D01*
X147900000Y-91207200D02*
X147842857Y-91254819D01*
X147842857Y-91254819D02*
X147671428Y-91254819D01*
X147671428Y-91254819D02*
X147614285Y-91207200D01*
X147614285Y-91207200D02*
X147585714Y-91159580D01*
X128500000Y-101654819D02*
X128300000Y-101178628D01*
X128157143Y-101654819D02*
X128157143Y-100654819D01*
X128157143Y-100654819D02*
X128385714Y-100654819D01*
X128385714Y-100654819D02*
X128442857Y-100702438D01*
X128442857Y-100702438D02*
X128471428Y-100750057D01*
X128471428Y-100750057D02*
X128500000Y-100845295D01*
X128500000Y-100845295D02*
X128500000Y-100988152D01*
X128500000Y-100988152D02*
X128471428Y-101083390D01*
X128471428Y-101083390D02*
X128442857Y-101131009D01*
X128442857Y-101131009D02*
X128385714Y-101178628D01*
X128385714Y-101178628D02*
X128157143Y-101178628D01*
X128785714Y-101654819D02*
X128900000Y-101654819D01*
X128900000Y-101654819D02*
X128957143Y-101607200D01*
X128957143Y-101607200D02*
X128985714Y-101559580D01*
X128985714Y-101559580D02*
X129042857Y-101416723D01*
X129042857Y-101416723D02*
X129071428Y-101226247D01*
X129071428Y-101226247D02*
X129071428Y-100845295D01*
X129071428Y-100845295D02*
X129042857Y-100750057D01*
X129042857Y-100750057D02*
X129014286Y-100702438D01*
X129014286Y-100702438D02*
X128957143Y-100654819D01*
X128957143Y-100654819D02*
X128842857Y-100654819D01*
X128842857Y-100654819D02*
X128785714Y-100702438D01*
X128785714Y-100702438D02*
X128757143Y-100750057D01*
X128757143Y-100750057D02*
X128728571Y-100845295D01*
X128728571Y-100845295D02*
X128728571Y-101083390D01*
X128728571Y-101083390D02*
X128757143Y-101178628D01*
X128757143Y-101178628D02*
X128785714Y-101226247D01*
X128785714Y-101226247D02*
X128842857Y-101273866D01*
X128842857Y-101273866D02*
X128957143Y-101273866D01*
X128957143Y-101273866D02*
X129014286Y-101226247D01*
X129014286Y-101226247D02*
X129042857Y-101178628D01*
X129042857Y-101178628D02*
X129071428Y-101083390D01*
X148902080Y-102349999D02*
X148949700Y-102378571D01*
X148949700Y-102378571D02*
X148997319Y-102464285D01*
X148997319Y-102464285D02*
X148997319Y-102521428D01*
X148997319Y-102521428D02*
X148949700Y-102607142D01*
X148949700Y-102607142D02*
X148854461Y-102664285D01*
X148854461Y-102664285D02*
X148759223Y-102692856D01*
X148759223Y-102692856D02*
X148568747Y-102721428D01*
X148568747Y-102721428D02*
X148425890Y-102721428D01*
X148425890Y-102721428D02*
X148235414Y-102692856D01*
X148235414Y-102692856D02*
X148140176Y-102664285D01*
X148140176Y-102664285D02*
X148044938Y-102607142D01*
X148044938Y-102607142D02*
X147997319Y-102521428D01*
X147997319Y-102521428D02*
X147997319Y-102464285D01*
X147997319Y-102464285D02*
X148044938Y-102378571D01*
X148044938Y-102378571D02*
X148092557Y-102349999D01*
X147997319Y-102149999D02*
X147997319Y-101749999D01*
X147997319Y-101749999D02*
X148997319Y-102007142D01*
X157192856Y-98554819D02*
X157535714Y-98554819D01*
X157364285Y-99554819D02*
X157364285Y-98554819D01*
X157735714Y-99554819D02*
X157735714Y-98554819D01*
X157735714Y-98554819D02*
X157964285Y-98554819D01*
X157964285Y-98554819D02*
X158021428Y-98602438D01*
X158021428Y-98602438D02*
X158049999Y-98650057D01*
X158049999Y-98650057D02*
X158078571Y-98745295D01*
X158078571Y-98745295D02*
X158078571Y-98888152D01*
X158078571Y-98888152D02*
X158049999Y-98983390D01*
X158049999Y-98983390D02*
X158021428Y-99031009D01*
X158021428Y-99031009D02*
X157964285Y-99078628D01*
X157964285Y-99078628D02*
X157735714Y-99078628D01*
X158592857Y-98888152D02*
X158592857Y-99554819D01*
X158449999Y-98507200D02*
X158307142Y-99221485D01*
X158307142Y-99221485D02*
X158678571Y-99221485D01*
X115554819Y-111985714D02*
X115078628Y-112185714D01*
X115554819Y-112328571D02*
X114554819Y-112328571D01*
X114554819Y-112328571D02*
X114554819Y-112100000D01*
X114554819Y-112100000D02*
X114602438Y-112042857D01*
X114602438Y-112042857D02*
X114650057Y-112014286D01*
X114650057Y-112014286D02*
X114745295Y-111985714D01*
X114745295Y-111985714D02*
X114888152Y-111985714D01*
X114888152Y-111985714D02*
X114983390Y-112014286D01*
X114983390Y-112014286D02*
X115031009Y-112042857D01*
X115031009Y-112042857D02*
X115078628Y-112100000D01*
X115078628Y-112100000D02*
X115078628Y-112328571D01*
X114650057Y-111757143D02*
X114602438Y-111728571D01*
X114602438Y-111728571D02*
X114554819Y-111671429D01*
X114554819Y-111671429D02*
X114554819Y-111528571D01*
X114554819Y-111528571D02*
X114602438Y-111471429D01*
X114602438Y-111471429D02*
X114650057Y-111442857D01*
X114650057Y-111442857D02*
X114745295Y-111414286D01*
X114745295Y-111414286D02*
X114840533Y-111414286D01*
X114840533Y-111414286D02*
X114983390Y-111442857D01*
X114983390Y-111442857D02*
X115554819Y-111785714D01*
X115554819Y-111785714D02*
X115554819Y-111414286D01*
X114888152Y-110900000D02*
X115554819Y-110900000D01*
X114507200Y-111042857D02*
X115221485Y-111185714D01*
X115221485Y-111185714D02*
X115221485Y-110814285D01*
X132814285Y-119854819D02*
X132614285Y-119378628D01*
X132471428Y-119854819D02*
X132471428Y-118854819D01*
X132471428Y-118854819D02*
X132699999Y-118854819D01*
X132699999Y-118854819D02*
X132757142Y-118902438D01*
X132757142Y-118902438D02*
X132785713Y-118950057D01*
X132785713Y-118950057D02*
X132814285Y-119045295D01*
X132814285Y-119045295D02*
X132814285Y-119188152D01*
X132814285Y-119188152D02*
X132785713Y-119283390D01*
X132785713Y-119283390D02*
X132757142Y-119331009D01*
X132757142Y-119331009D02*
X132699999Y-119378628D01*
X132699999Y-119378628D02*
X132471428Y-119378628D01*
X133385713Y-119854819D02*
X133042856Y-119854819D01*
X133214285Y-119854819D02*
X133214285Y-118854819D01*
X133214285Y-118854819D02*
X133157142Y-118997676D01*
X133157142Y-118997676D02*
X133099999Y-119092914D01*
X133099999Y-119092914D02*
X133042856Y-119140533D01*
X133928571Y-118854819D02*
X133642857Y-118854819D01*
X133642857Y-118854819D02*
X133614285Y-119331009D01*
X133614285Y-119331009D02*
X133642857Y-119283390D01*
X133642857Y-119283390D02*
X133700000Y-119235771D01*
X133700000Y-119235771D02*
X133842857Y-119235771D01*
X133842857Y-119235771D02*
X133900000Y-119283390D01*
X133900000Y-119283390D02*
X133928571Y-119331009D01*
X133928571Y-119331009D02*
X133957142Y-119426247D01*
X133957142Y-119426247D02*
X133957142Y-119664342D01*
X133957142Y-119664342D02*
X133928571Y-119759580D01*
X133928571Y-119759580D02*
X133900000Y-119807200D01*
X133900000Y-119807200D02*
X133842857Y-119854819D01*
X133842857Y-119854819D02*
X133700000Y-119854819D01*
X133700000Y-119854819D02*
X133642857Y-119807200D01*
X133642857Y-119807200D02*
X133614285Y-119759580D01*
X138854819Y-105999999D02*
X138378628Y-106199999D01*
X138854819Y-106342856D02*
X137854819Y-106342856D01*
X137854819Y-106342856D02*
X137854819Y-106114285D01*
X137854819Y-106114285D02*
X137902438Y-106057142D01*
X137902438Y-106057142D02*
X137950057Y-106028571D01*
X137950057Y-106028571D02*
X138045295Y-105999999D01*
X138045295Y-105999999D02*
X138188152Y-105999999D01*
X138188152Y-105999999D02*
X138283390Y-106028571D01*
X138283390Y-106028571D02*
X138331009Y-106057142D01*
X138331009Y-106057142D02*
X138378628Y-106114285D01*
X138378628Y-106114285D02*
X138378628Y-106342856D01*
X137854819Y-105457142D02*
X137854819Y-105742856D01*
X137854819Y-105742856D02*
X138331009Y-105771428D01*
X138331009Y-105771428D02*
X138283390Y-105742856D01*
X138283390Y-105742856D02*
X138235771Y-105685714D01*
X138235771Y-105685714D02*
X138235771Y-105542856D01*
X138235771Y-105542856D02*
X138283390Y-105485714D01*
X138283390Y-105485714D02*
X138331009Y-105457142D01*
X138331009Y-105457142D02*
X138426247Y-105428571D01*
X138426247Y-105428571D02*
X138664342Y-105428571D01*
X138664342Y-105428571D02*
X138759580Y-105457142D01*
X138759580Y-105457142D02*
X138807200Y-105485714D01*
X138807200Y-105485714D02*
X138854819Y-105542856D01*
X138854819Y-105542856D02*
X138854819Y-105685714D01*
X138854819Y-105685714D02*
X138807200Y-105742856D01*
X138807200Y-105742856D02*
X138759580Y-105771428D01*
X107642857Y-108944819D02*
X107642857Y-109754342D01*
X107642857Y-109754342D02*
X107671428Y-109849580D01*
X107671428Y-109849580D02*
X107700000Y-109897200D01*
X107700000Y-109897200D02*
X107757142Y-109944819D01*
X107757142Y-109944819D02*
X107871428Y-109944819D01*
X107871428Y-109944819D02*
X107928571Y-109897200D01*
X107928571Y-109897200D02*
X107957142Y-109849580D01*
X107957142Y-109849580D02*
X107985714Y-109754342D01*
X107985714Y-109754342D02*
X107985714Y-108944819D01*
X108214285Y-108944819D02*
X108614285Y-108944819D01*
X108614285Y-108944819D02*
X108357142Y-109944819D01*
X108900000Y-84459580D02*
X108871428Y-84507200D01*
X108871428Y-84507200D02*
X108785714Y-84554819D01*
X108785714Y-84554819D02*
X108728571Y-84554819D01*
X108728571Y-84554819D02*
X108642857Y-84507200D01*
X108642857Y-84507200D02*
X108585714Y-84411961D01*
X108585714Y-84411961D02*
X108557143Y-84316723D01*
X108557143Y-84316723D02*
X108528571Y-84126247D01*
X108528571Y-84126247D02*
X108528571Y-83983390D01*
X108528571Y-83983390D02*
X108557143Y-83792914D01*
X108557143Y-83792914D02*
X108585714Y-83697676D01*
X108585714Y-83697676D02*
X108642857Y-83602438D01*
X108642857Y-83602438D02*
X108728571Y-83554819D01*
X108728571Y-83554819D02*
X108785714Y-83554819D01*
X108785714Y-83554819D02*
X108871428Y-83602438D01*
X108871428Y-83602438D02*
X108900000Y-83650057D01*
X109414286Y-83554819D02*
X109300000Y-83554819D01*
X109300000Y-83554819D02*
X109242857Y-83602438D01*
X109242857Y-83602438D02*
X109214286Y-83650057D01*
X109214286Y-83650057D02*
X109157143Y-83792914D01*
X109157143Y-83792914D02*
X109128571Y-83983390D01*
X109128571Y-83983390D02*
X109128571Y-84364342D01*
X109128571Y-84364342D02*
X109157143Y-84459580D01*
X109157143Y-84459580D02*
X109185714Y-84507200D01*
X109185714Y-84507200D02*
X109242857Y-84554819D01*
X109242857Y-84554819D02*
X109357143Y-84554819D01*
X109357143Y-84554819D02*
X109414286Y-84507200D01*
X109414286Y-84507200D02*
X109442857Y-84459580D01*
X109442857Y-84459580D02*
X109471428Y-84364342D01*
X109471428Y-84364342D02*
X109471428Y-84126247D01*
X109471428Y-84126247D02*
X109442857Y-84031009D01*
X109442857Y-84031009D02*
X109414286Y-83983390D01*
X109414286Y-83983390D02*
X109357143Y-83935771D01*
X109357143Y-83935771D02*
X109242857Y-83935771D01*
X109242857Y-83935771D02*
X109185714Y-83983390D01*
X109185714Y-83983390D02*
X109157143Y-84031009D01*
X109157143Y-84031009D02*
X109128571Y-84126247D01*
X122914285Y-115854819D02*
X122714285Y-115378628D01*
X122571428Y-115854819D02*
X122571428Y-114854819D01*
X122571428Y-114854819D02*
X122799999Y-114854819D01*
X122799999Y-114854819D02*
X122857142Y-114902438D01*
X122857142Y-114902438D02*
X122885713Y-114950057D01*
X122885713Y-114950057D02*
X122914285Y-115045295D01*
X122914285Y-115045295D02*
X122914285Y-115188152D01*
X122914285Y-115188152D02*
X122885713Y-115283390D01*
X122885713Y-115283390D02*
X122857142Y-115331009D01*
X122857142Y-115331009D02*
X122799999Y-115378628D01*
X122799999Y-115378628D02*
X122571428Y-115378628D01*
X123485713Y-115854819D02*
X123142856Y-115854819D01*
X123314285Y-115854819D02*
X123314285Y-114854819D01*
X123314285Y-114854819D02*
X123257142Y-114997676D01*
X123257142Y-114997676D02*
X123199999Y-115092914D01*
X123199999Y-115092914D02*
X123142856Y-115140533D01*
X124000000Y-115188152D02*
X124000000Y-115854819D01*
X123857142Y-114807200D02*
X123714285Y-115521485D01*
X123714285Y-115521485D02*
X124085714Y-115521485D01*
X119059580Y-112285714D02*
X119107200Y-112314286D01*
X119107200Y-112314286D02*
X119154819Y-112400000D01*
X119154819Y-112400000D02*
X119154819Y-112457143D01*
X119154819Y-112457143D02*
X119107200Y-112542857D01*
X119107200Y-112542857D02*
X119011961Y-112600000D01*
X119011961Y-112600000D02*
X118916723Y-112628571D01*
X118916723Y-112628571D02*
X118726247Y-112657143D01*
X118726247Y-112657143D02*
X118583390Y-112657143D01*
X118583390Y-112657143D02*
X118392914Y-112628571D01*
X118392914Y-112628571D02*
X118297676Y-112600000D01*
X118297676Y-112600000D02*
X118202438Y-112542857D01*
X118202438Y-112542857D02*
X118154819Y-112457143D01*
X118154819Y-112457143D02*
X118154819Y-112400000D01*
X118154819Y-112400000D02*
X118202438Y-112314286D01*
X118202438Y-112314286D02*
X118250057Y-112285714D01*
X118154819Y-112085714D02*
X118154819Y-111714286D01*
X118154819Y-111714286D02*
X118535771Y-111914286D01*
X118535771Y-111914286D02*
X118535771Y-111828571D01*
X118535771Y-111828571D02*
X118583390Y-111771429D01*
X118583390Y-111771429D02*
X118631009Y-111742857D01*
X118631009Y-111742857D02*
X118726247Y-111714286D01*
X118726247Y-111714286D02*
X118964342Y-111714286D01*
X118964342Y-111714286D02*
X119059580Y-111742857D01*
X119059580Y-111742857D02*
X119107200Y-111771429D01*
X119107200Y-111771429D02*
X119154819Y-111828571D01*
X119154819Y-111828571D02*
X119154819Y-112000000D01*
X119154819Y-112000000D02*
X119107200Y-112057143D01*
X119107200Y-112057143D02*
X119059580Y-112085714D01*
X118154819Y-111514285D02*
X118154819Y-111114285D01*
X118154819Y-111114285D02*
X119154819Y-111371428D01*
X144842857Y-104354819D02*
X144842857Y-105164342D01*
X144842857Y-105164342D02*
X144871428Y-105259580D01*
X144871428Y-105259580D02*
X144900000Y-105307200D01*
X144900000Y-105307200D02*
X144957142Y-105354819D01*
X144957142Y-105354819D02*
X145071428Y-105354819D01*
X145071428Y-105354819D02*
X145128571Y-105307200D01*
X145128571Y-105307200D02*
X145157142Y-105259580D01*
X145157142Y-105259580D02*
X145185714Y-105164342D01*
X145185714Y-105164342D02*
X145185714Y-104354819D01*
X145557142Y-104783390D02*
X145499999Y-104735771D01*
X145499999Y-104735771D02*
X145471428Y-104688152D01*
X145471428Y-104688152D02*
X145442856Y-104592914D01*
X145442856Y-104592914D02*
X145442856Y-104545295D01*
X145442856Y-104545295D02*
X145471428Y-104450057D01*
X145471428Y-104450057D02*
X145499999Y-104402438D01*
X145499999Y-104402438D02*
X145557142Y-104354819D01*
X145557142Y-104354819D02*
X145671428Y-104354819D01*
X145671428Y-104354819D02*
X145728571Y-104402438D01*
X145728571Y-104402438D02*
X145757142Y-104450057D01*
X145757142Y-104450057D02*
X145785713Y-104545295D01*
X145785713Y-104545295D02*
X145785713Y-104592914D01*
X145785713Y-104592914D02*
X145757142Y-104688152D01*
X145757142Y-104688152D02*
X145728571Y-104735771D01*
X145728571Y-104735771D02*
X145671428Y-104783390D01*
X145671428Y-104783390D02*
X145557142Y-104783390D01*
X145557142Y-104783390D02*
X145499999Y-104831009D01*
X145499999Y-104831009D02*
X145471428Y-104878628D01*
X145471428Y-104878628D02*
X145442856Y-104973866D01*
X145442856Y-104973866D02*
X145442856Y-105164342D01*
X145442856Y-105164342D02*
X145471428Y-105259580D01*
X145471428Y-105259580D02*
X145499999Y-105307200D01*
X145499999Y-105307200D02*
X145557142Y-105354819D01*
X145557142Y-105354819D02*
X145671428Y-105354819D01*
X145671428Y-105354819D02*
X145728571Y-105307200D01*
X145728571Y-105307200D02*
X145757142Y-105259580D01*
X145757142Y-105259580D02*
X145785713Y-105164342D01*
X145785713Y-105164342D02*
X145785713Y-104973866D01*
X145785713Y-104973866D02*
X145757142Y-104878628D01*
X145757142Y-104878628D02*
X145728571Y-104831009D01*
X145728571Y-104831009D02*
X145671428Y-104783390D01*
X129959580Y-120585714D02*
X130007200Y-120614286D01*
X130007200Y-120614286D02*
X130054819Y-120700000D01*
X130054819Y-120700000D02*
X130054819Y-120757143D01*
X130054819Y-120757143D02*
X130007200Y-120842857D01*
X130007200Y-120842857D02*
X129911961Y-120900000D01*
X129911961Y-120900000D02*
X129816723Y-120928571D01*
X129816723Y-120928571D02*
X129626247Y-120957143D01*
X129626247Y-120957143D02*
X129483390Y-120957143D01*
X129483390Y-120957143D02*
X129292914Y-120928571D01*
X129292914Y-120928571D02*
X129197676Y-120900000D01*
X129197676Y-120900000D02*
X129102438Y-120842857D01*
X129102438Y-120842857D02*
X129054819Y-120757143D01*
X129054819Y-120757143D02*
X129054819Y-120700000D01*
X129054819Y-120700000D02*
X129102438Y-120614286D01*
X129102438Y-120614286D02*
X129150057Y-120585714D01*
X129150057Y-120357143D02*
X129102438Y-120328571D01*
X129102438Y-120328571D02*
X129054819Y-120271429D01*
X129054819Y-120271429D02*
X129054819Y-120128571D01*
X129054819Y-120128571D02*
X129102438Y-120071429D01*
X129102438Y-120071429D02*
X129150057Y-120042857D01*
X129150057Y-120042857D02*
X129245295Y-120014286D01*
X129245295Y-120014286D02*
X129340533Y-120014286D01*
X129340533Y-120014286D02*
X129483390Y-120042857D01*
X129483390Y-120042857D02*
X130054819Y-120385714D01*
X130054819Y-120385714D02*
X130054819Y-120014286D01*
X130054819Y-119442857D02*
X130054819Y-119785714D01*
X130054819Y-119614285D02*
X129054819Y-119614285D01*
X129054819Y-119614285D02*
X129197676Y-119671428D01*
X129197676Y-119671428D02*
X129292914Y-119728571D01*
X129292914Y-119728571D02*
X129340533Y-119785714D01*
X106100000Y-84459580D02*
X106071428Y-84507200D01*
X106071428Y-84507200D02*
X105985714Y-84554819D01*
X105985714Y-84554819D02*
X105928571Y-84554819D01*
X105928571Y-84554819D02*
X105842857Y-84507200D01*
X105842857Y-84507200D02*
X105785714Y-84411961D01*
X105785714Y-84411961D02*
X105757143Y-84316723D01*
X105757143Y-84316723D02*
X105728571Y-84126247D01*
X105728571Y-84126247D02*
X105728571Y-83983390D01*
X105728571Y-83983390D02*
X105757143Y-83792914D01*
X105757143Y-83792914D02*
X105785714Y-83697676D01*
X105785714Y-83697676D02*
X105842857Y-83602438D01*
X105842857Y-83602438D02*
X105928571Y-83554819D01*
X105928571Y-83554819D02*
X105985714Y-83554819D01*
X105985714Y-83554819D02*
X106071428Y-83602438D01*
X106071428Y-83602438D02*
X106100000Y-83650057D01*
X106442857Y-83983390D02*
X106385714Y-83935771D01*
X106385714Y-83935771D02*
X106357143Y-83888152D01*
X106357143Y-83888152D02*
X106328571Y-83792914D01*
X106328571Y-83792914D02*
X106328571Y-83745295D01*
X106328571Y-83745295D02*
X106357143Y-83650057D01*
X106357143Y-83650057D02*
X106385714Y-83602438D01*
X106385714Y-83602438D02*
X106442857Y-83554819D01*
X106442857Y-83554819D02*
X106557143Y-83554819D01*
X106557143Y-83554819D02*
X106614286Y-83602438D01*
X106614286Y-83602438D02*
X106642857Y-83650057D01*
X106642857Y-83650057D02*
X106671428Y-83745295D01*
X106671428Y-83745295D02*
X106671428Y-83792914D01*
X106671428Y-83792914D02*
X106642857Y-83888152D01*
X106642857Y-83888152D02*
X106614286Y-83935771D01*
X106614286Y-83935771D02*
X106557143Y-83983390D01*
X106557143Y-83983390D02*
X106442857Y-83983390D01*
X106442857Y-83983390D02*
X106385714Y-84031009D01*
X106385714Y-84031009D02*
X106357143Y-84078628D01*
X106357143Y-84078628D02*
X106328571Y-84173866D01*
X106328571Y-84173866D02*
X106328571Y-84364342D01*
X106328571Y-84364342D02*
X106357143Y-84459580D01*
X106357143Y-84459580D02*
X106385714Y-84507200D01*
X106385714Y-84507200D02*
X106442857Y-84554819D01*
X106442857Y-84554819D02*
X106557143Y-84554819D01*
X106557143Y-84554819D02*
X106614286Y-84507200D01*
X106614286Y-84507200D02*
X106642857Y-84459580D01*
X106642857Y-84459580D02*
X106671428Y-84364342D01*
X106671428Y-84364342D02*
X106671428Y-84173866D01*
X106671428Y-84173866D02*
X106642857Y-84078628D01*
X106642857Y-84078628D02*
X106614286Y-84031009D01*
X106614286Y-84031009D02*
X106557143Y-83983390D01*
X111800000Y-88459580D02*
X111771428Y-88507200D01*
X111771428Y-88507200D02*
X111685714Y-88554819D01*
X111685714Y-88554819D02*
X111628571Y-88554819D01*
X111628571Y-88554819D02*
X111542857Y-88507200D01*
X111542857Y-88507200D02*
X111485714Y-88411961D01*
X111485714Y-88411961D02*
X111457143Y-88316723D01*
X111457143Y-88316723D02*
X111428571Y-88126247D01*
X111428571Y-88126247D02*
X111428571Y-87983390D01*
X111428571Y-87983390D02*
X111457143Y-87792914D01*
X111457143Y-87792914D02*
X111485714Y-87697676D01*
X111485714Y-87697676D02*
X111542857Y-87602438D01*
X111542857Y-87602438D02*
X111628571Y-87554819D01*
X111628571Y-87554819D02*
X111685714Y-87554819D01*
X111685714Y-87554819D02*
X111771428Y-87602438D01*
X111771428Y-87602438D02*
X111800000Y-87650057D01*
X112085714Y-88554819D02*
X112200000Y-88554819D01*
X112200000Y-88554819D02*
X112257143Y-88507200D01*
X112257143Y-88507200D02*
X112285714Y-88459580D01*
X112285714Y-88459580D02*
X112342857Y-88316723D01*
X112342857Y-88316723D02*
X112371428Y-88126247D01*
X112371428Y-88126247D02*
X112371428Y-87745295D01*
X112371428Y-87745295D02*
X112342857Y-87650057D01*
X112342857Y-87650057D02*
X112314286Y-87602438D01*
X112314286Y-87602438D02*
X112257143Y-87554819D01*
X112257143Y-87554819D02*
X112142857Y-87554819D01*
X112142857Y-87554819D02*
X112085714Y-87602438D01*
X112085714Y-87602438D02*
X112057143Y-87650057D01*
X112057143Y-87650057D02*
X112028571Y-87745295D01*
X112028571Y-87745295D02*
X112028571Y-87983390D01*
X112028571Y-87983390D02*
X112057143Y-88078628D01*
X112057143Y-88078628D02*
X112085714Y-88126247D01*
X112085714Y-88126247D02*
X112142857Y-88173866D01*
X112142857Y-88173866D02*
X112257143Y-88173866D01*
X112257143Y-88173866D02*
X112314286Y-88126247D01*
X112314286Y-88126247D02*
X112342857Y-88078628D01*
X112342857Y-88078628D02*
X112371428Y-87983390D01*
X147014285Y-89459580D02*
X146985713Y-89507200D01*
X146985713Y-89507200D02*
X146899999Y-89554819D01*
X146899999Y-89554819D02*
X146842856Y-89554819D01*
X146842856Y-89554819D02*
X146757142Y-89507200D01*
X146757142Y-89507200D02*
X146699999Y-89411961D01*
X146699999Y-89411961D02*
X146671428Y-89316723D01*
X146671428Y-89316723D02*
X146642856Y-89126247D01*
X146642856Y-89126247D02*
X146642856Y-88983390D01*
X146642856Y-88983390D02*
X146671428Y-88792914D01*
X146671428Y-88792914D02*
X146699999Y-88697676D01*
X146699999Y-88697676D02*
X146757142Y-88602438D01*
X146757142Y-88602438D02*
X146842856Y-88554819D01*
X146842856Y-88554819D02*
X146899999Y-88554819D01*
X146899999Y-88554819D02*
X146985713Y-88602438D01*
X146985713Y-88602438D02*
X147014285Y-88650057D01*
X147242856Y-88650057D02*
X147271428Y-88602438D01*
X147271428Y-88602438D02*
X147328571Y-88554819D01*
X147328571Y-88554819D02*
X147471428Y-88554819D01*
X147471428Y-88554819D02*
X147528571Y-88602438D01*
X147528571Y-88602438D02*
X147557142Y-88650057D01*
X147557142Y-88650057D02*
X147585713Y-88745295D01*
X147585713Y-88745295D02*
X147585713Y-88840533D01*
X147585713Y-88840533D02*
X147557142Y-88983390D01*
X147557142Y-88983390D02*
X147214285Y-89554819D01*
X147214285Y-89554819D02*
X147585713Y-89554819D01*
X148100000Y-88888152D02*
X148100000Y-89554819D01*
X147957142Y-88507200D02*
X147814285Y-89221485D01*
X147814285Y-89221485D02*
X148185714Y-89221485D01*
X125914285Y-91254819D02*
X125714285Y-90778628D01*
X125571428Y-91254819D02*
X125571428Y-90254819D01*
X125571428Y-90254819D02*
X125799999Y-90254819D01*
X125799999Y-90254819D02*
X125857142Y-90302438D01*
X125857142Y-90302438D02*
X125885713Y-90350057D01*
X125885713Y-90350057D02*
X125914285Y-90445295D01*
X125914285Y-90445295D02*
X125914285Y-90588152D01*
X125914285Y-90588152D02*
X125885713Y-90683390D01*
X125885713Y-90683390D02*
X125857142Y-90731009D01*
X125857142Y-90731009D02*
X125799999Y-90778628D01*
X125799999Y-90778628D02*
X125571428Y-90778628D01*
X126485713Y-91254819D02*
X126142856Y-91254819D01*
X126314285Y-91254819D02*
X126314285Y-90254819D01*
X126314285Y-90254819D02*
X126257142Y-90397676D01*
X126257142Y-90397676D02*
X126199999Y-90492914D01*
X126199999Y-90492914D02*
X126142856Y-90540533D01*
X126714285Y-90350057D02*
X126742857Y-90302438D01*
X126742857Y-90302438D02*
X126800000Y-90254819D01*
X126800000Y-90254819D02*
X126942857Y-90254819D01*
X126942857Y-90254819D02*
X127000000Y-90302438D01*
X127000000Y-90302438D02*
X127028571Y-90350057D01*
X127028571Y-90350057D02*
X127057142Y-90445295D01*
X127057142Y-90445295D02*
X127057142Y-90540533D01*
X127057142Y-90540533D02*
X127028571Y-90683390D01*
X127028571Y-90683390D02*
X126685714Y-91254819D01*
X126685714Y-91254819D02*
X127057142Y-91254819D01*
X123114285Y-104759580D02*
X123085713Y-104807200D01*
X123085713Y-104807200D02*
X122999999Y-104854819D01*
X122999999Y-104854819D02*
X122942856Y-104854819D01*
X122942856Y-104854819D02*
X122857142Y-104807200D01*
X122857142Y-104807200D02*
X122799999Y-104711961D01*
X122799999Y-104711961D02*
X122771428Y-104616723D01*
X122771428Y-104616723D02*
X122742856Y-104426247D01*
X122742856Y-104426247D02*
X122742856Y-104283390D01*
X122742856Y-104283390D02*
X122771428Y-104092914D01*
X122771428Y-104092914D02*
X122799999Y-103997676D01*
X122799999Y-103997676D02*
X122857142Y-103902438D01*
X122857142Y-103902438D02*
X122942856Y-103854819D01*
X122942856Y-103854819D02*
X122999999Y-103854819D01*
X122999999Y-103854819D02*
X123085713Y-103902438D01*
X123085713Y-103902438D02*
X123114285Y-103950057D01*
X123314285Y-103854819D02*
X123685713Y-103854819D01*
X123685713Y-103854819D02*
X123485713Y-104235771D01*
X123485713Y-104235771D02*
X123571428Y-104235771D01*
X123571428Y-104235771D02*
X123628571Y-104283390D01*
X123628571Y-104283390D02*
X123657142Y-104331009D01*
X123657142Y-104331009D02*
X123685713Y-104426247D01*
X123685713Y-104426247D02*
X123685713Y-104664342D01*
X123685713Y-104664342D02*
X123657142Y-104759580D01*
X123657142Y-104759580D02*
X123628571Y-104807200D01*
X123628571Y-104807200D02*
X123571428Y-104854819D01*
X123571428Y-104854819D02*
X123399999Y-104854819D01*
X123399999Y-104854819D02*
X123342856Y-104807200D01*
X123342856Y-104807200D02*
X123314285Y-104759580D01*
X124200000Y-103854819D02*
X124085714Y-103854819D01*
X124085714Y-103854819D02*
X124028571Y-103902438D01*
X124028571Y-103902438D02*
X124000000Y-103950057D01*
X124000000Y-103950057D02*
X123942857Y-104092914D01*
X123942857Y-104092914D02*
X123914285Y-104283390D01*
X123914285Y-104283390D02*
X123914285Y-104664342D01*
X123914285Y-104664342D02*
X123942857Y-104759580D01*
X123942857Y-104759580D02*
X123971428Y-104807200D01*
X123971428Y-104807200D02*
X124028571Y-104854819D01*
X124028571Y-104854819D02*
X124142857Y-104854819D01*
X124142857Y-104854819D02*
X124200000Y-104807200D01*
X124200000Y-104807200D02*
X124228571Y-104759580D01*
X124228571Y-104759580D02*
X124257142Y-104664342D01*
X124257142Y-104664342D02*
X124257142Y-104426247D01*
X124257142Y-104426247D02*
X124228571Y-104331009D01*
X124228571Y-104331009D02*
X124200000Y-104283390D01*
X124200000Y-104283390D02*
X124142857Y-104235771D01*
X124142857Y-104235771D02*
X124028571Y-104235771D01*
X124028571Y-104235771D02*
X123971428Y-104283390D01*
X123971428Y-104283390D02*
X123942857Y-104331009D01*
X123942857Y-104331009D02*
X123914285Y-104426247D01*
X138659580Y-94685714D02*
X138707200Y-94714286D01*
X138707200Y-94714286D02*
X138754819Y-94800000D01*
X138754819Y-94800000D02*
X138754819Y-94857143D01*
X138754819Y-94857143D02*
X138707200Y-94942857D01*
X138707200Y-94942857D02*
X138611961Y-95000000D01*
X138611961Y-95000000D02*
X138516723Y-95028571D01*
X138516723Y-95028571D02*
X138326247Y-95057143D01*
X138326247Y-95057143D02*
X138183390Y-95057143D01*
X138183390Y-95057143D02*
X137992914Y-95028571D01*
X137992914Y-95028571D02*
X137897676Y-95000000D01*
X137897676Y-95000000D02*
X137802438Y-94942857D01*
X137802438Y-94942857D02*
X137754819Y-94857143D01*
X137754819Y-94857143D02*
X137754819Y-94800000D01*
X137754819Y-94800000D02*
X137802438Y-94714286D01*
X137802438Y-94714286D02*
X137850057Y-94685714D01*
X138754819Y-94114286D02*
X138754819Y-94457143D01*
X138754819Y-94285714D02*
X137754819Y-94285714D01*
X137754819Y-94285714D02*
X137897676Y-94342857D01*
X137897676Y-94342857D02*
X137992914Y-94400000D01*
X137992914Y-94400000D02*
X138040533Y-94457143D01*
X137754819Y-93914285D02*
X137754819Y-93542857D01*
X137754819Y-93542857D02*
X138135771Y-93742857D01*
X138135771Y-93742857D02*
X138135771Y-93657142D01*
X138135771Y-93657142D02*
X138183390Y-93600000D01*
X138183390Y-93600000D02*
X138231009Y-93571428D01*
X138231009Y-93571428D02*
X138326247Y-93542857D01*
X138326247Y-93542857D02*
X138564342Y-93542857D01*
X138564342Y-93542857D02*
X138659580Y-93571428D01*
X138659580Y-93571428D02*
X138707200Y-93600000D01*
X138707200Y-93600000D02*
X138754819Y-93657142D01*
X138754819Y-93657142D02*
X138754819Y-93828571D01*
X138754819Y-93828571D02*
X138707200Y-93885714D01*
X138707200Y-93885714D02*
X138659580Y-93914285D01*
X105000000Y-94159580D02*
X104971428Y-94207200D01*
X104971428Y-94207200D02*
X104885714Y-94254819D01*
X104885714Y-94254819D02*
X104828571Y-94254819D01*
X104828571Y-94254819D02*
X104742857Y-94207200D01*
X104742857Y-94207200D02*
X104685714Y-94111961D01*
X104685714Y-94111961D02*
X104657143Y-94016723D01*
X104657143Y-94016723D02*
X104628571Y-93826247D01*
X104628571Y-93826247D02*
X104628571Y-93683390D01*
X104628571Y-93683390D02*
X104657143Y-93492914D01*
X104657143Y-93492914D02*
X104685714Y-93397676D01*
X104685714Y-93397676D02*
X104742857Y-93302438D01*
X104742857Y-93302438D02*
X104828571Y-93254819D01*
X104828571Y-93254819D02*
X104885714Y-93254819D01*
X104885714Y-93254819D02*
X104971428Y-93302438D01*
X104971428Y-93302438D02*
X105000000Y-93350057D01*
X105571428Y-94254819D02*
X105228571Y-94254819D01*
X105400000Y-94254819D02*
X105400000Y-93254819D01*
X105400000Y-93254819D02*
X105342857Y-93397676D01*
X105342857Y-93397676D02*
X105285714Y-93492914D01*
X105285714Y-93492914D02*
X105228571Y-93540533D01*
X120599999Y-113813879D02*
X120571427Y-113861499D01*
X120571427Y-113861499D02*
X120485713Y-113909118D01*
X120485713Y-113909118D02*
X120428570Y-113909118D01*
X120428570Y-113909118D02*
X120342856Y-113861499D01*
X120342856Y-113861499D02*
X120285713Y-113766260D01*
X120285713Y-113766260D02*
X120257142Y-113671022D01*
X120257142Y-113671022D02*
X120228570Y-113480546D01*
X120228570Y-113480546D02*
X120228570Y-113337689D01*
X120228570Y-113337689D02*
X120257142Y-113147213D01*
X120257142Y-113147213D02*
X120285713Y-113051975D01*
X120285713Y-113051975D02*
X120342856Y-112956737D01*
X120342856Y-112956737D02*
X120428570Y-112909118D01*
X120428570Y-112909118D02*
X120485713Y-112909118D01*
X120485713Y-112909118D02*
X120571427Y-112956737D01*
X120571427Y-112956737D02*
X120599999Y-113004356D01*
X121171427Y-113909118D02*
X120828570Y-113909118D01*
X120999999Y-113909118D02*
X120999999Y-112909118D01*
X120999999Y-112909118D02*
X120942856Y-113051975D01*
X120942856Y-113051975D02*
X120885713Y-113147213D01*
X120885713Y-113147213D02*
X120828570Y-113194832D01*
X121371428Y-112909118D02*
X121771428Y-112909118D01*
X121771428Y-112909118D02*
X121514285Y-113909118D01*
X152842857Y-115954819D02*
X152642857Y-115478628D01*
X152500000Y-115954819D02*
X152500000Y-114954819D01*
X152500000Y-114954819D02*
X152728571Y-114954819D01*
X152728571Y-114954819D02*
X152785714Y-115002438D01*
X152785714Y-115002438D02*
X152814285Y-115050057D01*
X152814285Y-115050057D02*
X152842857Y-115145295D01*
X152842857Y-115145295D02*
X152842857Y-115288152D01*
X152842857Y-115288152D02*
X152814285Y-115383390D01*
X152814285Y-115383390D02*
X152785714Y-115431009D01*
X152785714Y-115431009D02*
X152728571Y-115478628D01*
X152728571Y-115478628D02*
X152500000Y-115478628D01*
X153014285Y-114954819D02*
X153214285Y-115954819D01*
X153214285Y-115954819D02*
X153414285Y-114954819D01*
X153928571Y-115954819D02*
X153585714Y-115954819D01*
X153757143Y-115954819D02*
X153757143Y-114954819D01*
X153757143Y-114954819D02*
X153700000Y-115097676D01*
X153700000Y-115097676D02*
X153642857Y-115192914D01*
X153642857Y-115192914D02*
X153585714Y-115240533D01*
X130000000Y-105354819D02*
X129800000Y-104878628D01*
X129657143Y-105354819D02*
X129657143Y-104354819D01*
X129657143Y-104354819D02*
X129885714Y-104354819D01*
X129885714Y-104354819D02*
X129942857Y-104402438D01*
X129942857Y-104402438D02*
X129971428Y-104450057D01*
X129971428Y-104450057D02*
X130000000Y-104545295D01*
X130000000Y-104545295D02*
X130000000Y-104688152D01*
X130000000Y-104688152D02*
X129971428Y-104783390D01*
X129971428Y-104783390D02*
X129942857Y-104831009D01*
X129942857Y-104831009D02*
X129885714Y-104878628D01*
X129885714Y-104878628D02*
X129657143Y-104878628D01*
X130342857Y-104783390D02*
X130285714Y-104735771D01*
X130285714Y-104735771D02*
X130257143Y-104688152D01*
X130257143Y-104688152D02*
X130228571Y-104592914D01*
X130228571Y-104592914D02*
X130228571Y-104545295D01*
X130228571Y-104545295D02*
X130257143Y-104450057D01*
X130257143Y-104450057D02*
X130285714Y-104402438D01*
X130285714Y-104402438D02*
X130342857Y-104354819D01*
X130342857Y-104354819D02*
X130457143Y-104354819D01*
X130457143Y-104354819D02*
X130514286Y-104402438D01*
X130514286Y-104402438D02*
X130542857Y-104450057D01*
X130542857Y-104450057D02*
X130571428Y-104545295D01*
X130571428Y-104545295D02*
X130571428Y-104592914D01*
X130571428Y-104592914D02*
X130542857Y-104688152D01*
X130542857Y-104688152D02*
X130514286Y-104735771D01*
X130514286Y-104735771D02*
X130457143Y-104783390D01*
X130457143Y-104783390D02*
X130342857Y-104783390D01*
X130342857Y-104783390D02*
X130285714Y-104831009D01*
X130285714Y-104831009D02*
X130257143Y-104878628D01*
X130257143Y-104878628D02*
X130228571Y-104973866D01*
X130228571Y-104973866D02*
X130228571Y-105164342D01*
X130228571Y-105164342D02*
X130257143Y-105259580D01*
X130257143Y-105259580D02*
X130285714Y-105307200D01*
X130285714Y-105307200D02*
X130342857Y-105354819D01*
X130342857Y-105354819D02*
X130457143Y-105354819D01*
X130457143Y-105354819D02*
X130514286Y-105307200D01*
X130514286Y-105307200D02*
X130542857Y-105259580D01*
X130542857Y-105259580D02*
X130571428Y-105164342D01*
X130571428Y-105164342D02*
X130571428Y-104973866D01*
X130571428Y-104973866D02*
X130542857Y-104878628D01*
X130542857Y-104878628D02*
X130514286Y-104831009D01*
X130514286Y-104831009D02*
X130457143Y-104783390D01*
X97857142Y-110254819D02*
X98200000Y-110254819D01*
X98028571Y-111254819D02*
X98028571Y-110254819D01*
X98400000Y-111254819D02*
X98400000Y-110254819D01*
X98400000Y-110254819D02*
X98628571Y-110254819D01*
X98628571Y-110254819D02*
X98685714Y-110302438D01*
X98685714Y-110302438D02*
X98714285Y-110350057D01*
X98714285Y-110350057D02*
X98742857Y-110445295D01*
X98742857Y-110445295D02*
X98742857Y-110588152D01*
X98742857Y-110588152D02*
X98714285Y-110683390D01*
X98714285Y-110683390D02*
X98685714Y-110731009D01*
X98685714Y-110731009D02*
X98628571Y-110778628D01*
X98628571Y-110778628D02*
X98400000Y-110778628D01*
X99314285Y-111254819D02*
X98971428Y-111254819D01*
X99142857Y-111254819D02*
X99142857Y-110254819D01*
X99142857Y-110254819D02*
X99085714Y-110397676D01*
X99085714Y-110397676D02*
X99028571Y-110492914D01*
X99028571Y-110492914D02*
X98971428Y-110540533D01*
X99885714Y-111254819D02*
X99542857Y-111254819D01*
X99714286Y-111254819D02*
X99714286Y-110254819D01*
X99714286Y-110254819D02*
X99657143Y-110397676D01*
X99657143Y-110397676D02*
X99600000Y-110492914D01*
X99600000Y-110492914D02*
X99542857Y-110540533D01*
X117454819Y-111985714D02*
X116978628Y-112185714D01*
X117454819Y-112328571D02*
X116454819Y-112328571D01*
X116454819Y-112328571D02*
X116454819Y-112100000D01*
X116454819Y-112100000D02*
X116502438Y-112042857D01*
X116502438Y-112042857D02*
X116550057Y-112014286D01*
X116550057Y-112014286D02*
X116645295Y-111985714D01*
X116645295Y-111985714D02*
X116788152Y-111985714D01*
X116788152Y-111985714D02*
X116883390Y-112014286D01*
X116883390Y-112014286D02*
X116931009Y-112042857D01*
X116931009Y-112042857D02*
X116978628Y-112100000D01*
X116978628Y-112100000D02*
X116978628Y-112328571D01*
X116550057Y-111757143D02*
X116502438Y-111728571D01*
X116502438Y-111728571D02*
X116454819Y-111671429D01*
X116454819Y-111671429D02*
X116454819Y-111528571D01*
X116454819Y-111528571D02*
X116502438Y-111471429D01*
X116502438Y-111471429D02*
X116550057Y-111442857D01*
X116550057Y-111442857D02*
X116645295Y-111414286D01*
X116645295Y-111414286D02*
X116740533Y-111414286D01*
X116740533Y-111414286D02*
X116883390Y-111442857D01*
X116883390Y-111442857D02*
X117454819Y-111785714D01*
X117454819Y-111785714D02*
X117454819Y-111414286D01*
X116454819Y-110871428D02*
X116454819Y-111157142D01*
X116454819Y-111157142D02*
X116931009Y-111185714D01*
X116931009Y-111185714D02*
X116883390Y-111157142D01*
X116883390Y-111157142D02*
X116835771Y-111100000D01*
X116835771Y-111100000D02*
X116835771Y-110957142D01*
X116835771Y-110957142D02*
X116883390Y-110900000D01*
X116883390Y-110900000D02*
X116931009Y-110871428D01*
X116931009Y-110871428D02*
X117026247Y-110842857D01*
X117026247Y-110842857D02*
X117264342Y-110842857D01*
X117264342Y-110842857D02*
X117359580Y-110871428D01*
X117359580Y-110871428D02*
X117407200Y-110900000D01*
X117407200Y-110900000D02*
X117454819Y-110957142D01*
X117454819Y-110957142D02*
X117454819Y-111100000D01*
X117454819Y-111100000D02*
X117407200Y-111157142D01*
X117407200Y-111157142D02*
X117359580Y-111185714D01*
X143292857Y-93754819D02*
X143292857Y-94564342D01*
X143292857Y-94564342D02*
X143321428Y-94659580D01*
X143321428Y-94659580D02*
X143350000Y-94707200D01*
X143350000Y-94707200D02*
X143407142Y-94754819D01*
X143407142Y-94754819D02*
X143521428Y-94754819D01*
X143521428Y-94754819D02*
X143578571Y-94707200D01*
X143578571Y-94707200D02*
X143607142Y-94659580D01*
X143607142Y-94659580D02*
X143635714Y-94564342D01*
X143635714Y-94564342D02*
X143635714Y-93754819D01*
X143949999Y-94754819D02*
X144064285Y-94754819D01*
X144064285Y-94754819D02*
X144121428Y-94707200D01*
X144121428Y-94707200D02*
X144149999Y-94659580D01*
X144149999Y-94659580D02*
X144207142Y-94516723D01*
X144207142Y-94516723D02*
X144235713Y-94326247D01*
X144235713Y-94326247D02*
X144235713Y-93945295D01*
X144235713Y-93945295D02*
X144207142Y-93850057D01*
X144207142Y-93850057D02*
X144178571Y-93802438D01*
X144178571Y-93802438D02*
X144121428Y-93754819D01*
X144121428Y-93754819D02*
X144007142Y-93754819D01*
X144007142Y-93754819D02*
X143949999Y-93802438D01*
X143949999Y-93802438D02*
X143921428Y-93850057D01*
X143921428Y-93850057D02*
X143892856Y-93945295D01*
X143892856Y-93945295D02*
X143892856Y-94183390D01*
X143892856Y-94183390D02*
X143921428Y-94278628D01*
X143921428Y-94278628D02*
X143949999Y-94326247D01*
X143949999Y-94326247D02*
X144007142Y-94373866D01*
X144007142Y-94373866D02*
X144121428Y-94373866D01*
X144121428Y-94373866D02*
X144178571Y-94326247D01*
X144178571Y-94326247D02*
X144207142Y-94278628D01*
X144207142Y-94278628D02*
X144235713Y-94183390D01*
X142859580Y-113285714D02*
X142907200Y-113314286D01*
X142907200Y-113314286D02*
X142954819Y-113400000D01*
X142954819Y-113400000D02*
X142954819Y-113457143D01*
X142954819Y-113457143D02*
X142907200Y-113542857D01*
X142907200Y-113542857D02*
X142811961Y-113600000D01*
X142811961Y-113600000D02*
X142716723Y-113628571D01*
X142716723Y-113628571D02*
X142526247Y-113657143D01*
X142526247Y-113657143D02*
X142383390Y-113657143D01*
X142383390Y-113657143D02*
X142192914Y-113628571D01*
X142192914Y-113628571D02*
X142097676Y-113600000D01*
X142097676Y-113600000D02*
X142002438Y-113542857D01*
X142002438Y-113542857D02*
X141954819Y-113457143D01*
X141954819Y-113457143D02*
X141954819Y-113400000D01*
X141954819Y-113400000D02*
X142002438Y-113314286D01*
X142002438Y-113314286D02*
X142050057Y-113285714D01*
X142050057Y-113057143D02*
X142002438Y-113028571D01*
X142002438Y-113028571D02*
X141954819Y-112971429D01*
X141954819Y-112971429D02*
X141954819Y-112828571D01*
X141954819Y-112828571D02*
X142002438Y-112771429D01*
X142002438Y-112771429D02*
X142050057Y-112742857D01*
X142050057Y-112742857D02*
X142145295Y-112714286D01*
X142145295Y-112714286D02*
X142240533Y-112714286D01*
X142240533Y-112714286D02*
X142383390Y-112742857D01*
X142383390Y-112742857D02*
X142954819Y-113085714D01*
X142954819Y-113085714D02*
X142954819Y-112714286D01*
X141954819Y-112342857D02*
X141954819Y-112285714D01*
X141954819Y-112285714D02*
X142002438Y-112228571D01*
X142002438Y-112228571D02*
X142050057Y-112200000D01*
X142050057Y-112200000D02*
X142145295Y-112171428D01*
X142145295Y-112171428D02*
X142335771Y-112142857D01*
X142335771Y-112142857D02*
X142573866Y-112142857D01*
X142573866Y-112142857D02*
X142764342Y-112171428D01*
X142764342Y-112171428D02*
X142859580Y-112200000D01*
X142859580Y-112200000D02*
X142907200Y-112228571D01*
X142907200Y-112228571D02*
X142954819Y-112285714D01*
X142954819Y-112285714D02*
X142954819Y-112342857D01*
X142954819Y-112342857D02*
X142907200Y-112400000D01*
X142907200Y-112400000D02*
X142859580Y-112428571D01*
X142859580Y-112428571D02*
X142764342Y-112457142D01*
X142764342Y-112457142D02*
X142573866Y-112485714D01*
X142573866Y-112485714D02*
X142335771Y-112485714D01*
X142335771Y-112485714D02*
X142145295Y-112457142D01*
X142145295Y-112457142D02*
X142050057Y-112428571D01*
X142050057Y-112428571D02*
X142002438Y-112400000D01*
X142002438Y-112400000D02*
X141954819Y-112342857D01*
X118600000Y-101454819D02*
X118400000Y-100978628D01*
X118257143Y-101454819D02*
X118257143Y-100454819D01*
X118257143Y-100454819D02*
X118485714Y-100454819D01*
X118485714Y-100454819D02*
X118542857Y-100502438D01*
X118542857Y-100502438D02*
X118571428Y-100550057D01*
X118571428Y-100550057D02*
X118600000Y-100645295D01*
X118600000Y-100645295D02*
X118600000Y-100788152D01*
X118600000Y-100788152D02*
X118571428Y-100883390D01*
X118571428Y-100883390D02*
X118542857Y-100931009D01*
X118542857Y-100931009D02*
X118485714Y-100978628D01*
X118485714Y-100978628D02*
X118257143Y-100978628D01*
X118828571Y-100550057D02*
X118857143Y-100502438D01*
X118857143Y-100502438D02*
X118914286Y-100454819D01*
X118914286Y-100454819D02*
X119057143Y-100454819D01*
X119057143Y-100454819D02*
X119114286Y-100502438D01*
X119114286Y-100502438D02*
X119142857Y-100550057D01*
X119142857Y-100550057D02*
X119171428Y-100645295D01*
X119171428Y-100645295D02*
X119171428Y-100740533D01*
X119171428Y-100740533D02*
X119142857Y-100883390D01*
X119142857Y-100883390D02*
X118800000Y-101454819D01*
X118800000Y-101454819D02*
X119171428Y-101454819D01*
X139759580Y-101799999D02*
X139807200Y-101828571D01*
X139807200Y-101828571D02*
X139854819Y-101914285D01*
X139854819Y-101914285D02*
X139854819Y-101971428D01*
X139854819Y-101971428D02*
X139807200Y-102057142D01*
X139807200Y-102057142D02*
X139711961Y-102114285D01*
X139711961Y-102114285D02*
X139616723Y-102142856D01*
X139616723Y-102142856D02*
X139426247Y-102171428D01*
X139426247Y-102171428D02*
X139283390Y-102171428D01*
X139283390Y-102171428D02*
X139092914Y-102142856D01*
X139092914Y-102142856D02*
X138997676Y-102114285D01*
X138997676Y-102114285D02*
X138902438Y-102057142D01*
X138902438Y-102057142D02*
X138854819Y-101971428D01*
X138854819Y-101971428D02*
X138854819Y-101914285D01*
X138854819Y-101914285D02*
X138902438Y-101828571D01*
X138902438Y-101828571D02*
X138950057Y-101799999D01*
X138854819Y-101257142D02*
X138854819Y-101542856D01*
X138854819Y-101542856D02*
X139331009Y-101571428D01*
X139331009Y-101571428D02*
X139283390Y-101542856D01*
X139283390Y-101542856D02*
X139235771Y-101485714D01*
X139235771Y-101485714D02*
X139235771Y-101342856D01*
X139235771Y-101342856D02*
X139283390Y-101285714D01*
X139283390Y-101285714D02*
X139331009Y-101257142D01*
X139331009Y-101257142D02*
X139426247Y-101228571D01*
X139426247Y-101228571D02*
X139664342Y-101228571D01*
X139664342Y-101228571D02*
X139759580Y-101257142D01*
X139759580Y-101257142D02*
X139807200Y-101285714D01*
X139807200Y-101285714D02*
X139854819Y-101342856D01*
X139854819Y-101342856D02*
X139854819Y-101485714D01*
X139854819Y-101485714D02*
X139807200Y-101542856D01*
X139807200Y-101542856D02*
X139759580Y-101571428D01*
X107542857Y-93554819D02*
X107542857Y-94364342D01*
X107542857Y-94364342D02*
X107571428Y-94459580D01*
X107571428Y-94459580D02*
X107600000Y-94507200D01*
X107600000Y-94507200D02*
X107657142Y-94554819D01*
X107657142Y-94554819D02*
X107771428Y-94554819D01*
X107771428Y-94554819D02*
X107828571Y-94507200D01*
X107828571Y-94507200D02*
X107857142Y-94459580D01*
X107857142Y-94459580D02*
X107885714Y-94364342D01*
X107885714Y-94364342D02*
X107885714Y-93554819D01*
X108457142Y-93554819D02*
X108171428Y-93554819D01*
X108171428Y-93554819D02*
X108142856Y-94031009D01*
X108142856Y-94031009D02*
X108171428Y-93983390D01*
X108171428Y-93983390D02*
X108228571Y-93935771D01*
X108228571Y-93935771D02*
X108371428Y-93935771D01*
X108371428Y-93935771D02*
X108428571Y-93983390D01*
X108428571Y-93983390D02*
X108457142Y-94031009D01*
X108457142Y-94031009D02*
X108485713Y-94126247D01*
X108485713Y-94126247D02*
X108485713Y-94364342D01*
X108485713Y-94364342D02*
X108457142Y-94459580D01*
X108457142Y-94459580D02*
X108428571Y-94507200D01*
X108428571Y-94507200D02*
X108371428Y-94554819D01*
X108371428Y-94554819D02*
X108228571Y-94554819D01*
X108228571Y-94554819D02*
X108171428Y-94507200D01*
X108171428Y-94507200D02*
X108142856Y-94459580D01*
X128059580Y-120585714D02*
X128107200Y-120614286D01*
X128107200Y-120614286D02*
X128154819Y-120700000D01*
X128154819Y-120700000D02*
X128154819Y-120757143D01*
X128154819Y-120757143D02*
X128107200Y-120842857D01*
X128107200Y-120842857D02*
X128011961Y-120900000D01*
X128011961Y-120900000D02*
X127916723Y-120928571D01*
X127916723Y-120928571D02*
X127726247Y-120957143D01*
X127726247Y-120957143D02*
X127583390Y-120957143D01*
X127583390Y-120957143D02*
X127392914Y-120928571D01*
X127392914Y-120928571D02*
X127297676Y-120900000D01*
X127297676Y-120900000D02*
X127202438Y-120842857D01*
X127202438Y-120842857D02*
X127154819Y-120757143D01*
X127154819Y-120757143D02*
X127154819Y-120700000D01*
X127154819Y-120700000D02*
X127202438Y-120614286D01*
X127202438Y-120614286D02*
X127250057Y-120585714D01*
X128154819Y-120014286D02*
X128154819Y-120357143D01*
X128154819Y-120185714D02*
X127154819Y-120185714D01*
X127154819Y-120185714D02*
X127297676Y-120242857D01*
X127297676Y-120242857D02*
X127392914Y-120300000D01*
X127392914Y-120300000D02*
X127440533Y-120357143D01*
X128154819Y-119728571D02*
X128154819Y-119614285D01*
X128154819Y-119614285D02*
X128107200Y-119557142D01*
X128107200Y-119557142D02*
X128059580Y-119528571D01*
X128059580Y-119528571D02*
X127916723Y-119471428D01*
X127916723Y-119471428D02*
X127726247Y-119442857D01*
X127726247Y-119442857D02*
X127345295Y-119442857D01*
X127345295Y-119442857D02*
X127250057Y-119471428D01*
X127250057Y-119471428D02*
X127202438Y-119500000D01*
X127202438Y-119500000D02*
X127154819Y-119557142D01*
X127154819Y-119557142D02*
X127154819Y-119671428D01*
X127154819Y-119671428D02*
X127202438Y-119728571D01*
X127202438Y-119728571D02*
X127250057Y-119757142D01*
X127250057Y-119757142D02*
X127345295Y-119785714D01*
X127345295Y-119785714D02*
X127583390Y-119785714D01*
X127583390Y-119785714D02*
X127678628Y-119757142D01*
X127678628Y-119757142D02*
X127726247Y-119728571D01*
X127726247Y-119728571D02*
X127773866Y-119671428D01*
X127773866Y-119671428D02*
X127773866Y-119557142D01*
X127773866Y-119557142D02*
X127726247Y-119500000D01*
X127726247Y-119500000D02*
X127678628Y-119471428D01*
X127678628Y-119471428D02*
X127583390Y-119442857D01*
X116600000Y-98659580D02*
X116571428Y-98707200D01*
X116571428Y-98707200D02*
X116485714Y-98754819D01*
X116485714Y-98754819D02*
X116428571Y-98754819D01*
X116428571Y-98754819D02*
X116342857Y-98707200D01*
X116342857Y-98707200D02*
X116285714Y-98611961D01*
X116285714Y-98611961D02*
X116257143Y-98516723D01*
X116257143Y-98516723D02*
X116228571Y-98326247D01*
X116228571Y-98326247D02*
X116228571Y-98183390D01*
X116228571Y-98183390D02*
X116257143Y-97992914D01*
X116257143Y-97992914D02*
X116285714Y-97897676D01*
X116285714Y-97897676D02*
X116342857Y-97802438D01*
X116342857Y-97802438D02*
X116428571Y-97754819D01*
X116428571Y-97754819D02*
X116485714Y-97754819D01*
X116485714Y-97754819D02*
X116571428Y-97802438D01*
X116571428Y-97802438D02*
X116600000Y-97850057D01*
X116800000Y-97754819D02*
X117171428Y-97754819D01*
X117171428Y-97754819D02*
X116971428Y-98135771D01*
X116971428Y-98135771D02*
X117057143Y-98135771D01*
X117057143Y-98135771D02*
X117114286Y-98183390D01*
X117114286Y-98183390D02*
X117142857Y-98231009D01*
X117142857Y-98231009D02*
X117171428Y-98326247D01*
X117171428Y-98326247D02*
X117171428Y-98564342D01*
X117171428Y-98564342D02*
X117142857Y-98659580D01*
X117142857Y-98659580D02*
X117114286Y-98707200D01*
X117114286Y-98707200D02*
X117057143Y-98754819D01*
X117057143Y-98754819D02*
X116885714Y-98754819D01*
X116885714Y-98754819D02*
X116828571Y-98707200D01*
X116828571Y-98707200D02*
X116800000Y-98659580D01*
X118614285Y-91754819D02*
X118414285Y-91278628D01*
X118271428Y-91754819D02*
X118271428Y-90754819D01*
X118271428Y-90754819D02*
X118499999Y-90754819D01*
X118499999Y-90754819D02*
X118557142Y-90802438D01*
X118557142Y-90802438D02*
X118585713Y-90850057D01*
X118585713Y-90850057D02*
X118614285Y-90945295D01*
X118614285Y-90945295D02*
X118614285Y-91088152D01*
X118614285Y-91088152D02*
X118585713Y-91183390D01*
X118585713Y-91183390D02*
X118557142Y-91231009D01*
X118557142Y-91231009D02*
X118499999Y-91278628D01*
X118499999Y-91278628D02*
X118271428Y-91278628D01*
X119185713Y-91754819D02*
X118842856Y-91754819D01*
X119014285Y-91754819D02*
X119014285Y-90754819D01*
X119014285Y-90754819D02*
X118957142Y-90897676D01*
X118957142Y-90897676D02*
X118899999Y-90992914D01*
X118899999Y-90992914D02*
X118842856Y-91040533D01*
X119557142Y-90754819D02*
X119614285Y-90754819D01*
X119614285Y-90754819D02*
X119671428Y-90802438D01*
X119671428Y-90802438D02*
X119700000Y-90850057D01*
X119700000Y-90850057D02*
X119728571Y-90945295D01*
X119728571Y-90945295D02*
X119757142Y-91135771D01*
X119757142Y-91135771D02*
X119757142Y-91373866D01*
X119757142Y-91373866D02*
X119728571Y-91564342D01*
X119728571Y-91564342D02*
X119700000Y-91659580D01*
X119700000Y-91659580D02*
X119671428Y-91707200D01*
X119671428Y-91707200D02*
X119614285Y-91754819D01*
X119614285Y-91754819D02*
X119557142Y-91754819D01*
X119557142Y-91754819D02*
X119500000Y-91707200D01*
X119500000Y-91707200D02*
X119471428Y-91659580D01*
X119471428Y-91659580D02*
X119442857Y-91564342D01*
X119442857Y-91564342D02*
X119414285Y-91373866D01*
X119414285Y-91373866D02*
X119414285Y-91135771D01*
X119414285Y-91135771D02*
X119442857Y-90945295D01*
X119442857Y-90945295D02*
X119471428Y-90850057D01*
X119471428Y-90850057D02*
X119500000Y-90802438D01*
X119500000Y-90802438D02*
X119557142Y-90754819D01*
X118914285Y-94459580D02*
X118885713Y-94507200D01*
X118885713Y-94507200D02*
X118799999Y-94554819D01*
X118799999Y-94554819D02*
X118742856Y-94554819D01*
X118742856Y-94554819D02*
X118657142Y-94507200D01*
X118657142Y-94507200D02*
X118599999Y-94411961D01*
X118599999Y-94411961D02*
X118571428Y-94316723D01*
X118571428Y-94316723D02*
X118542856Y-94126247D01*
X118542856Y-94126247D02*
X118542856Y-93983390D01*
X118542856Y-93983390D02*
X118571428Y-93792914D01*
X118571428Y-93792914D02*
X118599999Y-93697676D01*
X118599999Y-93697676D02*
X118657142Y-93602438D01*
X118657142Y-93602438D02*
X118742856Y-93554819D01*
X118742856Y-93554819D02*
X118799999Y-93554819D01*
X118799999Y-93554819D02*
X118885713Y-93602438D01*
X118885713Y-93602438D02*
X118914285Y-93650057D01*
X119485713Y-94554819D02*
X119142856Y-94554819D01*
X119314285Y-94554819D02*
X119314285Y-93554819D01*
X119314285Y-93554819D02*
X119257142Y-93697676D01*
X119257142Y-93697676D02*
X119199999Y-93792914D01*
X119199999Y-93792914D02*
X119142856Y-93840533D01*
X120000000Y-93888152D02*
X120000000Y-94554819D01*
X119857142Y-93507200D02*
X119714285Y-94221485D01*
X119714285Y-94221485D02*
X120085714Y-94221485D01*
X125614285Y-102959580D02*
X125585713Y-103007200D01*
X125585713Y-103007200D02*
X125499999Y-103054819D01*
X125499999Y-103054819D02*
X125442856Y-103054819D01*
X125442856Y-103054819D02*
X125357142Y-103007200D01*
X125357142Y-103007200D02*
X125299999Y-102911961D01*
X125299999Y-102911961D02*
X125271428Y-102816723D01*
X125271428Y-102816723D02*
X125242856Y-102626247D01*
X125242856Y-102626247D02*
X125242856Y-102483390D01*
X125242856Y-102483390D02*
X125271428Y-102292914D01*
X125271428Y-102292914D02*
X125299999Y-102197676D01*
X125299999Y-102197676D02*
X125357142Y-102102438D01*
X125357142Y-102102438D02*
X125442856Y-102054819D01*
X125442856Y-102054819D02*
X125499999Y-102054819D01*
X125499999Y-102054819D02*
X125585713Y-102102438D01*
X125585713Y-102102438D02*
X125614285Y-102150057D01*
X126185713Y-103054819D02*
X125842856Y-103054819D01*
X126014285Y-103054819D02*
X126014285Y-102054819D01*
X126014285Y-102054819D02*
X125957142Y-102197676D01*
X125957142Y-102197676D02*
X125899999Y-102292914D01*
X125899999Y-102292914D02*
X125842856Y-102340533D01*
X126414285Y-102150057D02*
X126442857Y-102102438D01*
X126442857Y-102102438D02*
X126500000Y-102054819D01*
X126500000Y-102054819D02*
X126642857Y-102054819D01*
X126642857Y-102054819D02*
X126700000Y-102102438D01*
X126700000Y-102102438D02*
X126728571Y-102150057D01*
X126728571Y-102150057D02*
X126757142Y-102245295D01*
X126757142Y-102245295D02*
X126757142Y-102340533D01*
X126757142Y-102340533D02*
X126728571Y-102483390D01*
X126728571Y-102483390D02*
X126385714Y-103054819D01*
X126385714Y-103054819D02*
X126757142Y-103054819D01*
X143300000Y-106054819D02*
X143100000Y-105578628D01*
X142957143Y-106054819D02*
X142957143Y-105054819D01*
X142957143Y-105054819D02*
X143185714Y-105054819D01*
X143185714Y-105054819D02*
X143242857Y-105102438D01*
X143242857Y-105102438D02*
X143271428Y-105150057D01*
X143271428Y-105150057D02*
X143300000Y-105245295D01*
X143300000Y-105245295D02*
X143300000Y-105388152D01*
X143300000Y-105388152D02*
X143271428Y-105483390D01*
X143271428Y-105483390D02*
X143242857Y-105531009D01*
X143242857Y-105531009D02*
X143185714Y-105578628D01*
X143185714Y-105578628D02*
X142957143Y-105578628D01*
X143814286Y-105054819D02*
X143700000Y-105054819D01*
X143700000Y-105054819D02*
X143642857Y-105102438D01*
X143642857Y-105102438D02*
X143614286Y-105150057D01*
X143614286Y-105150057D02*
X143557143Y-105292914D01*
X143557143Y-105292914D02*
X143528571Y-105483390D01*
X143528571Y-105483390D02*
X143528571Y-105864342D01*
X143528571Y-105864342D02*
X143557143Y-105959580D01*
X143557143Y-105959580D02*
X143585714Y-106007200D01*
X143585714Y-106007200D02*
X143642857Y-106054819D01*
X143642857Y-106054819D02*
X143757143Y-106054819D01*
X143757143Y-106054819D02*
X143814286Y-106007200D01*
X143814286Y-106007200D02*
X143842857Y-105959580D01*
X143842857Y-105959580D02*
X143871428Y-105864342D01*
X143871428Y-105864342D02*
X143871428Y-105626247D01*
X143871428Y-105626247D02*
X143842857Y-105531009D01*
X143842857Y-105531009D02*
X143814286Y-105483390D01*
X143814286Y-105483390D02*
X143757143Y-105435771D01*
X143757143Y-105435771D02*
X143642857Y-105435771D01*
X143642857Y-105435771D02*
X143585714Y-105483390D01*
X143585714Y-105483390D02*
X143557143Y-105531009D01*
X143557143Y-105531009D02*
X143528571Y-105626247D01*
X109714285Y-112259580D02*
X109685713Y-112307200D01*
X109685713Y-112307200D02*
X109599999Y-112354819D01*
X109599999Y-112354819D02*
X109542856Y-112354819D01*
X109542856Y-112354819D02*
X109457142Y-112307200D01*
X109457142Y-112307200D02*
X109399999Y-112211961D01*
X109399999Y-112211961D02*
X109371428Y-112116723D01*
X109371428Y-112116723D02*
X109342856Y-111926247D01*
X109342856Y-111926247D02*
X109342856Y-111783390D01*
X109342856Y-111783390D02*
X109371428Y-111592914D01*
X109371428Y-111592914D02*
X109399999Y-111497676D01*
X109399999Y-111497676D02*
X109457142Y-111402438D01*
X109457142Y-111402438D02*
X109542856Y-111354819D01*
X109542856Y-111354819D02*
X109599999Y-111354819D01*
X109599999Y-111354819D02*
X109685713Y-111402438D01*
X109685713Y-111402438D02*
X109714285Y-111450057D01*
X109942856Y-111450057D02*
X109971428Y-111402438D01*
X109971428Y-111402438D02*
X110028571Y-111354819D01*
X110028571Y-111354819D02*
X110171428Y-111354819D01*
X110171428Y-111354819D02*
X110228571Y-111402438D01*
X110228571Y-111402438D02*
X110257142Y-111450057D01*
X110257142Y-111450057D02*
X110285713Y-111545295D01*
X110285713Y-111545295D02*
X110285713Y-111640533D01*
X110285713Y-111640533D02*
X110257142Y-111783390D01*
X110257142Y-111783390D02*
X109914285Y-112354819D01*
X109914285Y-112354819D02*
X110285713Y-112354819D01*
X110485714Y-111354819D02*
X110885714Y-111354819D01*
X110885714Y-111354819D02*
X110628571Y-112354819D01*
D12*
%TO.C,TP8*%
X124730000Y-102920000D02*
X124730000Y-103030000D01*
X121970000Y-103030000D02*
X124730000Y-103030000D01*
X121970000Y-102920000D02*
X124730000Y-102920000D01*
X121970000Y-102920000D02*
X121970000Y-103030000D01*
X121970000Y-101650000D02*
X121970000Y-100270000D01*
X121970000Y-100270000D02*
X123350000Y-100270000D01*
%TO.C,R7*%
X145345276Y-106077500D02*
X145854724Y-106077500D01*
X145345276Y-107122500D02*
X145854724Y-107122500D01*
%TO.C,U3*%
X135500000Y-107890000D02*
X133300000Y-107890000D01*
X135500000Y-107890000D02*
X137700000Y-107890000D01*
X135500000Y-113110000D02*
X133300000Y-113110000D01*
X135500000Y-113110000D02*
X137700000Y-113110000D01*
X132600000Y-108090000D02*
X132360000Y-107760000D01*
X132840000Y-107760000D01*
X132600000Y-108090000D01*
G36*
X132600000Y-108090000D02*
G01*
X132360000Y-107760000D01*
X132840000Y-107760000D01*
X132600000Y-108090000D01*
G37*
%TO.C,C4*%
X114490000Y-96146267D02*
X114490000Y-95853733D01*
X115510000Y-96146267D02*
X115510000Y-95853733D01*
%TO.C,R16*%
X127060974Y-114783750D02*
X126551526Y-114783750D01*
X127060974Y-115828750D02*
X126551526Y-115828750D01*
%TO.C,C15*%
X131102500Y-94253733D02*
X131102500Y-94546267D01*
X132122500Y-94253733D02*
X132122500Y-94546267D01*
%TO.C,C26*%
X104490000Y-106783767D02*
X104490000Y-106491233D01*
X105510000Y-106783767D02*
X105510000Y-106491233D01*
%TO.C,C29*%
X106146267Y-103490000D02*
X105853733Y-103490000D01*
X106146267Y-104510000D02*
X105853733Y-104510000D01*
%TO.C,D4*%
X130606250Y-115206250D02*
X132566250Y-115206250D01*
X130606250Y-116406250D02*
X132566250Y-116406250D01*
X132566250Y-116406250D02*
X132566250Y-115206250D01*
%TO.C,TP6*%
X111120000Y-101120000D02*
X112500000Y-101120000D01*
X111120000Y-102500000D02*
X111120000Y-101120000D01*
X111120000Y-103770000D02*
X111120000Y-103880000D01*
X111120000Y-103770000D02*
X113880000Y-103770000D01*
X111120000Y-103880000D02*
X113880000Y-103880000D01*
X113880000Y-103770000D02*
X113880000Y-103880000D01*
%TO.C,C30*%
X112990000Y-106491233D02*
X112990000Y-106783767D01*
X114010000Y-106491233D02*
X114010000Y-106783767D01*
%TO.C,R21*%
X106477500Y-106382776D02*
X106477500Y-106892224D01*
X107522500Y-106382776D02*
X107522500Y-106892224D01*
%TO.C,U1*%
X105175000Y-89600000D02*
X105975000Y-88800000D01*
X105175000Y-92200000D02*
X105175000Y-89600000D01*
X105975000Y-88800000D02*
X109825000Y-88800000D01*
X109825000Y-88800000D02*
X109825000Y-92200000D01*
X109825000Y-92200000D02*
X105175000Y-92200000D01*
%TO.C,U2*%
X126362500Y-92790000D02*
X124162500Y-92790000D01*
X126362500Y-92790000D02*
X128562500Y-92790000D01*
X126362500Y-98010000D02*
X124162500Y-98010000D01*
X126362500Y-98010000D02*
X128562500Y-98010000D01*
X129502500Y-98140000D02*
X129022500Y-98140000D01*
X129262500Y-97810000D01*
X129502500Y-98140000D01*
G36*
X129502500Y-98140000D02*
G01*
X129022500Y-98140000D01*
X129262500Y-97810000D01*
X129502500Y-98140000D01*
G37*
%TO.C,R11*%
X114254724Y-91477500D02*
X113745276Y-91477500D01*
X114254724Y-92522500D02*
X113745276Y-92522500D01*
%TO.C,C32*%
X118990000Y-106547483D02*
X118990000Y-106840017D01*
X120010000Y-106547483D02*
X120010000Y-106840017D01*
%TO.C,R4*%
X135754724Y-105977500D02*
X135245276Y-105977500D01*
X135754724Y-107022500D02*
X135245276Y-107022500D01*
%TO.C,D3*%
X123456250Y-111506250D02*
X123456250Y-109546250D01*
X124656250Y-109546250D02*
X123456250Y-109546250D01*
X124656250Y-111506250D02*
X124656250Y-109546250D01*
%TO.C,TP3*%
X135120000Y-113870000D02*
X136500000Y-113870000D01*
X135120000Y-115250000D02*
X135120000Y-113870000D01*
X135120000Y-116520000D02*
X135120000Y-116630000D01*
X135120000Y-116520000D02*
X137880000Y-116520000D01*
X135120000Y-116630000D02*
X137880000Y-116630000D01*
X137880000Y-116520000D02*
X137880000Y-116630000D01*
%TO.C,C25*%
X102990000Y-96353733D02*
X102990000Y-96646267D01*
X104010000Y-96353733D02*
X104010000Y-96646267D01*
%TO.C,TP1*%
X133870000Y-102120000D02*
X135250000Y-102120000D01*
X133870000Y-103500000D02*
X133870000Y-102120000D01*
X133870000Y-104770000D02*
X133870000Y-104880000D01*
X133870000Y-104770000D02*
X136630000Y-104770000D01*
X133870000Y-104880000D02*
X136630000Y-104880000D01*
X136630000Y-104770000D02*
X136630000Y-104880000D01*
%TO.C,R13*%
X145727500Y-109504724D02*
X145727500Y-108995276D01*
X146772500Y-109504724D02*
X146772500Y-108995276D01*
%TO.C,TP2*%
X133620000Y-96620000D02*
X135000000Y-96620000D01*
X133620000Y-98000000D02*
X133620000Y-96620000D01*
X133620000Y-99270000D02*
X133620000Y-99380000D01*
X133620000Y-99270000D02*
X136380000Y-99270000D01*
X133620000Y-99380000D02*
X136380000Y-99380000D01*
X136380000Y-99270000D02*
X136380000Y-99380000D01*
%TO.C,R17*%
X150477500Y-98745276D02*
X150477500Y-99254724D01*
X151522500Y-98745276D02*
X151522500Y-99254724D01*
%TO.C,C18*%
X151603733Y-95740000D02*
X151896267Y-95740000D01*
X151603733Y-96760000D02*
X151896267Y-96760000D01*
%TO.C,C10*%
X115646267Y-89290000D02*
X115353733Y-89290000D01*
X115646267Y-90310000D02*
X115353733Y-90310000D01*
%TO.C,J2*%
X138380000Y-89945000D02*
X138380000Y-92605000D01*
X140980000Y-89945000D02*
X138380000Y-89945000D01*
X140980000Y-89945000D02*
X140980000Y-92605000D01*
X140980000Y-92605000D02*
X138380000Y-92605000D01*
X143580000Y-91275000D02*
X143580000Y-92605000D01*
X143580000Y-92605000D02*
X142250000Y-92605000D01*
%TO.C,TP10*%
X154020000Y-91820000D02*
X155400000Y-91820000D01*
X154020000Y-93200000D02*
X154020000Y-91820000D01*
X154020000Y-94470000D02*
X154020000Y-94580000D01*
X154020000Y-94470000D02*
X156780000Y-94470000D01*
X154020000Y-94580000D02*
X156780000Y-94580000D01*
X156780000Y-94470000D02*
X156780000Y-94580000D01*
%TO.C,J1*%
X98320000Y-87450000D02*
X98320000Y-90660000D01*
X98320000Y-87450000D02*
X100980000Y-87450000D01*
X98320000Y-92180000D02*
X98320000Y-95740000D01*
X98320000Y-97260000D02*
X98320000Y-100820000D01*
X98320000Y-102340000D02*
X98320000Y-105900000D01*
X98320000Y-107420000D02*
X98320000Y-108090000D01*
X98320000Y-108090000D02*
X100980000Y-108090000D01*
X100980000Y-87450000D02*
X100980000Y-88120000D01*
X100980000Y-88120000D02*
X102190000Y-88120000D01*
X100980000Y-89640000D02*
X100980000Y-93200000D01*
X100980000Y-94720000D02*
X100980000Y-98280000D01*
X100980000Y-99800000D02*
X100980000Y-103360000D01*
X100980000Y-104880000D02*
X100980000Y-108090000D01*
%TO.C,C2*%
X114990000Y-101853733D02*
X114990000Y-102146267D01*
X116010000Y-101853733D02*
X116010000Y-102146267D01*
%TO.C,R1*%
X128045276Y-86727500D02*
X128554724Y-86727500D01*
X128045276Y-87772500D02*
X128554724Y-87772500D01*
%TO.C,C11*%
X131958750Y-100508767D02*
X131958750Y-100216233D01*
X132978750Y-100508767D02*
X132978750Y-100216233D01*
%TO.C,C16*%
X120708750Y-96646267D02*
X120708750Y-96353733D01*
X121728750Y-96646267D02*
X121728750Y-96353733D01*
%TO.C,R3*%
X120227500Y-102995276D02*
X120227500Y-103504724D01*
X121272500Y-102995276D02*
X121272500Y-103504724D01*
%TO.C,C22*%
X143046250Y-109702517D02*
X143046250Y-109409983D01*
X144066250Y-109702517D02*
X144066250Y-109409983D01*
%TO.C,C23*%
X146603733Y-93740000D02*
X146896267Y-93740000D01*
X146603733Y-94760000D02*
X146896267Y-94760000D01*
%TO.C,R9*%
X129696250Y-100107776D02*
X129696250Y-100617224D01*
X130741250Y-100107776D02*
X130741250Y-100617224D01*
%TO.C,C7*%
X146602500Y-102103733D02*
X146602500Y-102396267D01*
X147622500Y-102103733D02*
X147622500Y-102396267D01*
%TO.C,TP9*%
X131520000Y-87320000D02*
X132900000Y-87320000D01*
X131520000Y-88700000D02*
X131520000Y-87320000D01*
X131520000Y-89970000D02*
X131520000Y-90080000D01*
X131520000Y-89970000D02*
X134280000Y-89970000D01*
X131520000Y-90080000D02*
X134280000Y-90080000D01*
X134280000Y-89970000D02*
X134280000Y-90080000D01*
%TO.C,TP4*%
X154120000Y-97620000D02*
X155500000Y-97620000D01*
X154120000Y-99000000D02*
X154120000Y-97620000D01*
X154120000Y-100270000D02*
X154120000Y-100380000D01*
X154120000Y-100270000D02*
X156880000Y-100270000D01*
X154120000Y-100380000D02*
X156880000Y-100380000D01*
X156880000Y-100270000D02*
X156880000Y-100380000D01*
%TO.C,R24*%
X114977500Y-106439026D02*
X114977500Y-106948474D01*
X116022500Y-106439026D02*
X116022500Y-106948474D01*
%TO.C,R15*%
X133254724Y-116977500D02*
X132745276Y-116977500D01*
X133254724Y-118022500D02*
X132745276Y-118022500D01*
%TO.C,R5*%
X139477500Y-105745276D02*
X139477500Y-106254724D01*
X140522500Y-105745276D02*
X140522500Y-106254724D01*
%TO.C,U7*%
X108440000Y-106637500D02*
X108440000Y-105837500D01*
X108440000Y-106637500D02*
X108440000Y-107437500D01*
X111560000Y-106637500D02*
X111560000Y-105837500D01*
X111560000Y-106637500D02*
X111560000Y-107437500D01*
X111840000Y-105577500D02*
X111510000Y-105337500D01*
X111840000Y-105097500D01*
X111840000Y-105577500D01*
G36*
X111840000Y-105577500D02*
G01*
X111510000Y-105337500D01*
X111840000Y-105097500D01*
X111840000Y-105577500D01*
G37*
%TO.C,C6*%
X108490000Y-86353733D02*
X108490000Y-86646267D01*
X109510000Y-86353733D02*
X109510000Y-86646267D01*
%TO.C,R14*%
X125310974Y-112783750D02*
X124801526Y-112783750D01*
X125310974Y-113828750D02*
X124801526Y-113828750D01*
%TO.C,C37*%
X120990000Y-106547483D02*
X120990000Y-106840017D01*
X122010000Y-106547483D02*
X122010000Y-106840017D01*
%TO.C,U8*%
X143862500Y-100690000D02*
X143062500Y-100690000D01*
X143862500Y-100690000D02*
X144662500Y-100690000D01*
X143862500Y-103810000D02*
X143062500Y-103810000D01*
X143862500Y-103810000D02*
X144662500Y-103810000D01*
X145402500Y-104090000D02*
X144922500Y-104090000D01*
X145162500Y-103760000D01*
X145402500Y-104090000D01*
G36*
X145402500Y-104090000D02*
G01*
X144922500Y-104090000D01*
X145162500Y-103760000D01*
X145402500Y-104090000D01*
G37*
%TO.C,TP5*%
X110620000Y-83620000D02*
X112000000Y-83620000D01*
X110620000Y-85000000D02*
X110620000Y-83620000D01*
X110620000Y-86270000D02*
X110620000Y-86380000D01*
X110620000Y-86270000D02*
X113380000Y-86270000D01*
X110620000Y-86380000D02*
X113380000Y-86380000D01*
X113380000Y-86270000D02*
X113380000Y-86380000D01*
%TO.C,C21*%
X128796250Y-111159983D02*
X128796250Y-111452517D01*
X129816250Y-111159983D02*
X129816250Y-111452517D01*
%TO.C,TP7*%
X114620000Y-83620000D02*
X116000000Y-83620000D01*
X114620000Y-85000000D02*
X114620000Y-83620000D01*
X114620000Y-86270000D02*
X114620000Y-86380000D01*
X114620000Y-86270000D02*
X117380000Y-86270000D01*
X114620000Y-86380000D02*
X117380000Y-86380000D01*
X117380000Y-86270000D02*
X117380000Y-86380000D01*
%TO.C,C8*%
X106490000Y-86353733D02*
X106490000Y-86646267D01*
X107510000Y-86353733D02*
X107510000Y-86646267D01*
%TO.C,C9*%
X112146267Y-89290000D02*
X111853733Y-89290000D01*
X112146267Y-90310000D02*
X111853733Y-90310000D01*
%TO.C,C24*%
X146603733Y-91990000D02*
X146896267Y-91990000D01*
X146603733Y-93010000D02*
X146896267Y-93010000D01*
%TO.C,R12*%
X126723474Y-88477500D02*
X126214026Y-88477500D01*
X126723474Y-89522500D02*
X126214026Y-89522500D01*
%TO.C,C36*%
X122990000Y-106547483D02*
X122990000Y-106840017D01*
X124010000Y-106547483D02*
X124010000Y-106840017D01*
%TO.C,C13*%
X133102500Y-94253733D02*
X133102500Y-94546267D01*
X134122500Y-94253733D02*
X134122500Y-94546267D01*
%TO.C,C1*%
X104490000Y-96353733D02*
X104490000Y-96646267D01*
X105510000Y-96353733D02*
X105510000Y-96646267D01*
%TO.C,C17*%
X121546250Y-110952517D02*
X121546250Y-110659983D01*
X122566250Y-110952517D02*
X122566250Y-110659983D01*
%TO.C,RV1*%
X152100000Y-112777000D02*
G75*
G02*
X150126999Y-103843999I1550805J5026906D01*
G01*
X152396000Y-102642000D02*
G75*
G02*
X154611000Y-102578000I1255960J-5106140D01*
G01*
X157019000Y-103710000D02*
G75*
G02*
X154896000Y-112860000I-3368761J-4039665D01*
G01*
%TO.C,R8*%
X129995276Y-102727500D02*
X130504724Y-102727500D01*
X129995276Y-103772500D02*
X130504724Y-103772500D01*
%TO.C,TP11*%
X101370000Y-109120000D02*
X102750000Y-109120000D01*
X101370000Y-110500000D02*
X101370000Y-109120000D01*
X101370000Y-111770000D02*
X101370000Y-111880000D01*
X101370000Y-111770000D02*
X104130000Y-111770000D01*
X101370000Y-111880000D02*
X104130000Y-111880000D01*
X104130000Y-111770000D02*
X104130000Y-111880000D01*
%TO.C,R25*%
X116977500Y-106439026D02*
X116977500Y-106948474D01*
X118022500Y-106439026D02*
X118022500Y-106948474D01*
%TO.C,U9*%
X140325000Y-96100000D02*
X141125000Y-95300000D01*
X140325000Y-98700000D02*
X140325000Y-96100000D01*
X141125000Y-95300000D02*
X147175000Y-95300000D01*
X147175000Y-95300000D02*
X147175000Y-98700000D01*
X147175000Y-98700000D02*
X140325000Y-98700000D01*
%TO.C,C20*%
X141296250Y-109702517D02*
X141296250Y-109409983D01*
X142316250Y-109702517D02*
X142316250Y-109409983D01*
%TO.C,R2*%
X118227500Y-103504724D02*
X118227500Y-102995276D01*
X119272500Y-103504724D02*
X119272500Y-102995276D01*
%TO.C,C5*%
X140352500Y-101103733D02*
X140352500Y-101396267D01*
X141372500Y-101103733D02*
X141372500Y-101396267D01*
%TO.C,U5*%
X110000000Y-95075000D02*
X108050000Y-95075000D01*
X110000000Y-95075000D02*
X111950000Y-95075000D01*
X110000000Y-100195000D02*
X108050000Y-100195000D01*
X110000000Y-100195000D02*
X111950000Y-100195000D01*
X107300000Y-95170000D02*
X107060000Y-94840000D01*
X107540000Y-94840000D01*
X107300000Y-95170000D01*
G36*
X107300000Y-95170000D02*
G01*
X107060000Y-94840000D01*
X107540000Y-94840000D01*
X107300000Y-95170000D01*
G37*
%TO.C,C19*%
X127046250Y-111159983D02*
X127046250Y-111452517D01*
X128066250Y-111159983D02*
X128066250Y-111452517D01*
%TO.C,C3*%
X116240000Y-96146267D02*
X116240000Y-95853733D01*
X117260000Y-96146267D02*
X117260000Y-95853733D01*
%TO.C,R10*%
X118477500Y-89004724D02*
X118477500Y-88495276D01*
X119522500Y-89004724D02*
X119522500Y-88495276D01*
%TO.C,C14*%
X118958750Y-96646267D02*
X118958750Y-96353733D01*
X119978750Y-96646267D02*
X119978750Y-96353733D01*
%TO.C,C12*%
X126646267Y-103840000D02*
X126353733Y-103840000D01*
X126646267Y-104860000D02*
X126353733Y-104860000D01*
%TO.C,R6*%
X141177500Y-105904724D02*
X141177500Y-105395276D01*
X142222500Y-105904724D02*
X142222500Y-105395276D01*
%TO.C,C27*%
X110353733Y-109490000D02*
X110646267Y-109490000D01*
X110353733Y-110510000D02*
X110646267Y-110510000D01*
%TD*%
D13*
X161300000Y-120300000D02*
G75*
G02*
X159300000Y-122300000I-2000000J0D01*
G01*
X92200000Y-122300000D02*
G75*
G02*
X90200000Y-120300000I0J2000000D01*
G01*
X159300000Y-80400000D02*
G75*
G02*
X161300000Y-82400000I0J-2000000D01*
G01*
X90200000Y-82400000D02*
G75*
G02*
X92200000Y-80400000I2000000J0D01*
G01*
X161300000Y-82400000D02*
X161300000Y-120300000D01*
X90200000Y-120300000D02*
X90200000Y-82400000D01*
X159300000Y-122300000D02*
X92200000Y-122300000D01*
X92200000Y-80400000D02*
X159300000Y-80400000D01*
M02*
