M48
; DRILL file {KiCad 9.0.4} date 2025-12-09T22:31:23-0500
; FORMAT={-:-/ absolute / metric / decimal}
; #@! TF.CreationDate,2025-12-09T22:31:23-05:00
; #@! TF.GenerationSoftware,Kicad,Pcbnew,9.0.4
; #@! TF.FileFunction,Plated,1,4,PTH
FMAT,2
METRIC
; #@! TA.AperFunction,Plated,PTH,ViaDrill
T1C0.400
; #@! TA.AperFunction,Plated,PTH,ComponentDrill
T2C1.000
; #@! TA.AperFunction,Plated,PTH,ComponentDrill
T3C1.300
%
G90
G05
T1
X98.0Y-96.5
X98.0Y-101.58
X99.75Y-102.5
X102.25Y-106.0
X103.5Y-100.0
X103.6Y-107.8
X105.137Y-104.0
X106.0Y-92.75
X107.0Y-85.638
X107.75Y-101.5
X109.0Y-85.638
X109.0Y-87.362
X109.9Y-103.4
X113.2Y-87.8
X113.5Y-108.8
X115.0Y-95.137
X115.5Y-102.862
X115.5Y-108.8
X116.75Y-95.137
X117.5Y-108.8
X119.0Y-87.837
X119.469Y-97.362
X119.5Y-108.8
X121.219Y-95.637
X121.219Y-97.362
X121.4Y-108.8
X122.2Y-104.0
X123.6Y-108.8
X123.969Y-89.5
X124.969Y-99.5
X125.556Y-89.0
X126.219Y-95.25
X126.3Y-111.3
X126.4Y-107.8
X127.5Y-107.8
X127.556Y-112.169
X128.6Y-107.8
X129.306Y-112.169
X131.219Y-97.75
X131.612Y-93.537
X132.5Y-101.2
X132.5Y-114.0
X133.612Y-93.537
X133.912Y-117.5
X135.1Y-95.1
X135.25Y-111.5
X136.1Y-109.9
X140.0Y-107.65
X140.738Y-86.962
X140.862Y-100.387
X141.0Y-113.25
X141.5Y-93.8
X141.5Y-99.25
X141.8Y-110.4
X141.806Y-108.694
X142.7Y-99.5
X143.2Y-107.1
X143.556Y-108.694
X143.6Y-110.4
X144.3Y-95.7
X146.25Y-108.337
X146.512Y-106.6
X147.112Y-101.387
X147.612Y-92.5
X147.612Y-94.25
X148.0Y-96.0
X148.47Y-98.47
X148.5Y-97.25
X152.612Y-96.25
T2
X102.75Y-110.5
X112.0Y-85.0
X112.5Y-102.5
X116.0Y-85.0
X123.35Y-101.65
X132.9Y-88.7
X135.0Y-98.0
X135.25Y-103.5
X136.5Y-115.25
X139.71Y-91.275
X142.25Y-91.275
X155.4Y-93.2
X155.5Y-99.0
T3
X151.0Y-102.75
X153.5Y-112.75
X156.0Y-102.75
M30
