%TF.GenerationSoftware,KiCad,Pcbnew,9.0.4*%
%TF.CreationDate,2025-12-09T22:31:03-05:00*%
%TF.ProjectId,EMG_BCI_PCB,454d475f-4243-4495-9f50-43422e6b6963,rev?*%
%TF.SameCoordinates,Original*%
%TF.FileFunction,Soldermask,Top*%
%TF.FilePolarity,Negative*%
%FSLAX46Y46*%
G04 Gerber Fmt 4.6, Leading zero omitted, Abs format (unit mm)*
G04 Created by KiCad (PCBNEW 9.0.4) date 2025-12-09 22:31:03*
%MOMM*%
%LPD*%
G01*
G04 APERTURE LIST*
G04 Aperture macros list*
%AMRoundRect*
0 Rectangle with rounded corners*
0 $1 Rounding radius*
0 $2 $3 $4 $5 $6 $7 $8 $9 X,Y pos of 4 corners*
0 Add a 4 corners polygon primitive as box body*
4,1,4,$2,$3,$4,$5,$6,$7,$8,$9,$2,$3,0*
0 Add four circle primitives for the rounded corners*
1,1,$1+$1,$2,$3*
1,1,$1+$1,$4,$5*
1,1,$1+$1,$6,$7*
1,1,$1+$1,$8,$9*
0 Add four rect primitives between the rounded corners*
20,1,$1+$1,$2,$3,$4,$5,0*
20,1,$1+$1,$4,$5,$6,$7,0*
20,1,$1+$1,$6,$7,$8,$9,0*
20,1,$1+$1,$8,$9,$2,$3,0*%
G04 Aperture macros list end*
%ADD10R,1.700000X1.700000*%
%ADD11RoundRect,0.237500X-0.250000X-0.237500X0.250000X-0.237500X0.250000X0.237500X-0.250000X0.237500X0*%
%ADD12RoundRect,0.100000X-0.637500X-0.100000X0.637500X-0.100000X0.637500X0.100000X-0.637500X0.100000X0*%
%ADD13RoundRect,0.237500X0.237500X-0.300000X0.237500X0.300000X-0.237500X0.300000X-0.237500X-0.300000X0*%
%ADD14RoundRect,0.237500X0.250000X0.237500X-0.250000X0.237500X-0.250000X-0.237500X0.250000X-0.237500X0*%
%ADD15RoundRect,0.237500X-0.237500X0.300000X-0.237500X-0.300000X0.237500X-0.300000X0.237500X0.300000X0*%
%ADD16RoundRect,0.237500X0.300000X0.237500X-0.300000X0.237500X-0.300000X-0.237500X0.300000X-0.237500X0*%
%ADD17RoundRect,0.150000X-0.150000X-0.200000X0.150000X-0.200000X0.150000X0.200000X-0.150000X0.200000X0*%
%ADD18RoundRect,0.237500X-0.237500X0.250000X-0.237500X-0.250000X0.237500X-0.250000X0.237500X0.250000X0*%
%ADD19R,1.050000X0.450000*%
%ADD20RoundRect,0.100000X0.637500X0.100000X-0.637500X0.100000X-0.637500X-0.100000X0.637500X-0.100000X0*%
%ADD21RoundRect,0.150000X0.200000X-0.150000X0.200000X0.150000X-0.200000X0.150000X-0.200000X-0.150000X0*%
%ADD22RoundRect,0.237500X0.237500X-0.250000X0.237500X0.250000X-0.237500X0.250000X-0.237500X-0.250000X0*%
%ADD23RoundRect,0.237500X-0.300000X-0.237500X0.300000X-0.237500X0.300000X0.237500X-0.300000X0.237500X0*%
%ADD24C,1.700000*%
%ADD25R,1.900000X1.000000*%
%ADD26RoundRect,0.150000X-0.150000X0.512500X-0.150000X-0.512500X0.150000X-0.512500X0.150000X0.512500X0*%
%ADD27RoundRect,0.150000X0.512500X0.150000X-0.512500X0.150000X-0.512500X-0.150000X0.512500X-0.150000X0*%
%ADD28C,2.340000*%
%ADD29R,1.450000X0.450000*%
%ADD30RoundRect,0.150000X-0.825000X-0.150000X0.825000X-0.150000X0.825000X0.150000X-0.825000X0.150000X0*%
%TA.AperFunction,Profile*%
%ADD31C,0.100000*%
%TD*%
G04 APERTURE END LIST*
D10*
%TO.C,TP8*%
X123350000Y-101650000D03*
%TD*%
D11*
%TO.C,R7*%
X144687500Y-106600000D03*
X146512500Y-106600000D03*
%TD*%
D12*
%TO.C,U3*%
X132637500Y-108550000D03*
X132637500Y-109200000D03*
X132637500Y-109850000D03*
X132637500Y-110500000D03*
X132637500Y-111150000D03*
X132637500Y-111800000D03*
X132637500Y-112450000D03*
X138362500Y-112450000D03*
X138362500Y-111800000D03*
X138362500Y-111150000D03*
X138362500Y-110500000D03*
X138362500Y-109850000D03*
X138362500Y-109200000D03*
X138362500Y-108550000D03*
%TD*%
D13*
%TO.C,C4*%
X115000000Y-96862500D03*
X115000000Y-95137500D03*
%TD*%
D14*
%TO.C,R16*%
X127718750Y-115306250D03*
X125893750Y-115306250D03*
%TD*%
D15*
%TO.C,C15*%
X131612500Y-93537500D03*
X131612500Y-95262500D03*
%TD*%
D13*
%TO.C,C26*%
X105000000Y-107500000D03*
X105000000Y-105775000D03*
%TD*%
D16*
%TO.C,C29*%
X106862500Y-104000000D03*
X105137500Y-104000000D03*
%TD*%
D17*
%TO.C,D4*%
X132006250Y-115806250D03*
X130606250Y-115806250D03*
%TD*%
D10*
%TO.C,TP6*%
X112500000Y-102500000D03*
%TD*%
D15*
%TO.C,C30*%
X113500000Y-105775000D03*
X113500000Y-107500000D03*
%TD*%
D18*
%TO.C,R21*%
X107000000Y-105725000D03*
X107000000Y-107550000D03*
%TD*%
D19*
%TO.C,U1*%
X106200000Y-89525000D03*
X106200000Y-90175000D03*
X106200000Y-90825000D03*
X106200000Y-91475000D03*
X108800000Y-91475000D03*
X108800000Y-90825000D03*
X108800000Y-90175000D03*
X108800000Y-89525000D03*
%TD*%
D20*
%TO.C,U2*%
X129225000Y-97350000D03*
X129225000Y-96700000D03*
X129225000Y-96050000D03*
X129225000Y-95400000D03*
X129225000Y-94750000D03*
X129225000Y-94100000D03*
X129225000Y-93450000D03*
X123500000Y-93450000D03*
X123500000Y-94100000D03*
X123500000Y-94750000D03*
X123500000Y-95400000D03*
X123500000Y-96050000D03*
X123500000Y-96700000D03*
X123500000Y-97350000D03*
%TD*%
D14*
%TO.C,R11*%
X114912500Y-92000000D03*
X113087500Y-92000000D03*
%TD*%
D15*
%TO.C,C32*%
X119500000Y-105831250D03*
X119500000Y-107556250D03*
%TD*%
D14*
%TO.C,R4*%
X136412500Y-106500000D03*
X134587500Y-106500000D03*
%TD*%
D21*
%TO.C,D3*%
X124056250Y-110106250D03*
X124056250Y-111506250D03*
%TD*%
D10*
%TO.C,TP3*%
X136500000Y-115250000D03*
%TD*%
D15*
%TO.C,C25*%
X103500000Y-95637500D03*
X103500000Y-97362500D03*
%TD*%
D10*
%TO.C,TP1*%
X135250000Y-103500000D03*
%TD*%
D22*
%TO.C,R13*%
X146250000Y-110162500D03*
X146250000Y-108337500D03*
%TD*%
D10*
%TO.C,TP2*%
X135000000Y-98000000D03*
%TD*%
D18*
%TO.C,R17*%
X151000000Y-98087500D03*
X151000000Y-99912500D03*
%TD*%
D23*
%TO.C,C18*%
X150887500Y-96250000D03*
X152612500Y-96250000D03*
%TD*%
D16*
%TO.C,C10*%
X116362500Y-89800000D03*
X114637500Y-89800000D03*
%TD*%
D10*
%TO.C,J2*%
X142250000Y-91275000D03*
D24*
X139710000Y-91275000D03*
%TD*%
D10*
%TO.C,TP10*%
X155400000Y-93200000D03*
%TD*%
D25*
%TO.C,J1*%
X101300000Y-88880000D03*
X98000000Y-91420000D03*
X101300000Y-93960000D03*
X98000000Y-96500000D03*
X101300000Y-99040000D03*
X98000000Y-101580000D03*
X101300000Y-104120000D03*
X98000000Y-106660000D03*
%TD*%
D15*
%TO.C,C2*%
X115500000Y-101137500D03*
X115500000Y-102862500D03*
%TD*%
D11*
%TO.C,R1*%
X127387500Y-87250000D03*
X129212500Y-87250000D03*
%TD*%
D13*
%TO.C,C11*%
X132468750Y-101225000D03*
X132468750Y-99500000D03*
%TD*%
%TO.C,C16*%
X121218750Y-97362500D03*
X121218750Y-95637500D03*
%TD*%
D18*
%TO.C,R3*%
X120750000Y-102337500D03*
X120750000Y-104162500D03*
%TD*%
D13*
%TO.C,C22*%
X143556250Y-110418750D03*
X143556250Y-108693750D03*
%TD*%
D23*
%TO.C,C23*%
X145887500Y-94250000D03*
X147612500Y-94250000D03*
%TD*%
D18*
%TO.C,R9*%
X130218750Y-99450000D03*
X130218750Y-101275000D03*
%TD*%
D15*
%TO.C,C7*%
X147112500Y-101387500D03*
X147112500Y-103112500D03*
%TD*%
D10*
%TO.C,TP9*%
X132900000Y-88700000D03*
%TD*%
%TO.C,TP4*%
X155500000Y-99000000D03*
%TD*%
D18*
%TO.C,R24*%
X115500000Y-105781250D03*
X115500000Y-107606250D03*
%TD*%
D14*
%TO.C,R15*%
X133912500Y-117500000D03*
X132087500Y-117500000D03*
%TD*%
D18*
%TO.C,R5*%
X140000000Y-105087500D03*
X140000000Y-106912500D03*
%TD*%
D26*
%TO.C,U7*%
X110950000Y-105500000D03*
X110000000Y-105500000D03*
X109050000Y-105500000D03*
X109050000Y-107775000D03*
X110000000Y-107775000D03*
X110950000Y-107775000D03*
%TD*%
D15*
%TO.C,C6*%
X109000000Y-85637500D03*
X109000000Y-87362500D03*
%TD*%
D14*
%TO.C,R14*%
X125968750Y-113306250D03*
X124143750Y-113306250D03*
%TD*%
D15*
%TO.C,C37*%
X121500000Y-105831250D03*
X121500000Y-107556250D03*
%TD*%
D27*
%TO.C,U8*%
X145000000Y-103200000D03*
X145000000Y-102250000D03*
X145000000Y-101300000D03*
X142725000Y-101300000D03*
X142725000Y-102250000D03*
X142725000Y-103200000D03*
%TD*%
D10*
%TO.C,TP5*%
X112000000Y-85000000D03*
%TD*%
D15*
%TO.C,C21*%
X129306250Y-110443750D03*
X129306250Y-112168750D03*
%TD*%
D10*
%TO.C,TP7*%
X116000000Y-85000000D03*
%TD*%
D15*
%TO.C,C8*%
X107000000Y-85637500D03*
X107000000Y-87362500D03*
%TD*%
D16*
%TO.C,C9*%
X112862500Y-89800000D03*
X111137500Y-89800000D03*
%TD*%
D23*
%TO.C,C24*%
X145887500Y-92500000D03*
X147612500Y-92500000D03*
%TD*%
D14*
%TO.C,R12*%
X127381250Y-89000000D03*
X125556250Y-89000000D03*
%TD*%
D15*
%TO.C,C36*%
X123500000Y-105831250D03*
X123500000Y-107556250D03*
%TD*%
%TO.C,C13*%
X133612500Y-93537500D03*
X133612500Y-95262500D03*
%TD*%
%TO.C,C1*%
X105000000Y-95637500D03*
X105000000Y-97362500D03*
%TD*%
D13*
%TO.C,C17*%
X122056250Y-111668750D03*
X122056250Y-109943750D03*
%TD*%
D28*
%TO.C,RV1*%
X151000000Y-102750000D03*
X153500000Y-112750000D03*
X156000000Y-102750000D03*
%TD*%
D11*
%TO.C,R8*%
X129337500Y-103250000D03*
X131162500Y-103250000D03*
%TD*%
D10*
%TO.C,TP11*%
X102750000Y-110500000D03*
%TD*%
D18*
%TO.C,R25*%
X117500000Y-105781250D03*
X117500000Y-107606250D03*
%TD*%
D29*
%TO.C,U9*%
X141550000Y-96025000D03*
X141550000Y-96675000D03*
X141550000Y-97325000D03*
X141550000Y-97975000D03*
X145950000Y-97975000D03*
X145950000Y-97325000D03*
X145950000Y-96675000D03*
X145950000Y-96025000D03*
%TD*%
D13*
%TO.C,C20*%
X141806250Y-110418750D03*
X141806250Y-108693750D03*
%TD*%
D22*
%TO.C,R2*%
X118750000Y-104162500D03*
X118750000Y-102337500D03*
%TD*%
D15*
%TO.C,C5*%
X140862500Y-100387500D03*
X140862500Y-102112500D03*
%TD*%
D30*
%TO.C,U5*%
X107525000Y-95730000D03*
X107525000Y-97000000D03*
X107525000Y-98270000D03*
X107525000Y-99540000D03*
X112475000Y-99540000D03*
X112475000Y-98270000D03*
X112475000Y-97000000D03*
X112475000Y-95730000D03*
%TD*%
D15*
%TO.C,C19*%
X127556250Y-110443750D03*
X127556250Y-112168750D03*
%TD*%
D13*
%TO.C,C3*%
X116750000Y-96862500D03*
X116750000Y-95137500D03*
%TD*%
D22*
%TO.C,R10*%
X119000000Y-89662500D03*
X119000000Y-87837500D03*
%TD*%
D13*
%TO.C,C14*%
X119468750Y-97362500D03*
X119468750Y-95637500D03*
%TD*%
D16*
%TO.C,C12*%
X127362500Y-104350000D03*
X125637500Y-104350000D03*
%TD*%
D22*
%TO.C,R6*%
X141700000Y-106562500D03*
X141700000Y-104737500D03*
%TD*%
D23*
%TO.C,C27*%
X109637500Y-110000000D03*
X111362500Y-110000000D03*
%TD*%
D31*
X161300000Y-120300000D02*
G75*
G02*
X159300000Y-122300000I-2000000J0D01*
G01*
X92200000Y-122300000D02*
G75*
G02*
X90200000Y-120300000I0J2000000D01*
G01*
X159300000Y-80400000D02*
G75*
G02*
X161300000Y-82400000I0J-2000000D01*
G01*
X90200000Y-82400000D02*
G75*
G02*
X92200000Y-80400000I2000000J0D01*
G01*
X161300000Y-82400000D02*
X161300000Y-120300000D01*
X90200000Y-120300000D02*
X90200000Y-82400000D01*
X159300000Y-122300000D02*
X92200000Y-122300000D01*
X92200000Y-80400000D02*
X159300000Y-80400000D01*
M02*
