%TF.GenerationSoftware,KiCad,Pcbnew,9.0.4*%
%TF.CreationDate,2025-12-09T22:31:03-05:00*%
%TF.ProjectId,EMG_BCI_PCB,454d475f-4243-4495-9f50-43422e6b6963,rev?*%
%TF.SameCoordinates,Original*%
%TF.FileFunction,Copper,L4,Bot*%
%TF.FilePolarity,Positive*%
%FSLAX46Y46*%
G04 Gerber Fmt 4.6, Leading zero omitted, Abs format (unit mm)*
G04 Created by KiCad (PCBNEW 9.0.4) date 2025-12-09 22:31:03*
%MOMM*%
%LPD*%
G01*
G04 APERTURE LIST*
%TA.AperFunction,ComponentPad*%
%ADD10R,1.700000X1.700000*%
%TD*%
%TA.AperFunction,ComponentPad*%
%ADD11C,1.700000*%
%TD*%
%TA.AperFunction,ComponentPad*%
%ADD12C,2.340000*%
%TD*%
%TA.AperFunction,ViaPad*%
%ADD13C,0.800000*%
%TD*%
%TA.AperFunction,Conductor*%
%ADD14C,0.300000*%
%TD*%
%TA.AperFunction,Conductor*%
%ADD15C,0.250000*%
%TD*%
%TA.AperFunction,Conductor*%
%ADD16C,0.700000*%
%TD*%
%TA.AperFunction,Profile*%
%ADD17C,0.100000*%
%TD*%
G04 APERTURE END LIST*
D10*
%TO.P,TP8,1,1*%
%TO.N,Earth*%
X123350000Y-101650000D03*
%TD*%
%TO.P,TP6,1,1*%
%TO.N,Net-(U5-PWRGD)*%
X112500000Y-102500000D03*
%TD*%
%TO.P,TP3,1,1*%
%TO.N,Net-(U3C-+)*%
X136500000Y-115250000D03*
%TD*%
%TO.P,TP1,1,1*%
%TO.N,/EMG_FrontEnd/LP_OUT*%
X135250000Y-103500000D03*
%TD*%
%TO.P,TP2,1,1*%
%TO.N,Net-(R1-Pad2)*%
X135000000Y-98000000D03*
%TD*%
%TO.P,J2,1,Pin_1*%
%TO.N,/EMG_ADC/AdcCh1*%
X142250000Y-91275000D03*
D11*
%TO.P,J2,2,Pin_2*%
%TO.N,/EMG_ADC/AdcCh0*%
X139710000Y-91275000D03*
%TD*%
D10*
%TO.P,TP10,1,1*%
%TO.N,Earth*%
X155400000Y-93200000D03*
%TD*%
%TO.P,TP9,1,1*%
%TO.N,Earth*%
X132900000Y-88700000D03*
%TD*%
%TO.P,TP4,1,1*%
%TO.N,Net-(R17-Pad2)*%
X155500000Y-99000000D03*
%TD*%
%TO.P,TP5,1,1*%
%TO.N,Net-(C9-Pad2)*%
X112000000Y-85000000D03*
%TD*%
%TO.P,TP7,1,1*%
%TO.N,Earth*%
X116000000Y-85000000D03*
%TD*%
D12*
%TO.P,RV1,1,1*%
%TO.N,Net-(R17-Pad2)*%
X151000000Y-102750000D03*
%TO.P,RV1,2,2*%
%TO.N,Net-(U3C--)*%
X153500000Y-112750000D03*
%TO.P,RV1,3,3*%
%TO.N,unconnected-(RV1-Pad3)*%
X156000000Y-102750000D03*
%TD*%
D10*
%TO.P,TP11,1,1*%
%TO.N,Earth*%
X102750000Y-110500000D03*
%TD*%
D13*
%TO.N,Net-(U3D--)*%
X143200000Y-107100000D03*
X140000000Y-107650000D03*
%TO.N,Earth*%
X146512500Y-106600000D03*
X133912500Y-117500000D03*
X109900000Y-103400000D03*
X123600000Y-108800000D03*
X121218750Y-97362500D03*
X107750000Y-101500000D03*
X147612500Y-94250000D03*
X141500000Y-99250000D03*
X113500000Y-108800000D03*
%TO.N,Net-(U3D-+)*%
X136100000Y-109900000D03*
%TO.N,Earth*%
X131612500Y-93537500D03*
X147612500Y-92500000D03*
X115000000Y-95137500D03*
X127556250Y-112168750D03*
X125556250Y-89000000D03*
X141806250Y-108693750D03*
X140862500Y-100387500D03*
X115500000Y-108800000D03*
X133612500Y-93537500D03*
X129306250Y-112168750D03*
X107000000Y-85637500D03*
X109000000Y-85637500D03*
X106000000Y-92750000D03*
X122200000Y-104000000D03*
X105137500Y-104000000D03*
X119468750Y-97362500D03*
X143556250Y-108693750D03*
X132500000Y-101200000D03*
X121400000Y-108800000D03*
X119000000Y-87837500D03*
X98000000Y-96500000D03*
X116750000Y-95137500D03*
X119500000Y-108800000D03*
X152612500Y-96250000D03*
X117500000Y-108800000D03*
X115500000Y-102862500D03*
X146250000Y-108337500D03*
X147112500Y-101387500D03*
%TO.N,+3.3V*%
X135100000Y-95100000D03*
X103600000Y-107800000D03*
X142700000Y-99500000D03*
X126300000Y-111300000D03*
X140738500Y-86961500D03*
X113200000Y-87800000D03*
X109000000Y-87362500D03*
X144300000Y-95700000D03*
%TO.N,Net-(U2A-+)*%
X131218750Y-97750000D03*
X123968750Y-89500000D03*
%TO.N,-3V3*%
X128600000Y-107800000D03*
X141800000Y-110400000D03*
X143600000Y-110400000D03*
X127500000Y-107800000D03*
X121218750Y-95637500D03*
X126400000Y-107800000D03*
%TO.N,/SPI_CLK*%
X103500000Y-100000000D03*
X148000000Y-96000000D03*
%TO.N,/SPI_CS*%
X141500000Y-93800000D03*
X99750000Y-102500000D03*
%TO.N,/SPI_DOUT*%
X102250000Y-106000000D03*
X148500000Y-97250000D03*
%TO.N,/SPI_DIN*%
X148469669Y-98469669D03*
X98000000Y-101580000D03*
%TO.N,Net-(U2C-+)*%
X124968750Y-99500000D03*
X126218750Y-95250000D03*
%TO.N,Net-(U3C-+)*%
X132500000Y-114000000D03*
X135250000Y-111500000D03*
%TO.N,Net-(R17-Pad2)*%
X141000000Y-113250000D03*
%TD*%
D14*
%TO.N,/SPI_CS*%
X103001000Y-99249000D02*
X99750000Y-102500000D01*
X103811075Y-99249000D02*
X103001000Y-99249000D01*
X104813075Y-100251000D02*
X103811075Y-99249000D01*
X141500000Y-94750000D02*
X135999000Y-100251000D01*
X141500000Y-93800000D02*
X141500000Y-94750000D01*
X135999000Y-100251000D02*
X104813075Y-100251000D01*
D15*
%TO.N,Net-(U3D--)*%
X140050000Y-107600000D02*
X140000000Y-107650000D01*
X142700000Y-107600000D02*
X140050000Y-107600000D01*
X143200000Y-107100000D02*
X142700000Y-107600000D01*
D14*
%TO.N,+3.3V*%
X106800000Y-111300000D02*
X103600000Y-108100000D01*
X135100000Y-95100000D02*
X135100000Y-92600000D01*
D16*
X113200000Y-87800000D02*
X109437500Y-87800000D01*
D14*
X126300000Y-111300000D02*
X106800000Y-111300000D01*
X142700000Y-99500000D02*
X144300000Y-97900000D01*
D16*
X109437500Y-87800000D02*
X109000000Y-87362500D01*
D14*
X135100000Y-92600000D02*
X140738500Y-86961500D01*
X144300000Y-97900000D02*
X144300000Y-95700000D01*
X103600000Y-108100000D02*
X103600000Y-107800000D01*
D15*
%TO.N,Net-(U2A-+)*%
X131218750Y-97750000D02*
X123968750Y-90500000D01*
X123968750Y-90500000D02*
X123968750Y-89500000D01*
D16*
%TO.N,-3V3*%
X145100000Y-85600000D02*
X124700000Y-85600000D01*
X141800000Y-110400000D02*
X143600000Y-110400000D01*
X144522459Y-105322459D02*
X149451000Y-100393918D01*
X124700000Y-85600000D02*
X121218750Y-89081250D01*
X128600000Y-107800000D02*
X138300000Y-107800000D01*
X140900000Y-110400000D02*
X141800000Y-110400000D01*
X144522459Y-109477541D02*
X144522459Y-105322459D01*
X138300000Y-107800000D02*
X140900000Y-110400000D01*
X149451000Y-100393918D02*
X149451000Y-89951000D01*
X121218750Y-89081250D02*
X121218750Y-95637500D01*
X149451000Y-89951000D02*
X145100000Y-85600000D01*
X143600000Y-110400000D02*
X144522459Y-109477541D01*
D14*
%TO.N,/SPI_CLK*%
X148000000Y-96000000D02*
X139250000Y-104750000D01*
X104250000Y-100750000D02*
X103500000Y-100000000D01*
X108250000Y-104750000D02*
X104250000Y-100750000D01*
X139250000Y-104750000D02*
X108250000Y-104750000D01*
%TO.N,/SPI_DOUT*%
X148500000Y-97250000D02*
X140000000Y-105750000D01*
X137750000Y-105750000D02*
X102500000Y-105750000D01*
X140000000Y-105750000D02*
X137750000Y-105750000D01*
X102500000Y-105750000D02*
X102250000Y-106000000D01*
%TO.N,/SPI_DIN*%
X98000000Y-103500000D02*
X98000000Y-101580000D01*
X140188338Y-106751000D02*
X101251000Y-106751000D01*
X148469669Y-98469669D02*
X140188338Y-106751000D01*
X101251000Y-106751000D02*
X98000000Y-103500000D01*
D15*
%TO.N,Net-(U2C-+)*%
X126218750Y-98250000D02*
X124968750Y-99500000D01*
X126218750Y-98000000D02*
X126218750Y-98250000D01*
X126218750Y-95250000D02*
X126218750Y-98000000D01*
D14*
%TO.N,Net-(U3C-+)*%
X135250000Y-111500000D02*
X132750000Y-114000000D01*
X132750000Y-114000000D02*
X132500000Y-114000000D01*
%TO.N,Net-(R17-Pad2)*%
X151000000Y-102750000D02*
X151000000Y-105500000D01*
X151000000Y-105500000D02*
X143250000Y-113250000D01*
X143250000Y-113250000D02*
X141000000Y-113250000D01*
%TD*%
D17*
X161300000Y-120300000D02*
G75*
G02*
X159300000Y-122300000I-2000000J0D01*
G01*
X92200000Y-122300000D02*
G75*
G02*
X90200000Y-120300000I0J2000000D01*
G01*
X159300000Y-80400000D02*
G75*
G02*
X161300000Y-82400000I0J-2000000D01*
G01*
X90200000Y-82400000D02*
G75*
G02*
X92200000Y-80400000I2000000J0D01*
G01*
X161300000Y-82400000D02*
X161300000Y-120300000D01*
X90200000Y-120300000D02*
X90200000Y-82400000D01*
X159300000Y-122300000D02*
X92200000Y-122300000D01*
X92200000Y-80400000D02*
X159300000Y-80400000D01*
M02*
